<?xml version="1.0" encoding="utf-8" standalone="no"?>
<!DOCTYPE svg PUBLIC "-//W3C//DTD SVG 1.1//EN"
  "http://www.w3.org/Graphics/SVG/1.1/DTD/svg11.dtd">
<svg xmlns:xlink="http://www.w3.org/1999/xlink" width="427.32pt" height="211.212pt" viewBox="0 0 427.32 211.212" xmlns="http://www.w3.org/2000/svg" version="1.1">
 <metadata>
  <rdf:RDF xmlns:dc="http://purl.org/dc/elements/1.1/" xmlns:cc="http://creativecommons.org/ns#" xmlns:rdf="http://www.w3.org/1999/02/22-rdf-syntax-ns#">
   <cc:Work>
    <dc:type rdf:resource="http://purl.org/dc/dcmitype/StillImage"/>
    <dc:date>2026-05-15T15:52:26.685460</dc:date>
    <dc:format>image/svg+xml</dc:format>
    <dc:creator>
     <cc:Agent>
      <dc:title>Matplotlib v3.10.6, https://matplotlib.org/</dc:title>
     </cc:Agent>
    </dc:creator>
   </cc:Work>
  </rdf:RDF>
 </metadata>
 <defs>
  <style type="text/css">*{stroke-linejoin: round; stroke-linecap: butt}</style>
 </defs>
 <g id="figure_1">
  <g id="patch_1">
   <path d="M 0 211.212
L 427.32 211.212
L 427.32 0
L 0 0
z
" style="fill: #ffffff"/>
  </g>
  <g id="axes_1">
   <g id="patch_2">
    <path d="M 7.2 204.012
L 420.12 204.012
L 420.12 7.2
L 7.2 7.2
z
" clip-path="url(#pf1bde78a9b)" style="fill: #ffffff"/>
   </g>
   <g id="patch_3">
    <path d="M 47.25324 155.596248
L 130.66308 155.596248
Q 147.17988 155.596248 147.17988 147.723768
L 147.17988 97.143084
Q 147.17988 89.270604 130.66308 89.270604
L 47.25324 89.270604
Q 30.73644 89.270604 30.73644 97.143084
L 30.73644 147.723768
Q 30.73644 155.596248 47.25324 155.596248
z
" clip-path="url(#pf1bde78a9b)" style="fill: #d8cab0; opacity: 0.55"/>
   </g>
   <g id="patch_4">
    <path d="M 175.25844 155.596248
L 258.66828 155.596248
Q 275.18508 155.596248 275.18508 147.723768
L 275.18508 97.143084
Q 275.18508 89.270604 258.66828 89.270604
L 175.25844 89.270604
Q 158.74164 89.270604 158.74164 97.143084
L 158.74164 147.723768
Q 158.74164 155.596248 175.25844 155.596248
z
" clip-path="url(#pf1bde78a9b)" style="fill: #d8cab0; opacity: 0.55"/>
   </g>
   <g id="patch_5">
    <path d="M 303.26364 155.596248
L 386.67348 155.596248
Q 403.19028 155.596248 403.19028 147.723768
L 403.19028 97.143084
Q 403.19028 89.270604 386.67348 89.270604
L 303.26364 89.270604
Q 286.74684 89.270604 286.74684 97.143084
L 286.74684 147.723768
Q 286.74684 155.596248 303.26364 155.596248
z
" clip-path="url(#pf1bde78a9b)" style="fill: #d8cab0; opacity: 0.55"/>
   </g>
   <g id="patch_6">
    <path d="M 43.94988 154.021752
L 44.94988 154.053187
L 45.94988 154.090116
L 46.94988 154.187694
L 47.94988 154.220086
L 48.94988 154.293209
L 49.94988 154.331367
L 50.94988 154.366296
L 51.94988 154.422885
L 52.94988 154.491437
L 53.94988 154.541563
L 54.94988 154.597934
L 55.94988 154.680558
L 56.94988 154.722691
L 57.94988 154.760576
L 58.94988 154.787191
L 59.94988 154.809409
L 60.94988 154.827069
L 61.94988 154.869904
L 62.94988 154.889932
L 63.94988 154.908554
L 64.94988 154.919985
L 65.94988 154.921737
L 66.94988 154.915678
L 67.94988 154.896593
L 68.94988 154.870182
L 69.94988 154.846456
L 70.94988 154.793428
L 71.94988 154.775963
L 72.94988 154.731127
L 73.94988 154.648068
L 74.94988 154.598901
L 75.94988 154.548683
L 76.94988 154.495546
L 77.94988 154.455354
L 78.94988 154.374594
L 79.94988 154.328797
L 80.94988 154.279654
L 81.94988 154.200079
L 82.94988 154.159833
L 83.94988 154.096299
L 84.94988 153.979048
L 85.94988 153.906675
L 86.94988 153.794694
L 87.94988 153.750628
L 88.94988 153.692854
L 89.94988 153.648156
L 90.94988 153.575769
L 91.94988 153.474744
L 92.94988 153.418074
L 93.94988 153.354349
L 94.94988 153.33015
L 95.94988 153.294192
L 96.94988 153.249281
L 97.94988 153.20977
L 98.94988 153.170023
L 99.94988 153.15789
L 100.94988 153.147341
L 101.94988 153.139408
L 102.94988 153.133497
L 103.94988 153.127119
L 104.94988 153.121754
L 105.94988 153.125925
L 106.94988 153.143393
L 107.94988 153.159642
L 108.94988 153.193348
L 109.94988 153.208732
L 110.94988 153.232652
L 111.94988 153.26143
L 112.94988 153.280936
L 113.94988 153.346194
L 114.94988 153.3749
L 115.94988 153.435349
L 116.94988 153.489665
L 117.94988 153.526384
L 118.94988 153.563167
L 119.94988 153.601573
L 120.94988 153.631299
L 121.94988 153.73508
L 122.94988 153.846839
L 123.94988 153.892149
L 124.94988 153.981114
L 125.94988 154.048262
L 127.35972 154.088544
L 128.364587 154.159051
L 129.365064 154.158179
L 131.238256 154.131986
L 132.2601 154.003935
L 133.256308 153.901123
L 134.253595 153.805105
L 135.246705 153.68279
L 136.247402 153.608238
L 137.50946 153.448519
L 138.5694 153.057156
L 139.502939 152.697403
L 140.979236 152.158905
L 142.704034 150.855266
L 143.906895 149.252017
L 144.563004 147.327671
L 144.707642 146.205521
L 144.724265 145.149272
L 144.740408 144.149272
L 144.759672 143.149272
L 144.769363 142.149272
L 144.776465 141.149272
L 144.775888 140.149272
L 144.765339 139.149272
L 144.757957 138.149272
L 144.745842 137.149272
L 144.719594 136.149272
L 144.700457 135.149272
L 144.685192 134.149272
L 144.646365 133.149272
L 144.628276 132.149272
L 144.597533 131.149272
L 144.558099 130.149272
L 144.526693 129.149272
L 144.446731 128.149272
L 144.370065 127.149272
L 144.293559 126.149272
L 144.261654 125.149272
L 144.177553 124.149272
L 144.112892 123.149272
L 144.028585 122.149272
L 143.975205 121.149272
L 143.932712 120.149272
L 143.816087 119.149272
L 143.706932 118.149272
L 143.587154 117.149272
L 143.528639 116.149272
L 143.471066 115.149272
L 143.435584 114.149272
L 143.338051 113.149272
L 143.294711 112.149272
L 143.26586 111.149272
L 143.242694 110.149272
L 143.199877 109.149272
L 143.156938 108.149272
L 143.128542 107.149272
L 143.094261 106.149272
L 143.076081 105.149272
L 143.057721 104.149272
L 143.041087 103.149272
L 143.020557 102.149272
L 142.991774 101.149272
L 142.983313 100.149272
L 142.9791 99.149272
L 142.976669 98.149272
L 142.977794 97.149272
L 142.98062 95.568588
L 142.923286 94.675427
L 142.448823 93.147046
L 141.546392 91.918629
L 140.184073 90.855482
L 139.471085 90.565503
L 138.556343 90.161056
L 137.124462 89.516944
L 136.319274 89.387448
L 135.335247 89.207971
L 134.354786 89.006045
L 133.373349 88.810263
L 132.38996 88.626766
L 131.141008 88.384559
L 130.214601 88.314438
L 129.216615 88.235172
L 127.345391 88.147041
L 126.35972 88.101397
L 125.35972 88.032434
L 124.35972 87.940102
L 123.35972 87.908461
L 122.35972 87.82993
L 121.35972 87.711285
L 120.35972 87.587503
L 119.35972 87.540158
L 118.35972 87.458655
L 117.35972 87.390043
L 116.35972 87.360245
L 115.35972 87.327158
L 114.35972 87.239699
L 113.35972 87.182789
L 112.35972 87.108821
L 111.35972 87.080641
L 110.35972 87.018775
L 109.35972 86.991291
L 108.35972 86.943997
L 107.35972 86.889621
L 106.35972 86.86043
L 105.35972 86.826903
L 104.35972 86.814251
L 103.35972 86.797936
L 102.35972 86.796215
L 101.35972 86.805903
L 100.35972 86.815201
L 99.35972 86.823786
L 98.35972 86.853956
L 97.35972 86.877555
L 96.35972 86.927331
L 95.35972 86.97792
L 94.35972 87.01911
L 93.35972 87.096792
L 92.35972 87.164621
L 91.35972 87.19174
L 90.35972 87.238686
L 89.35972 87.27707
L 88.35972 87.320424
L 87.35972 87.43127
L 86.35972 87.499986
L 85.35972 87.547576
L 84.35972 87.579809
L 83.35972 87.674307
L 82.35972 87.770664
L 81.35972 87.824155
L 80.35972 87.916436
L 79.35972 88.02629
L 78.35972 88.117413
L 77.35972 88.182918
L 76.35972 88.276538
L 75.35972 88.303192
L 74.35972 88.35849
L 73.35972 88.382413
L 72.35972 88.429194
L 71.35972 88.452004
L 70.35972 88.484138
L 69.35972 88.502294
L 68.35972 88.539251
L 67.35972 88.562859
L 66.35972 88.587777
L 65.35972 88.594993
L 64.35972 88.593231
L 63.35972 88.583376
L 62.35972 88.558759
L 61.35972 88.546615
L 60.35972 88.506611
L 59.35972 88.455821
L 58.35972 88.428477
L 57.35972 88.405996
L 56.35972 88.36875
L 55.35972 88.337544
L 54.35972 88.307383
L 53.35972 88.243539
L 52.35972 88.202343
L 51.35972 88.143653
L 50.35972 88.07924
L 49.35972 88.003183
L 48.35972 87.927043
L 47.35972 87.884376
L 46.35972 87.85176
L 45.35972 87.747983
L 43.94988 87.703924
L 42.948032 87.653823
L 41.945058 87.57613
L 40.071138 87.579401
L 39.044524 87.682608
L 38.043776 87.756844
L 37.043319 87.832907
L 36.045184 87.923593
L 35.04479 88.000057
L 33.784734 88.172373
L 32.685132 88.529762
L 31.743238 88.869649
L 30.279758 89.438625
L 28.524611 90.760685
L 27.302011 92.395422
L 26.651561 94.361705
L 26.541611 95.508254
L 26.533492 96.568588
L 26.533841 97.568588
L 26.537743 98.568588
L 26.549749 99.568588
L 26.563286 100.568588
L 26.581253 101.568588
L 26.594152 102.568588
L 26.620054 103.568588
L 26.670616 104.568588
L 26.704417 105.568588
L 26.765697 106.568588
L 26.788073 107.568588
L 26.825879 108.568588
L 26.922766 109.568588
L 26.955199 110.568588
L 27.009437 111.568588
L 27.040612 112.568588
L 27.138868 113.568588
L 27.193463 114.568588
L 27.302184 115.568588
L 27.393637 116.568588
L 27.503275 117.568588
L 27.548003 118.568588
L 27.581607 119.568588
L 27.647355 120.568588
L 27.72785 121.568588
L 27.766814 122.568588
L 27.864548 123.568588
L 27.942408 124.568588
L 28.007537 125.568588
L 28.080574 126.568588
L 28.139203 127.568588
L 28.178729 128.568588
L 28.209766 129.568588
L 28.255833 130.568588
L 28.273917 131.568588
L 28.307959 132.568588
L 28.327649 133.568588
L 28.331287 134.568588
L 28.333054 135.568588
L 28.331068 136.568588
L 28.324687 137.568588
L 28.311839 138.568588
L 28.281212 139.568588
L 28.263948 140.568588
L 28.241622 141.568588
L 28.212389 142.568588
L 28.186379 143.568588
L 28.150189 144.568588
L 28.114369 146.149272
L 28.126409 147.060023
L 28.532348 148.66925
L 29.452292 150.01667
L 30.843781 151.217047
L 31.632366 151.642534
L 32.510928 152.133009
L 33.943138 152.776338
L 34.877342 153.041543
L 35.850087 153.292037
L 36.829519 153.500438
L 37.808613 153.710967
L 38.791186 153.899597
L 40.033752 154.182
L 41.067819 154.258791
L 42.0657 154.341354
L 43.934861 154.4944
L 43.94988 154.021752
z
" clip-path="url(#pf1bde78a9b)" style="fill: #d9f5de; stroke: #238456; stroke-width: 2.5; stroke-linejoin: miter"/>
   </g>
   <g id="patch_7">
    <path d="M 171.95508 154.021752
L 172.95508 154.053187
L 173.95508 154.090116
L 174.95508 154.187694
L 175.95508 154.220086
L 176.95508 154.293209
L 177.95508 154.331367
L 178.95508 154.366296
L 179.95508 154.422885
L 180.95508 154.491437
L 181.95508 154.541563
L 182.95508 154.597934
L 183.95508 154.680558
L 184.95508 154.722691
L 185.95508 154.760576
L 186.95508 154.787191
L 187.95508 154.809409
L 188.95508 154.827069
L 189.95508 154.869904
L 190.95508 154.889932
L 191.95508 154.908554
L 192.95508 154.919985
L 193.95508 154.921737
L 194.95508 154.915678
L 195.95508 154.896593
L 196.95508 154.870182
L 197.95508 154.846456
L 198.95508 154.793428
L 199.95508 154.775963
L 200.95508 154.731127
L 201.95508 154.648068
L 202.95508 154.598901
L 203.95508 154.548683
L 204.95508 154.495546
L 205.95508 154.455354
L 206.95508 154.374594
L 207.95508 154.328797
L 208.95508 154.279654
L 209.95508 154.200079
L 210.95508 154.159833
L 211.95508 154.096299
L 212.95508 153.979048
L 213.95508 153.906675
L 214.95508 153.794694
L 215.95508 153.750628
L 216.95508 153.692854
L 217.95508 153.648156
L 218.95508 153.575769
L 219.95508 153.474744
L 220.95508 153.418074
L 221.95508 153.354349
L 222.95508 153.33015
L 223.95508 153.294192
L 224.95508 153.249281
L 225.95508 153.20977
L 226.95508 153.170023
L 227.95508 153.15789
L 228.95508 153.147341
L 229.95508 153.139408
L 230.95508 153.133497
L 231.95508 153.127119
L 232.95508 153.121754
L 233.95508 153.125925
L 234.95508 153.143393
L 235.95508 153.159642
L 236.95508 153.193348
L 237.95508 153.208732
L 238.95508 153.232652
L 239.95508 153.26143
L 240.95508 153.280936
L 241.95508 153.346194
L 242.95508 153.3749
L 243.95508 153.435349
L 244.95508 153.489665
L 245.95508 153.526384
L 246.95508 153.563167
L 247.95508 153.601573
L 248.95508 153.631299
L 249.95508 153.73508
L 250.95508 153.846839
L 251.95508 153.892149
L 252.95508 153.981114
L 253.95508 154.048262
L 255.36492 154.088544
L 256.369787 154.159051
L 257.370264 154.158179
L 259.243456 154.131986
L 260.2653 154.003935
L 261.261508 153.901123
L 262.258795 153.805105
L 263.251905 153.68279
L 264.252602 153.608238
L 265.51466 153.448519
L 266.5746 153.057156
L 267.508139 152.697403
L 268.984436 152.158905
L 270.709234 150.855266
L 271.912095 149.252017
L 272.568204 147.327671
L 272.712842 146.205521
L 272.729465 145.149272
L 272.745608 144.149272
L 272.764872 143.149272
L 272.774563 142.149272
L 272.781665 141.149272
L 272.781088 140.149272
L 272.770539 139.149272
L 272.763157 138.149272
L 272.751042 137.149272
L 272.724794 136.149272
L 272.705657 135.149272
L 272.690392 134.149272
L 272.651565 133.149272
L 272.633476 132.149272
L 272.602733 131.149272
L 272.563299 130.149272
L 272.531893 129.149272
L 272.451931 128.149272
L 272.375265 127.149272
L 272.298759 126.149272
L 272.266854 125.149272
L 272.182753 124.149272
L 272.118092 123.149272
L 272.033785 122.149272
L 271.980405 121.149272
L 271.937912 120.149272
L 271.821287 119.149272
L 271.712132 118.149272
L 271.592354 117.149272
L 271.533839 116.149272
L 271.476266 115.149272
L 271.440784 114.149272
L 271.343251 113.149272
L 271.299911 112.149272
L 271.27106 111.149272
L 271.247894 110.149272
L 271.205077 109.149272
L 271.162138 108.149272
L 271.133742 107.149272
L 271.099461 106.149272
L 271.081281 105.149272
L 271.062921 104.149272
L 271.046287 103.149272
L 271.025757 102.149272
L 270.996974 101.149272
L 270.988513 100.149272
L 270.9843 99.149272
L 270.981869 98.149272
L 270.982994 97.149272
L 270.98582 95.568588
L 270.928486 94.675427
L 270.454023 93.147046
L 269.551592 91.918629
L 268.189273 90.855482
L 267.476285 90.565503
L 266.561543 90.161056
L 265.129662 89.516944
L 264.324474 89.387448
L 263.340447 89.207971
L 262.359986 89.006045
L 261.378549 88.810263
L 260.39516 88.626766
L 259.146208 88.384559
L 258.219801 88.314438
L 257.221815 88.235172
L 255.350591 88.147041
L 254.36492 88.101397
L 253.36492 88.032434
L 252.36492 87.940102
L 251.36492 87.908461
L 250.36492 87.82993
L 249.36492 87.711285
L 248.36492 87.587503
L 247.36492 87.540158
L 246.36492 87.458655
L 245.36492 87.390043
L 244.36492 87.360245
L 243.36492 87.327158
L 242.36492 87.239699
L 241.36492 87.182789
L 240.36492 87.108821
L 239.36492 87.080641
L 238.36492 87.018775
L 237.36492 86.991291
L 236.36492 86.943997
L 235.36492 86.889621
L 234.36492 86.86043
L 233.36492 86.826903
L 232.36492 86.814251
L 231.36492 86.797936
L 230.36492 86.796215
L 229.36492 86.805903
L 228.36492 86.815201
L 227.36492 86.823786
L 226.36492 86.853956
L 225.36492 86.877555
L 224.36492 86.927331
L 223.36492 86.97792
L 222.36492 87.01911
L 221.36492 87.096792
L 220.36492 87.164621
L 219.36492 87.19174
L 218.36492 87.238686
L 217.36492 87.27707
L 216.36492 87.320424
L 215.36492 87.43127
L 214.36492 87.499986
L 213.36492 87.547576
L 212.36492 87.579809
L 211.36492 87.674307
L 210.36492 87.770664
L 209.36492 87.824155
L 208.36492 87.916436
L 207.36492 88.02629
L 206.36492 88.117413
L 205.36492 88.182918
L 204.36492 88.276538
L 203.36492 88.303192
L 202.36492 88.35849
L 201.36492 88.382413
L 200.36492 88.429194
L 199.36492 88.452004
L 198.36492 88.484138
L 197.36492 88.502294
L 196.36492 88.539251
L 195.36492 88.562859
L 194.36492 88.587777
L 193.36492 88.594993
L 192.36492 88.593231
L 191.36492 88.583376
L 190.36492 88.558759
L 189.36492 88.546615
L 188.36492 88.506611
L 187.36492 88.455821
L 186.36492 88.428477
L 185.36492 88.405996
L 184.36492 88.36875
L 183.36492 88.337544
L 182.36492 88.307383
L 181.36492 88.243539
L 180.36492 88.202343
L 179.36492 88.143653
L 178.36492 88.07924
L 177.36492 88.003183
L 176.36492 87.927043
L 175.36492 87.884376
L 174.36492 87.85176
L 173.36492 87.747983
L 171.95508 87.703924
L 170.953232 87.653823
L 169.950258 87.57613
L 168.076338 87.579401
L 167.049724 87.682608
L 166.048976 87.756844
L 165.048519 87.832907
L 164.050384 87.923593
L 163.04999 88.000057
L 161.789934 88.172373
L 160.690332 88.529762
L 159.748438 88.869649
L 158.284958 89.438625
L 156.529811 90.760685
L 155.307211 92.395422
L 154.656761 94.361705
L 154.546811 95.508254
L 154.538692 96.568588
L 154.539041 97.568588
L 154.542943 98.568588
L 154.554949 99.568588
L 154.568486 100.568588
L 154.586453 101.568588
L 154.599352 102.568588
L 154.625254 103.568588
L 154.675816 104.568588
L 154.709617 105.568588
L 154.770897 106.568588
L 154.793273 107.568588
L 154.831079 108.568588
L 154.927966 109.568588
L 154.960399 110.568588
L 155.014637 111.568588
L 155.045812 112.568588
L 155.144068 113.568588
L 155.198663 114.568588
L 155.307384 115.568588
L 155.398837 116.568588
L 155.508475 117.568588
L 155.553203 118.568588
L 155.586807 119.568588
L 155.652555 120.568588
L 155.73305 121.568588
L 155.772014 122.568588
L 155.869748 123.568588
L 155.947608 124.568588
L 156.012737 125.568588
L 156.085774 126.568588
L 156.144403 127.568588
L 156.183929 128.568588
L 156.214966 129.568588
L 156.261033 130.568588
L 156.279117 131.568588
L 156.313159 132.568588
L 156.332849 133.568588
L 156.336487 134.568588
L 156.338254 135.568588
L 156.336268 136.568588
L 156.329887 137.568588
L 156.317039 138.568588
L 156.286412 139.568588
L 156.269148 140.568588
L 156.246822 141.568588
L 156.217589 142.568588
L 156.191579 143.568588
L 156.155389 144.568588
L 156.119569 146.149272
L 156.131609 147.060023
L 156.537548 148.66925
L 157.457492 150.01667
L 158.848981 151.217047
L 159.637566 151.642534
L 160.516128 152.133009
L 161.948338 152.776338
L 162.882542 153.041543
L 163.855287 153.292037
L 164.834719 153.500438
L 165.813813 153.710967
L 166.796386 153.899597
L 168.038952 154.182
L 169.073019 154.258791
L 170.0709 154.341354
L 171.940061 154.4944
L 171.95508 154.021752
z
" clip-path="url(#pf1bde78a9b)" style="fill: #ffe6ad; stroke: #d89c22; stroke-width: 2.5; stroke-linejoin: miter"/>
   </g>
   <g id="patch_8">
    <path d="M 299.96028 154.021752
L 300.96028 154.053187
L 301.96028 154.090116
L 302.96028 154.187694
L 303.96028 154.220086
L 304.96028 154.293209
L 305.96028 154.331367
L 306.96028 154.366296
L 307.96028 154.422885
L 308.96028 154.491437
L 309.96028 154.541563
L 310.96028 154.597934
L 311.96028 154.680558
L 312.96028 154.722691
L 313.96028 154.760576
L 314.96028 154.787191
L 315.96028 154.809409
L 316.96028 154.827069
L 317.96028 154.869904
L 318.96028 154.889932
L 319.96028 154.908554
L 320.96028 154.919985
L 321.96028 154.921737
L 322.96028 154.915678
L 323.96028 154.896593
L 324.96028 154.870182
L 325.96028 154.846456
L 326.96028 154.793428
L 327.96028 154.775963
L 328.96028 154.731127
L 329.96028 154.648068
L 330.96028 154.598901
L 331.96028 154.548683
L 332.96028 154.495546
L 333.96028 154.455354
L 334.96028 154.374594
L 335.96028 154.328797
L 336.96028 154.279654
L 337.96028 154.200079
L 338.96028 154.159833
L 339.96028 154.096299
L 340.96028 153.979048
L 341.96028 153.906675
L 342.96028 153.794694
L 343.96028 153.750628
L 344.96028 153.692854
L 345.96028 153.648156
L 346.96028 153.575769
L 347.96028 153.474744
L 348.96028 153.418074
L 349.96028 153.354349
L 350.96028 153.33015
L 351.96028 153.294192
L 352.96028 153.249281
L 353.96028 153.20977
L 354.96028 153.170023
L 355.96028 153.15789
L 356.96028 153.147341
L 357.96028 153.139408
L 358.96028 153.133497
L 359.96028 153.127119
L 360.96028 153.121754
L 361.96028 153.125925
L 362.96028 153.143393
L 363.96028 153.159642
L 364.96028 153.193348
L 365.96028 153.208732
L 366.96028 153.232652
L 367.96028 153.26143
L 368.96028 153.280936
L 369.96028 153.346194
L 370.96028 153.3749
L 371.96028 153.435349
L 372.96028 153.489665
L 373.96028 153.526384
L 374.96028 153.563167
L 375.96028 153.601573
L 376.96028 153.631299
L 377.96028 153.73508
L 378.96028 153.846839
L 379.96028 153.892149
L 380.96028 153.981114
L 381.96028 154.048262
L 383.37012 154.088544
L 384.374987 154.159051
L 385.375464 154.158179
L 387.248656 154.131986
L 388.2705 154.003935
L 389.266708 153.901123
L 390.263995 153.805105
L 391.257105 153.68279
L 392.257802 153.608238
L 393.51986 153.448519
L 394.5798 153.057156
L 395.513339 152.697403
L 396.989636 152.158905
L 398.714434 150.855266
L 399.917295 149.252017
L 400.573404 147.327671
L 400.718042 146.205521
L 400.734665 145.149272
L 400.750808 144.149272
L 400.770072 143.149272
L 400.779763 142.149272
L 400.786865 141.149272
L 400.786288 140.149272
L 400.775739 139.149272
L 400.768357 138.149272
L 400.756242 137.149272
L 400.729994 136.149272
L 400.710857 135.149272
L 400.695592 134.149272
L 400.656765 133.149272
L 400.638676 132.149272
L 400.607933 131.149272
L 400.568499 130.149272
L 400.537093 129.149272
L 400.457131 128.149272
L 400.380465 127.149272
L 400.303959 126.149272
L 400.272054 125.149272
L 400.187953 124.149272
L 400.123292 123.149272
L 400.038985 122.149272
L 399.985605 121.149272
L 399.943112 120.149272
L 399.826487 119.149272
L 399.717332 118.149272
L 399.597554 117.149272
L 399.539039 116.149272
L 399.481466 115.149272
L 399.445984 114.149272
L 399.348451 113.149272
L 399.305111 112.149272
L 399.27626 111.149272
L 399.253094 110.149272
L 399.210277 109.149272
L 399.167338 108.149272
L 399.138942 107.149272
L 399.104661 106.149272
L 399.086481 105.149272
L 399.068121 104.149272
L 399.051487 103.149272
L 399.030957 102.149272
L 399.002174 101.149272
L 398.993713 100.149272
L 398.9895 99.149272
L 398.987069 98.149272
L 398.988194 97.149272
L 398.99102 95.568588
L 398.933686 94.675427
L 398.459223 93.147046
L 397.556792 91.918629
L 396.194473 90.855482
L 395.481485 90.565503
L 394.566743 90.161056
L 393.134862 89.516944
L 392.329674 89.387448
L 391.345647 89.207971
L 390.365186 89.006045
L 389.383749 88.810263
L 388.40036 88.626766
L 387.151408 88.384559
L 386.225001 88.314438
L 385.227015 88.235172
L 383.355791 88.147041
L 382.37012 88.101397
L 381.37012 88.032434
L 380.37012 87.940102
L 379.37012 87.908461
L 378.37012 87.82993
L 377.37012 87.711285
L 376.37012 87.587503
L 375.37012 87.540158
L 374.37012 87.458655
L 373.37012 87.390043
L 372.37012 87.360245
L 371.37012 87.327158
L 370.37012 87.239699
L 369.37012 87.182789
L 368.37012 87.108821
L 367.37012 87.080641
L 366.37012 87.018775
L 365.37012 86.991291
L 364.37012 86.943997
L 363.37012 86.889621
L 362.37012 86.86043
L 361.37012 86.826903
L 360.37012 86.814251
L 359.37012 86.797936
L 358.37012 86.796215
L 357.37012 86.805903
L 356.37012 86.815201
L 355.37012 86.823786
L 354.37012 86.853956
L 353.37012 86.877555
L 352.37012 86.927331
L 351.37012 86.97792
L 350.37012 87.01911
L 349.37012 87.096792
L 348.37012 87.164621
L 347.37012 87.19174
L 346.37012 87.238686
L 345.37012 87.27707
L 344.37012 87.320424
L 343.37012 87.43127
L 342.37012 87.499986
L 341.37012 87.547576
L 340.37012 87.579809
L 339.37012 87.674307
L 338.37012 87.770664
L 337.37012 87.824155
L 336.37012 87.916436
L 335.37012 88.02629
L 334.37012 88.117413
L 333.37012 88.182918
L 332.37012 88.276538
L 331.37012 88.303192
L 330.37012 88.35849
L 329.37012 88.382413
L 328.37012 88.429194
L 327.37012 88.452004
L 326.37012 88.484138
L 325.37012 88.502294
L 324.37012 88.539251
L 323.37012 88.562859
L 322.37012 88.587777
L 321.37012 88.594993
L 320.37012 88.593231
L 319.37012 88.583376
L 318.37012 88.558759
L 317.37012 88.546615
L 316.37012 88.506611
L 315.37012 88.455821
L 314.37012 88.428477
L 313.37012 88.405996
L 312.37012 88.36875
L 311.37012 88.337544
L 310.37012 88.307383
L 309.37012 88.243539
L 308.37012 88.202343
L 307.37012 88.143653
L 306.37012 88.07924
L 305.37012 88.003183
L 304.37012 87.927043
L 303.37012 87.884376
L 302.37012 87.85176
L 301.37012 87.747983
L 299.96028 87.703924
L 298.958432 87.653823
L 297.955458 87.57613
L 296.081538 87.579401
L 295.054924 87.682608
L 294.054176 87.756844
L 293.053719 87.832907
L 292.055584 87.923593
L 291.05519 88.000057
L 289.795134 88.172373
L 288.695532 88.529762
L 287.753638 88.869649
L 286.290158 89.438625
L 284.535011 90.760685
L 283.312411 92.395422
L 282.661961 94.361705
L 282.552011 95.508254
L 282.543892 96.568588
L 282.544241 97.568588
L 282.548143 98.568588
L 282.560149 99.568588
L 282.573686 100.568588
L 282.591653 101.568588
L 282.604552 102.568588
L 282.630454 103.568588
L 282.681016 104.568588
L 282.714817 105.568588
L 282.776097 106.568588
L 282.798473 107.568588
L 282.836279 108.568588
L 282.933166 109.568588
L 282.965599 110.568588
L 283.019837 111.568588
L 283.051012 112.568588
L 283.149268 113.568588
L 283.203863 114.568588
L 283.312584 115.568588
L 283.404037 116.568588
L 283.513675 117.568588
L 283.558403 118.568588
L 283.592007 119.568588
L 283.657755 120.568588
L 283.73825 121.568588
L 283.777214 122.568588
L 283.874948 123.568588
L 283.952808 124.568588
L 284.017937 125.568588
L 284.090974 126.568588
L 284.149603 127.568588
L 284.189129 128.568588
L 284.220166 129.568588
L 284.266233 130.568588
L 284.284317 131.568588
L 284.318359 132.568588
L 284.338049 133.568588
L 284.341687 134.568588
L 284.343454 135.568588
L 284.341468 136.568588
L 284.335087 137.568588
L 284.322239 138.568588
L 284.291612 139.568588
L 284.274348 140.568588
L 284.252022 141.568588
L 284.222789 142.568588
L 284.196779 143.568588
L 284.160589 144.568588
L 284.124769 146.149272
L 284.136809 147.060023
L 284.542748 148.66925
L 285.462692 150.01667
L 286.854181 151.217047
L 287.642766 151.642534
L 288.521328 152.133009
L 289.953538 152.776338
L 290.887742 153.041543
L 291.860487 153.292037
L 292.839919 153.500438
L 293.819013 153.710967
L 294.801586 153.899597
L 296.044152 154.182
L 297.078219 154.258791
L 298.0761 154.341354
L 299.945261 154.4944
L 299.96028 154.021752
z
" clip-path="url(#pf1bde78a9b)" style="fill: #ffd7d1; stroke: #ba3f3f; stroke-width: 2.5; stroke-linejoin: miter"/>
   </g>
   <g id="text_1">
    <text style="font-size: 7.6px; font-family: 'Comic Sans MS', 'Ink Free', 'Arial', 'DejaVu Sans', sans-serif; text-anchor: start; fill: #6c6c6c" x="26.60724" y="42.69255" transform="rotate(-0 26.60724 42.69255)">A visual reminder of what the result supports, where it is conditional, and what it does not claim.</text>
   </g>
   <g id="text_2">
    <text style="font-size: 7.3px; font-family: 'Comic Sans MS', 'Ink Free', 'Arial', 'DejaVu Sans', sans-serif; fill: #262626" transform="translate(46.4274 122.756158)">All models are faithful</text>
    <text style="font-size: 7.3px; font-family: 'Comic Sans MS', 'Ink Free', 'Arial', 'DejaVu Sans', sans-serif; fill: #262626" transform="translate(46.4274 131.250803)">under C0; LLaVA shows C3/C4</text>
    <text style="font-size: 7.3px; font-family: 'Comic Sans MS', 'Ink Free', 'Arial', 'DejaVu Sans', sans-serif; fill: #262626" transform="translate(46.4274 139.745448)">paired shifts.</text>
   </g>
   <g id="text_3">
    <text style="font-size: 7.3px; font-family: 'Comic Sans MS', 'Ink Free', 'Arial', 'DejaVu Sans', sans-serif; fill: #262626" transform="translate(174.4326 122.756158)">The shift changes with</text>
    <text style="font-size: 7.3px; font-family: 'Comic Sans MS', 'Ink Free', 'Arial', 'DejaVu Sans', sans-serif; fill: #262626" transform="translate(174.4326 131.250803)">wording, format, prompt</text>
    <text style="font-size: 7.3px; font-family: 'Comic Sans MS', 'Ink Free', 'Arial', 'DejaVu Sans', sans-serif; fill: #262626" transform="translate(174.4326 139.745448)">factor, and colour pair.</text>
   </g>
   <g id="text_4">
    <text style="font-size: 7.3px; font-family: 'Comic Sans MS', 'Ink Free', 'Arial', 'DejaVu Sans', sans-serif; fill: #262626" transform="translate(302.4378 122.756158)">The evidence does not show</text>
    <text style="font-size: 7.3px; font-family: 'Comic Sans MS', 'Ink Free', 'Arial', 'DejaVu Sans', sans-serif; fill: #262626" transform="translate(302.4378 131.250803)">general text-over-vision</text>
    <text style="font-size: 7.3px; font-family: 'Comic Sans MS', 'Ink Free', 'Arial', 'DejaVu Sans', sans-serif; fill: #262626" transform="translate(302.4378 139.745448)">behaviour.</text>
   </g>
   <g id="patch_9">
    <path d="M 85.6548 88.87698
L 86.655294 88.876638
L 87.655962 88.881786
L 89.330808 88.926191
L 90.344848 88.778852
L 91.342034 88.674132
L 92.333042 88.534996
L 93.32348 88.392683
L 94.488802 88.24098
L 95.513213 87.990889
L 96.481421 87.735769
L 97.622845 87.432151
L 99.062173 86.884639
L 100.370971 86.266217
L 101.295991 85.661181
L 102.518611 84.819959
L 103.323971 83.959112
L 104.068889 83.128858
L 104.957164 81.226273
L 105.102279 80.080806
L 105.059672 79.080982
L 104.289365 77.092865
L 103.484393 76.095122
L 102.748231 75.257258
L 101.768697 74.5504
L 100.546196 73.709012
L 99.168164 73.023064
L 97.762637 72.453082
L 96.723743 72.136172
L 95.757137 71.87601
L 94.607631 71.597826
L 93.535637 71.44996
L 92.542498 71.322694
L 91.548843 71.198303
L 90.557475 71.061169
L 89.387882 70.933258
L 88.335794 70.941895
L 87.334738 70.959253
L 85.660464 70.985663
L 84.650919 71.057651
L 83.653441 71.152914
L 81.985419 71.32323
L 81.02013 71.570507
L 80.05565 71.857419
L 79.07917 72.077486
L 78.105112 72.311043
L 76.957687 72.562439
L 76.073734 72.922645
L 75.151309 73.321816
L 74.044124 73.733165
L 72.787607 74.367452
L 71.570698 75.015492
L 70.86634 75.572651
L 69.685313 76.472061
L 69.193041 77.131054
L 68.491453 77.998965
L 67.931218 79.476756
L 67.945695 80.081239
L 68.014792 80.836886
L 68.667695 82.257062
L 69.179789 82.768575
L 69.915428 83.606894
L 70.57058 84.049984
L 71.767565 84.927069
L 72.907075 85.514772
L 74.198695 86.126463
L 75.060558 86.411098
L 76.006337 86.736786
L 77.12197 87.121553
L 78.006838 87.293692
L 78.979574 87.534616
L 79.958767 87.739564
L 80.932353 87.975755
L 82.078078 88.236618
L 82.999292 88.296976
L 83.997619 88.365502
L 85.668146 88.457013
L 85.6548 88.87698
z
" clip-path="url(#pf1bde78a9b)" style="fill: #238456; stroke: #ffffff; stroke-width: 2; stroke-linejoin: miter"/>
   </g>
   <g id="patch_10">
    <path d="M 213.66 90.254664
L 214.451176 89.642268
L 215.245849 89.034108
L 216.079134 88.472719
L 216.870918 87.86106
L 217.688634 87.280812
L 218.48409 86.6736
L 219.277491 86.063899
L 220.08468 85.4709
L 220.899486 84.887127
L 221.702561 84.289145
L 222.509612 83.695978
L 223.333376 83.123057
L 224.131362 82.51891
L 224.926645 81.911489
L 225.714752 81.295375
L 226.500059 80.675871
L 227.282465 80.052851
L 228.080899 79.449247
L 228.864812 78.828054
L 229.64783 78.205776
L 230.426271 77.577954
L 231.198549 76.942667
L 231.965855 76.301357
L 232.812116 75.577973
L 231.255159 74.054898
L 230.255159 74.078624
L 229.255159 74.131652
L 228.255159 74.149117
L 227.255159 74.193953
L 226.255159 74.277012
L 225.255159 74.326179
L 224.255159 74.376397
L 223.255159 74.429534
L 222.255159 74.469726
L 221.255159 74.550486
L 220.255159 74.596283
L 219.255159 74.645426
L 218.255159 74.725001
L 217.255159 74.765247
L 216.255159 74.828781
L 215.255159 74.946032
L 214.255159 75.018405
L 213.255159 75.130386
L 212.255159 75.174452
L 211.255159 75.232226
L 210.255159 75.276924
L 209.255159 75.349311
L 208.255159 75.450336
L 207.255159 75.507006
L 206.255159 75.570731
L 205.255159 75.59493
L 204.255159 75.630888
L 203.255159 75.675799
L 202.255159 75.71531
L 201.255159 75.755057
L 200.255159 75.76719
L 199.255159 75.777739
L 198.255159 75.785672
L 197.255159 75.791583
L 196.255159 75.797961
L 195.064841 75.803326
L 196.406321 74.849137
L 197.166363 75.499246
L 197.927182 76.148414
L 198.676886 76.811045
L 199.438255 77.459546
L 200.194189 78.114631
L 200.947031 78.773461
L 201.705776 79.42514
L 202.435393 80.112103
L 203.188281 80.770878
L 203.92096 81.454131
L 204.657543 82.132656
L 205.40533 82.79761
L 206.153075 83.462614
L 206.899787 84.128869
L 207.652025 84.78843
L 208.357117 85.5051
L 209.05713 86.227922
L 209.799447 86.899501
L 210.513972 87.604746
L 211.242386 88.293165
L 211.987904 88.960868
L 212.693905 89.676436
L 213.532643 90.408933
z
" clip-path="url(#pf1bde78a9b)" style="fill: #d89c22; stroke: #ffffff; stroke-width: 2; stroke-linejoin: miter"/>
   </g>
   <g id="patch_11">
    <path d="M 334.712424 72.019895
L 333.796194 72.421778
L 332.8776 72.818703
L 331.932911 73.160879
L 331.016269 73.5619
L 330.082103 73.926151
L 329.16298 74.321967
L 328.245246 74.720696
L 327.318194 75.099874
L 326.385994 75.468252
L 324.656059 76.23727
L 324.303531 77.706506
L 324.220908 78.706506
L 324.178775 79.706506
L 324.140889 80.706506
L 324.114274 81.706506
L 324.092056 83.334374
L 325.435922 84.491598
L 326.320196 84.960526
L 327.214284 85.408866
L 328.108977 85.855936
L 329.006763 86.296516
L 329.908714 86.728357
L 330.814026 87.153149
L 331.724942 87.566181
L 332.639011 87.9726
L 334.357586 88.76545
L 335.712424 88.792662
L 336.712424 88.775196
L 337.712424 88.730361
L 338.712424 88.647302
L 339.712424 88.598135
L 340.712424 88.547917
L 341.712424 88.494779
L 342.712424 88.454587
L 343.712424 88.373827
L 344.712424 88.328031
L 345.712424 88.278887
L 346.712424 88.199313
L 348.617976 88.159066
L 349.552756 87.658019
L 350.405012 87.121915
L 351.276578 86.626323
L 352.131101 86.094977
L 353.014846 85.624938
L 353.892693 85.142525
L 354.776166 84.671915
L 355.647726 84.176311
L 356.506963 83.654854
L 358.190948 82.789432
L 357.783284 82.334374
L 357.759085 81.334374
L 357.723126 80.334374
L 357.678216 79.334374
L 357.638705 78.334374
L 357.598958 76.706506
L 357.176296 77.056058
L 356.269053 76.63532
L 355.362935 76.212221
L 354.457687 75.787296
L 353.552238 75.362793
L 352.647225 74.937375
L 351.746314 74.50335
L 350.851125 74.057321
L 349.955412 73.612393
L 348.261547 72.767699
L 347.617976 72.832914
L 346.617976 72.808994
L 345.617976 72.780216
L 344.617976 72.760711
L 343.617976 72.695453
L 342.617976 72.666746
L 341.617976 72.606298
L 340.617976 72.551981
L 339.617976 72.515263
L 338.617976 72.47848
L 337.617976 72.440073
L 336.617976 72.410348
L 334.712424 72.306566
z
" clip-path="url(#pf1bde78a9b)" style="fill: #ba3f3f; stroke: #ffffff; stroke-width: 2; stroke-linejoin: miter"/>
   </g>
   <g id="text_5">
    <text style="font-size: 15.5px; font-family: 'Comic Sans MS', 'Ink Free', 'Arial', 'DejaVu Sans', sans-serif; text-anchor: start; fill: #262626" x="25.7814" y="31.156845" transform="rotate(-0 25.7814 31.156845)">Claim boundary cheat sheet</text>
   </g>
   <g id="text_6">
    <text style="font-size: 8.2px; font-family: 'Comic Sans MS', 'Ink Free', 'Arial', 'DejaVu Sans', sans-serif; text-anchor: middle; fill: #ffffff" x="85.6548" y="82.07044" transform="rotate(-0 85.6548 82.07044)">OK</text>
   </g>
   <g id="text_7">
    <text style="font-weight: 700; font-size: 10px; font-family: 'Comic Sans MS', 'Ink Free', 'Arial', 'DejaVu Sans', sans-serif; text-anchor: start; fill: #238456" x="46.4274" y="113.4435" transform="rotate(-0 46.4274 113.4435)">Supported</text>
   </g>
   <g id="text_8">
    <text style="font-size: 8.2px; font-family: 'Comic Sans MS', 'Ink Free', 'Arial', 'DejaVu Sans', sans-serif; text-anchor: middle; fill: #ffffff" x="213.66" y="82.07044" transform="rotate(-0 213.66 82.07044)">IF</text>
   </g>
   <g id="text_9">
    <text style="font-weight: 700; font-size: 10px; font-family: 'Comic Sans MS', 'Ink Free', 'Arial', 'DejaVu Sans', sans-serif; text-anchor: start; fill: #d89c22" x="174.4326" y="113.4435" transform="rotate(-0 174.4326 113.4435)">Bounded</text>
   </g>
   <g id="text_10">
    <text style="font-size: 8.2px; font-family: 'Comic Sans MS', 'Ink Free', 'Arial', 'DejaVu Sans', sans-serif; text-anchor: middle; fill: #ffffff" x="341.6652" y="82.07044" transform="rotate(-0 341.6652 82.07044)">NO</text>
   </g>
   <g id="text_11">
    <text style="font-weight: 700; font-size: 10px; font-family: 'Comic Sans MS', 'Ink Free', 'Arial', 'DejaVu Sans', sans-serif; text-anchor: start; fill: #ba3f3f" x="302.4378" y="113.4435" transform="rotate(-0 302.4378 113.4435)">Not claimed</text>
   </g>
   <g id="text_12">
    <text style="font-size: 8.4px; font-family: 'Comic Sans MS', 'Ink Free', 'Arial', 'DejaVu Sans', sans-serif; text-anchor: middle; fill: #6c6c6c" x="213.66" y="188.328118" transform="rotate(-0 213.66 188.328118)">Discussion guide: strong result, explicit boundary.</text>
   </g>
  </g>
 </g>
 <defs>
  <clipPath id="pf1bde78a9b">
   <rect x="7.2" y="7.2" width="412.92" height="196.812"/>
  </clipPath>
 </defs>
</svg>
