<?xml version="1.0" encoding="utf-8" standalone="no"?>
<!DOCTYPE svg PUBLIC "-//W3C//DTD SVG 1.1//EN"
  "http://www.w3.org/Graphics/SVG/1.1/DTD/svg11.dtd">
<svg xmlns:xlink="http://www.w3.org/1999/xlink" width="427.32pt" height="211.212pt" viewBox="0 0 427.32 211.212" xmlns="http://www.w3.org/2000/svg" version="1.1">
 <metadata>
  <rdf:RDF xmlns:dc="http://purl.org/dc/elements/1.1/" xmlns:cc="http://creativecommons.org/ns#" xmlns:rdf="http://www.w3.org/1999/02/22-rdf-syntax-ns#">
   <cc:Work>
    <dc:type rdf:resource="http://purl.org/dc/dcmitype/StillImage"/>
    <dc:date>2026-05-15T15:43:15.930443</dc:date>
    <dc:format>image/svg+xml</dc:format>
    <dc:creator>
     <cc:Agent>
      <dc:title>Matplotlib v3.10.6, https://matplotlib.org/</dc:title>
     </cc:Agent>
    </dc:creator>
   </cc:Work>
  </rdf:RDF>
 </metadata>
 <defs>
  <style type="text/css">*{stroke-linejoin: round; stroke-linecap: butt}</style>
 </defs>
 <g id="figure_1">
  <g id="patch_1">
   <path d="M 0 211.212
L 427.32 211.212
L 427.32 0
L 0 0
z
" style="fill: #ffffff"/>
  </g>
  <g id="axes_1">
   <g id="patch_2">
    <path d="M 7.2 204.012
L 420.12 204.012
L 420.12 7.2
L 7.2 7.2
z
" clip-path="url(#p2330cdd220)" style="fill: #f9fcff"/>
   </g>
   <g id="patch_3">
    <path d="M 23.7168 193.088934
C 24.209584 193.088934 24.682252 192.995616 25.030703 192.829532
C 25.379155 192.663448 25.57494 192.438158 25.57494 192.20328
C 25.57494 191.968402 25.379155 191.743112 25.030703 191.577028
C 24.682252 191.410944 24.209584 191.317626 23.7168 191.317626
C 23.224016 191.317626 22.751348 191.410944 22.402897 191.577028
C 22.054445 191.743112 21.85866 191.968402 21.85866 192.20328
C 21.85866 192.438158 22.054445 192.663448 22.402897 192.829532
C 22.751348 192.995616 23.224016 193.088934 23.7168 193.088934
z
" clip-path="url(#p2330cdd220)" style="fill: #cfdfea; opacity: 0.22"/>
   </g>
   <g id="patch_4">
    <path d="M 23.7168 142.311438
C 24.209584 142.311438 24.682252 142.21812 25.030703 142.052036
C 25.379155 141.885952 25.57494 141.660662 25.57494 141.425784
C 25.57494 141.190906 25.379155 140.965616 25.030703 140.799532
C 24.682252 140.633448 24.209584 140.54013 23.7168 140.54013
C 23.224016 140.54013 22.751348 140.633448 22.402897 140.799532
C 22.054445 140.965616 21.85866 141.190906 21.85866 141.425784
C 21.85866 141.660662 22.054445 141.885952 22.402897 142.052036
C 22.751348 142.21812 23.224016 142.311438 23.7168 142.311438
z
" clip-path="url(#p2330cdd220)" style="fill: #cfdfea; opacity: 0.22"/>
   </g>
   <g id="patch_5">
    <path d="M 23.7168 91.533942
C 24.209584 91.533942 24.682252 91.440624 25.030703 91.27454
C 25.379155 91.108456 25.57494 90.883166 25.57494 90.648288
C 25.57494 90.41341 25.379155 90.18812 25.030703 90.022036
C 24.682252 89.855952 24.209584 89.762634 23.7168 89.762634
C 23.224016 89.762634 22.751348 89.855952 22.402897 90.022036
C 22.054445 90.18812 21.85866 90.41341 21.85866 90.648288
C 21.85866 90.883166 22.054445 91.108456 22.402897 91.27454
C 22.751348 91.440624 23.224016 91.533942 23.7168 91.533942
z
" clip-path="url(#p2330cdd220)" style="fill: #cfdfea; opacity: 0.22"/>
   </g>
   <g id="patch_6">
    <path d="M 23.7168 40.756446
C 24.209584 40.756446 24.682252 40.663128 25.030703 40.497044
C 25.379155 40.33096 25.57494 40.10567 25.57494 39.870792
C 25.57494 39.635914 25.379155 39.410624 25.030703 39.24454
C 24.682252 39.078456 24.209584 38.985138 23.7168 38.985138
C 23.224016 38.985138 22.751348 39.078456 22.402897 39.24454
C 22.054445 39.410624 21.85866 39.635914 21.85866 39.870792
C 21.85866 40.10567 22.054445 40.33096 22.402897 40.497044
C 22.751348 40.663128 23.224016 40.756446 23.7168 40.756446
z
" clip-path="url(#p2330cdd220)" style="fill: #cfdfea; opacity: 0.22"/>
   </g>
   <g id="patch_7">
    <path d="M 44.8216 159.23727
C 45.314384 159.23727 45.787052 159.143952 46.135503 158.977868
C 46.483955 158.811784 46.67974 158.586494 46.67974 158.351616
C 46.67974 158.116738 46.483955 157.891448 46.135503 157.725364
C 45.787052 157.55928 45.314384 157.465962 44.8216 157.465962
C 44.328816 157.465962 43.856148 157.55928 43.507697 157.725364
C 43.159245 157.891448 42.96346 158.116738 42.96346 158.351616
C 42.96346 158.586494 43.159245 158.811784 43.507697 158.977868
C 43.856148 159.143952 44.328816 159.23727 44.8216 159.23727
z
" clip-path="url(#p2330cdd220)" style="fill: #cfdfea; opacity: 0.22"/>
   </g>
   <g id="patch_8">
    <path d="M 44.8216 108.459774
C 45.314384 108.459774 45.787052 108.366456 46.135503 108.200372
C 46.483955 108.034288 46.67974 107.808998 46.67974 107.57412
C 46.67974 107.339242 46.483955 107.113952 46.135503 106.947868
C 45.787052 106.781784 45.314384 106.688466 44.8216 106.688466
C 44.328816 106.688466 43.856148 106.781784 43.507697 106.947868
C 43.159245 107.113952 42.96346 107.339242 42.96346 107.57412
C 42.96346 107.808998 43.159245 108.034288 43.507697 108.200372
C 43.856148 108.366456 44.328816 108.459774 44.8216 108.459774
z
" clip-path="url(#p2330cdd220)" style="fill: #cfdfea; opacity: 0.22"/>
   </g>
   <g id="patch_9">
    <path d="M 44.8216 57.682278
C 45.314384 57.682278 45.787052 57.58896 46.135503 57.422876
C 46.483955 57.256792 46.67974 57.031502 46.67974 56.796624
C 46.67974 56.561746 46.483955 56.336456 46.135503 56.170372
C 45.787052 56.004288 45.314384 55.91097 44.8216 55.91097
C 44.328816 55.91097 43.856148 56.004288 43.507697 56.170372
C 43.159245 56.336456 42.96346 56.561746 42.96346 56.796624
C 42.96346 57.031502 43.159245 57.256792 43.507697 57.422876
C 43.856148 57.58896 44.328816 57.682278 44.8216 57.682278
z
" clip-path="url(#p2330cdd220)" style="fill: #cfdfea; opacity: 0.22"/>
   </g>
   <g id="patch_10">
    <path d="M 65.9264 176.163102
C 66.419184 176.163102 66.891852 176.069784 67.240303 175.9037
C 67.588755 175.737616 67.78454 175.512326 67.78454 175.277448
C 67.78454 175.04257 67.588755 174.81728 67.240303 174.651196
C 66.891852 174.485112 66.419184 174.391794 65.9264 174.391794
C 65.433616 174.391794 64.960948 174.485112 64.612497 174.651196
C 64.264045 174.81728 64.06826 175.04257 64.06826 175.277448
C 64.06826 175.512326 64.264045 175.737616 64.612497 175.9037
C 64.960948 176.069784 65.433616 176.163102 65.9264 176.163102
z
" clip-path="url(#p2330cdd220)" style="fill: #cfdfea; opacity: 0.22"/>
   </g>
   <g id="patch_11">
    <path d="M 65.9264 125.385606
C 66.419184 125.385606 66.891852 125.292288 67.240303 125.126204
C 67.588755 124.96012 67.78454 124.73483 67.78454 124.499952
C 67.78454 124.265074 67.588755 124.039784 67.240303 123.8737
C 66.891852 123.707616 66.419184 123.614298 65.9264 123.614298
C 65.433616 123.614298 64.960948 123.707616 64.612497 123.8737
C 64.264045 124.039784 64.06826 124.265074 64.06826 124.499952
C 64.06826 124.73483 64.264045 124.96012 64.612497 125.126204
C 64.960948 125.292288 65.433616 125.385606 65.9264 125.385606
z
" clip-path="url(#p2330cdd220)" style="fill: #cfdfea; opacity: 0.22"/>
   </g>
   <g id="patch_12">
    <path d="M 65.9264 74.60811
C 66.419184 74.60811 66.891852 74.514792 67.240303 74.348708
C 67.588755 74.182624 67.78454 73.957334 67.78454 73.722456
C 67.78454 73.487578 67.588755 73.262288 67.240303 73.096204
C 66.891852 72.93012 66.419184 72.836802 65.9264 72.836802
C 65.433616 72.836802 64.960948 72.93012 64.612497 73.096204
C 64.264045 73.262288 64.06826 73.487578 64.06826 73.722456
C 64.06826 73.957334 64.264045 74.182624 64.612497 74.348708
C 64.960948 74.514792 65.433616 74.60811 65.9264 74.60811
z
" clip-path="url(#p2330cdd220)" style="fill: #cfdfea; opacity: 0.22"/>
   </g>
   <g id="patch_13">
    <path d="M 65.9264 23.830614
C 66.419184 23.830614 66.891852 23.737296 67.240303 23.571212
C 67.588755 23.405128 67.78454 23.179838 67.78454 22.94496
C 67.78454 22.710082 67.588755 22.484792 67.240303 22.318708
C 66.891852 22.152624 66.419184 22.059306 65.9264 22.059306
C 65.433616 22.059306 64.960948 22.152624 64.612497 22.318708
C 64.264045 22.484792 64.06826 22.710082 64.06826 22.94496
C 64.06826 23.179838 64.264045 23.405128 64.612497 23.571212
C 64.960948 23.737296 65.433616 23.830614 65.9264 23.830614
z
" clip-path="url(#p2330cdd220)" style="fill: #cfdfea; opacity: 0.22"/>
   </g>
   <g id="patch_14">
    <path d="M 87.0312 193.088934
C 87.523984 193.088934 87.996652 192.995616 88.345103 192.829532
C 88.693555 192.663448 88.88934 192.438158 88.88934 192.20328
C 88.88934 191.968402 88.693555 191.743112 88.345103 191.577028
C 87.996652 191.410944 87.523984 191.317626 87.0312 191.317626
C 86.538416 191.317626 86.065748 191.410944 85.717297 191.577028
C 85.368845 191.743112 85.17306 191.968402 85.17306 192.20328
C 85.17306 192.438158 85.368845 192.663448 85.717297 192.829532
C 86.065748 192.995616 86.538416 193.088934 87.0312 193.088934
z
" clip-path="url(#p2330cdd220)" style="fill: #cfdfea; opacity: 0.22"/>
   </g>
   <g id="patch_15">
    <path d="M 87.0312 142.311438
C 87.523984 142.311438 87.996652 142.21812 88.345103 142.052036
C 88.693555 141.885952 88.88934 141.660662 88.88934 141.425784
C 88.88934 141.190906 88.693555 140.965616 88.345103 140.799532
C 87.996652 140.633448 87.523984 140.54013 87.0312 140.54013
C 86.538416 140.54013 86.065748 140.633448 85.717297 140.799532
C 85.368845 140.965616 85.17306 141.190906 85.17306 141.425784
C 85.17306 141.660662 85.368845 141.885952 85.717297 142.052036
C 86.065748 142.21812 86.538416 142.311438 87.0312 142.311438
z
" clip-path="url(#p2330cdd220)" style="fill: #cfdfea; opacity: 0.22"/>
   </g>
   <g id="patch_16">
    <path d="M 87.0312 91.533942
C 87.523984 91.533942 87.996652 91.440624 88.345103 91.27454
C 88.693555 91.108456 88.88934 90.883166 88.88934 90.648288
C 88.88934 90.41341 88.693555 90.18812 88.345103 90.022036
C 87.996652 89.855952 87.523984 89.762634 87.0312 89.762634
C 86.538416 89.762634 86.065748 89.855952 85.717297 90.022036
C 85.368845 90.18812 85.17306 90.41341 85.17306 90.648288
C 85.17306 90.883166 85.368845 91.108456 85.717297 91.27454
C 86.065748 91.440624 86.538416 91.533942 87.0312 91.533942
z
" clip-path="url(#p2330cdd220)" style="fill: #cfdfea; opacity: 0.22"/>
   </g>
   <g id="patch_17">
    <path d="M 87.0312 40.756446
C 87.523984 40.756446 87.996652 40.663128 88.345103 40.497044
C 88.693555 40.33096 88.88934 40.10567 88.88934 39.870792
C 88.88934 39.635914 88.693555 39.410624 88.345103 39.24454
C 87.996652 39.078456 87.523984 38.985138 87.0312 38.985138
C 86.538416 38.985138 86.065748 39.078456 85.717297 39.24454
C 85.368845 39.410624 85.17306 39.635914 85.17306 39.870792
C 85.17306 40.10567 85.368845 40.33096 85.717297 40.497044
C 86.065748 40.663128 86.538416 40.756446 87.0312 40.756446
z
" clip-path="url(#p2330cdd220)" style="fill: #cfdfea; opacity: 0.22"/>
   </g>
   <g id="patch_18">
    <path d="M 108.136 159.23727
C 108.628784 159.23727 109.101452 159.143952 109.449903 158.977868
C 109.798355 158.811784 109.99414 158.586494 109.99414 158.351616
C 109.99414 158.116738 109.798355 157.891448 109.449903 157.725364
C 109.101452 157.55928 108.628784 157.465962 108.136 157.465962
C 107.643216 157.465962 107.170548 157.55928 106.822097 157.725364
C 106.473645 157.891448 106.27786 158.116738 106.27786 158.351616
C 106.27786 158.586494 106.473645 158.811784 106.822097 158.977868
C 107.170548 159.143952 107.643216 159.23727 108.136 159.23727
z
" clip-path="url(#p2330cdd220)" style="fill: #cfdfea; opacity: 0.22"/>
   </g>
   <g id="patch_19">
    <path d="M 108.136 108.459774
C 108.628784 108.459774 109.101452 108.366456 109.449903 108.200372
C 109.798355 108.034288 109.99414 107.808998 109.99414 107.57412
C 109.99414 107.339242 109.798355 107.113952 109.449903 106.947868
C 109.101452 106.781784 108.628784 106.688466 108.136 106.688466
C 107.643216 106.688466 107.170548 106.781784 106.822097 106.947868
C 106.473645 107.113952 106.27786 107.339242 106.27786 107.57412
C 106.27786 107.808998 106.473645 108.034288 106.822097 108.200372
C 107.170548 108.366456 107.643216 108.459774 108.136 108.459774
z
" clip-path="url(#p2330cdd220)" style="fill: #cfdfea; opacity: 0.22"/>
   </g>
   <g id="patch_20">
    <path d="M 108.136 57.682278
C 108.628784 57.682278 109.101452 57.58896 109.449903 57.422876
C 109.798355 57.256792 109.99414 57.031502 109.99414 56.796624
C 109.99414 56.561746 109.798355 56.336456 109.449903 56.170372
C 109.101452 56.004288 108.628784 55.91097 108.136 55.91097
C 107.643216 55.91097 107.170548 56.004288 106.822097 56.170372
C 106.473645 56.336456 106.27786 56.561746 106.27786 56.796624
C 106.27786 57.031502 106.473645 57.256792 106.822097 57.422876
C 107.170548 57.58896 107.643216 57.682278 108.136 57.682278
z
" clip-path="url(#p2330cdd220)" style="fill: #cfdfea; opacity: 0.22"/>
   </g>
   <g id="patch_21">
    <path d="M 129.2408 176.163102
C 129.733584 176.163102 130.206252 176.069784 130.554703 175.9037
C 130.903155 175.737616 131.09894 175.512326 131.09894 175.277448
C 131.09894 175.04257 130.903155 174.81728 130.554703 174.651196
C 130.206252 174.485112 129.733584 174.391794 129.2408 174.391794
C 128.748016 174.391794 128.275348 174.485112 127.926897 174.651196
C 127.578445 174.81728 127.38266 175.04257 127.38266 175.277448
C 127.38266 175.512326 127.578445 175.737616 127.926897 175.9037
C 128.275348 176.069784 128.748016 176.163102 129.2408 176.163102
z
" clip-path="url(#p2330cdd220)" style="fill: #cfdfea; opacity: 0.22"/>
   </g>
   <g id="patch_22">
    <path d="M 129.2408 125.385606
C 129.733584 125.385606 130.206252 125.292288 130.554703 125.126204
C 130.903155 124.96012 131.09894 124.73483 131.09894 124.499952
C 131.09894 124.265074 130.903155 124.039784 130.554703 123.8737
C 130.206252 123.707616 129.733584 123.614298 129.2408 123.614298
C 128.748016 123.614298 128.275348 123.707616 127.926897 123.8737
C 127.578445 124.039784 127.38266 124.265074 127.38266 124.499952
C 127.38266 124.73483 127.578445 124.96012 127.926897 125.126204
C 128.275348 125.292288 128.748016 125.385606 129.2408 125.385606
z
" clip-path="url(#p2330cdd220)" style="fill: #cfdfea; opacity: 0.22"/>
   </g>
   <g id="patch_23">
    <path d="M 129.2408 74.60811
C 129.733584 74.60811 130.206252 74.514792 130.554703 74.348708
C 130.903155 74.182624 131.09894 73.957334 131.09894 73.722456
C 131.09894 73.487578 130.903155 73.262288 130.554703 73.096204
C 130.206252 72.93012 129.733584 72.836802 129.2408 72.836802
C 128.748016 72.836802 128.275348 72.93012 127.926897 73.096204
C 127.578445 73.262288 127.38266 73.487578 127.38266 73.722456
C 127.38266 73.957334 127.578445 74.182624 127.926897 74.348708
C 128.275348 74.514792 128.748016 74.60811 129.2408 74.60811
z
" clip-path="url(#p2330cdd220)" style="fill: #cfdfea; opacity: 0.22"/>
   </g>
   <g id="patch_24">
    <path d="M 129.2408 23.830614
C 129.733584 23.830614 130.206252 23.737296 130.554703 23.571212
C 130.903155 23.405128 131.09894 23.179838 131.09894 22.94496
C 131.09894 22.710082 130.903155 22.484792 130.554703 22.318708
C 130.206252 22.152624 129.733584 22.059306 129.2408 22.059306
C 128.748016 22.059306 128.275348 22.152624 127.926897 22.318708
C 127.578445 22.484792 127.38266 22.710082 127.38266 22.94496
C 127.38266 23.179838 127.578445 23.405128 127.926897 23.571212
C 128.275348 23.737296 128.748016 23.830614 129.2408 23.830614
z
" clip-path="url(#p2330cdd220)" style="fill: #cfdfea; opacity: 0.22"/>
   </g>
   <g id="patch_25">
    <path d="M 150.3456 193.088934
C 150.838384 193.088934 151.311052 192.995616 151.659503 192.829532
C 152.007955 192.663448 152.20374 192.438158 152.20374 192.20328
C 152.20374 191.968402 152.007955 191.743112 151.659503 191.577028
C 151.311052 191.410944 150.838384 191.317626 150.3456 191.317626
C 149.852816 191.317626 149.380148 191.410944 149.031697 191.577028
C 148.683245 191.743112 148.48746 191.968402 148.48746 192.20328
C 148.48746 192.438158 148.683245 192.663448 149.031697 192.829532
C 149.380148 192.995616 149.852816 193.088934 150.3456 193.088934
z
" clip-path="url(#p2330cdd220)" style="fill: #cfdfea; opacity: 0.22"/>
   </g>
   <g id="patch_26">
    <path d="M 150.3456 142.311438
C 150.838384 142.311438 151.311052 142.21812 151.659503 142.052036
C 152.007955 141.885952 152.20374 141.660662 152.20374 141.425784
C 152.20374 141.190906 152.007955 140.965616 151.659503 140.799532
C 151.311052 140.633448 150.838384 140.54013 150.3456 140.54013
C 149.852816 140.54013 149.380148 140.633448 149.031697 140.799532
C 148.683245 140.965616 148.48746 141.190906 148.48746 141.425784
C 148.48746 141.660662 148.683245 141.885952 149.031697 142.052036
C 149.380148 142.21812 149.852816 142.311438 150.3456 142.311438
z
" clip-path="url(#p2330cdd220)" style="fill: #cfdfea; opacity: 0.22"/>
   </g>
   <g id="patch_27">
    <path d="M 150.3456 91.533942
C 150.838384 91.533942 151.311052 91.440624 151.659503 91.27454
C 152.007955 91.108456 152.20374 90.883166 152.20374 90.648288
C 152.20374 90.41341 152.007955 90.18812 151.659503 90.022036
C 151.311052 89.855952 150.838384 89.762634 150.3456 89.762634
C 149.852816 89.762634 149.380148 89.855952 149.031697 90.022036
C 148.683245 90.18812 148.48746 90.41341 148.48746 90.648288
C 148.48746 90.883166 148.683245 91.108456 149.031697 91.27454
C 149.380148 91.440624 149.852816 91.533942 150.3456 91.533942
z
" clip-path="url(#p2330cdd220)" style="fill: #cfdfea; opacity: 0.22"/>
   </g>
   <g id="patch_28">
    <path d="M 150.3456 40.756446
C 150.838384 40.756446 151.311052 40.663128 151.659503 40.497044
C 152.007955 40.33096 152.20374 40.10567 152.20374 39.870792
C 152.20374 39.635914 152.007955 39.410624 151.659503 39.24454
C 151.311052 39.078456 150.838384 38.985138 150.3456 38.985138
C 149.852816 38.985138 149.380148 39.078456 149.031697 39.24454
C 148.683245 39.410624 148.48746 39.635914 148.48746 39.870792
C 148.48746 40.10567 148.683245 40.33096 149.031697 40.497044
C 149.380148 40.663128 149.852816 40.756446 150.3456 40.756446
z
" clip-path="url(#p2330cdd220)" style="fill: #cfdfea; opacity: 0.22"/>
   </g>
   <g id="patch_29">
    <path d="M 171.4504 159.23727
C 171.943184 159.23727 172.415852 159.143952 172.764303 158.977868
C 173.112755 158.811784 173.30854 158.586494 173.30854 158.351616
C 173.30854 158.116738 173.112755 157.891448 172.764303 157.725364
C 172.415852 157.55928 171.943184 157.465962 171.4504 157.465962
C 170.957616 157.465962 170.484948 157.55928 170.136497 157.725364
C 169.788045 157.891448 169.59226 158.116738 169.59226 158.351616
C 169.59226 158.586494 169.788045 158.811784 170.136497 158.977868
C 170.484948 159.143952 170.957616 159.23727 171.4504 159.23727
z
" clip-path="url(#p2330cdd220)" style="fill: #cfdfea; opacity: 0.22"/>
   </g>
   <g id="patch_30">
    <path d="M 171.4504 108.459774
C 171.943184 108.459774 172.415852 108.366456 172.764303 108.200372
C 173.112755 108.034288 173.30854 107.808998 173.30854 107.57412
C 173.30854 107.339242 173.112755 107.113952 172.764303 106.947868
C 172.415852 106.781784 171.943184 106.688466 171.4504 106.688466
C 170.957616 106.688466 170.484948 106.781784 170.136497 106.947868
C 169.788045 107.113952 169.59226 107.339242 169.59226 107.57412
C 169.59226 107.808998 169.788045 108.034288 170.136497 108.200372
C 170.484948 108.366456 170.957616 108.459774 171.4504 108.459774
z
" clip-path="url(#p2330cdd220)" style="fill: #cfdfea; opacity: 0.22"/>
   </g>
   <g id="patch_31">
    <path d="M 171.4504 57.682278
C 171.943184 57.682278 172.415852 57.58896 172.764303 57.422876
C 173.112755 57.256792 173.30854 57.031502 173.30854 56.796624
C 173.30854 56.561746 173.112755 56.336456 172.764303 56.170372
C 172.415852 56.004288 171.943184 55.91097 171.4504 55.91097
C 170.957616 55.91097 170.484948 56.004288 170.136497 56.170372
C 169.788045 56.336456 169.59226 56.561746 169.59226 56.796624
C 169.59226 57.031502 169.788045 57.256792 170.136497 57.422876
C 170.484948 57.58896 170.957616 57.682278 171.4504 57.682278
z
" clip-path="url(#p2330cdd220)" style="fill: #cfdfea; opacity: 0.22"/>
   </g>
   <g id="patch_32">
    <path d="M 192.5552 176.163102
C 193.047984 176.163102 193.520652 176.069784 193.869103 175.9037
C 194.217555 175.737616 194.41334 175.512326 194.41334 175.277448
C 194.41334 175.04257 194.217555 174.81728 193.869103 174.651196
C 193.520652 174.485112 193.047984 174.391794 192.5552 174.391794
C 192.062416 174.391794 191.589748 174.485112 191.241297 174.651196
C 190.892845 174.81728 190.69706 175.04257 190.69706 175.277448
C 190.69706 175.512326 190.892845 175.737616 191.241297 175.9037
C 191.589748 176.069784 192.062416 176.163102 192.5552 176.163102
z
" clip-path="url(#p2330cdd220)" style="fill: #cfdfea; opacity: 0.22"/>
   </g>
   <g id="patch_33">
    <path d="M 192.5552 125.385606
C 193.047984 125.385606 193.520652 125.292288 193.869103 125.126204
C 194.217555 124.96012 194.41334 124.73483 194.41334 124.499952
C 194.41334 124.265074 194.217555 124.039784 193.869103 123.8737
C 193.520652 123.707616 193.047984 123.614298 192.5552 123.614298
C 192.062416 123.614298 191.589748 123.707616 191.241297 123.8737
C 190.892845 124.039784 190.69706 124.265074 190.69706 124.499952
C 190.69706 124.73483 190.892845 124.96012 191.241297 125.126204
C 191.589748 125.292288 192.062416 125.385606 192.5552 125.385606
z
" clip-path="url(#p2330cdd220)" style="fill: #cfdfea; opacity: 0.22"/>
   </g>
   <g id="patch_34">
    <path d="M 192.5552 74.60811
C 193.047984 74.60811 193.520652 74.514792 193.869103 74.348708
C 194.217555 74.182624 194.41334 73.957334 194.41334 73.722456
C 194.41334 73.487578 194.217555 73.262288 193.869103 73.096204
C 193.520652 72.93012 193.047984 72.836802 192.5552 72.836802
C 192.062416 72.836802 191.589748 72.93012 191.241297 73.096204
C 190.892845 73.262288 190.69706 73.487578 190.69706 73.722456
C 190.69706 73.957334 190.892845 74.182624 191.241297 74.348708
C 191.589748 74.514792 192.062416 74.60811 192.5552 74.60811
z
" clip-path="url(#p2330cdd220)" style="fill: #cfdfea; opacity: 0.22"/>
   </g>
   <g id="patch_35">
    <path d="M 192.5552 23.830614
C 193.047984 23.830614 193.520652 23.737296 193.869103 23.571212
C 194.217555 23.405128 194.41334 23.179838 194.41334 22.94496
C 194.41334 22.710082 194.217555 22.484792 193.869103 22.318708
C 193.520652 22.152624 193.047984 22.059306 192.5552 22.059306
C 192.062416 22.059306 191.589748 22.152624 191.241297 22.318708
C 190.892845 22.484792 190.69706 22.710082 190.69706 22.94496
C 190.69706 23.179838 190.892845 23.405128 191.241297 23.571212
C 191.589748 23.737296 192.062416 23.830614 192.5552 23.830614
z
" clip-path="url(#p2330cdd220)" style="fill: #cfdfea; opacity: 0.22"/>
   </g>
   <g id="patch_36">
    <path d="M 213.66 193.088934
C 214.152784 193.088934 214.625452 192.995616 214.973903 192.829532
C 215.322355 192.663448 215.51814 192.438158 215.51814 192.20328
C 215.51814 191.968402 215.322355 191.743112 214.973903 191.577028
C 214.625452 191.410944 214.152784 191.317626 213.66 191.317626
C 213.167216 191.317626 212.694548 191.410944 212.346097 191.577028
C 211.997645 191.743112 211.80186 191.968402 211.80186 192.20328
C 211.80186 192.438158 211.997645 192.663448 212.346097 192.829532
C 212.694548 192.995616 213.167216 193.088934 213.66 193.088934
z
" clip-path="url(#p2330cdd220)" style="fill: #cfdfea; opacity: 0.22"/>
   </g>
   <g id="patch_37">
    <path d="M 213.66 142.311438
C 214.152784 142.311438 214.625452 142.21812 214.973903 142.052036
C 215.322355 141.885952 215.51814 141.660662 215.51814 141.425784
C 215.51814 141.190906 215.322355 140.965616 214.973903 140.799532
C 214.625452 140.633448 214.152784 140.54013 213.66 140.54013
C 213.167216 140.54013 212.694548 140.633448 212.346097 140.799532
C 211.997645 140.965616 211.80186 141.190906 211.80186 141.425784
C 211.80186 141.660662 211.997645 141.885952 212.346097 142.052036
C 212.694548 142.21812 213.167216 142.311438 213.66 142.311438
z
" clip-path="url(#p2330cdd220)" style="fill: #cfdfea; opacity: 0.22"/>
   </g>
   <g id="patch_38">
    <path d="M 213.66 91.533942
C 214.152784 91.533942 214.625452 91.440624 214.973903 91.27454
C 215.322355 91.108456 215.51814 90.883166 215.51814 90.648288
C 215.51814 90.41341 215.322355 90.18812 214.973903 90.022036
C 214.625452 89.855952 214.152784 89.762634 213.66 89.762634
C 213.167216 89.762634 212.694548 89.855952 212.346097 90.022036
C 211.997645 90.18812 211.80186 90.41341 211.80186 90.648288
C 211.80186 90.883166 211.997645 91.108456 212.346097 91.27454
C 212.694548 91.440624 213.167216 91.533942 213.66 91.533942
z
" clip-path="url(#p2330cdd220)" style="fill: #cfdfea; opacity: 0.22"/>
   </g>
   <g id="patch_39">
    <path d="M 213.66 40.756446
C 214.152784 40.756446 214.625452 40.663128 214.973903 40.497044
C 215.322355 40.33096 215.51814 40.10567 215.51814 39.870792
C 215.51814 39.635914 215.322355 39.410624 214.973903 39.24454
C 214.625452 39.078456 214.152784 38.985138 213.66 38.985138
C 213.167216 38.985138 212.694548 39.078456 212.346097 39.24454
C 211.997645 39.410624 211.80186 39.635914 211.80186 39.870792
C 211.80186 40.10567 211.997645 40.33096 212.346097 40.497044
C 212.694548 40.663128 213.167216 40.756446 213.66 40.756446
z
" clip-path="url(#p2330cdd220)" style="fill: #cfdfea; opacity: 0.22"/>
   </g>
   <g id="patch_40">
    <path d="M 234.7648 159.23727
C 235.257584 159.23727 235.730252 159.143952 236.078703 158.977868
C 236.427155 158.811784 236.62294 158.586494 236.62294 158.351616
C 236.62294 158.116738 236.427155 157.891448 236.078703 157.725364
C 235.730252 157.55928 235.257584 157.465962 234.7648 157.465962
C 234.272016 157.465962 233.799348 157.55928 233.450897 157.725364
C 233.102445 157.891448 232.90666 158.116738 232.90666 158.351616
C 232.90666 158.586494 233.102445 158.811784 233.450897 158.977868
C 233.799348 159.143952 234.272016 159.23727 234.7648 159.23727
z
" clip-path="url(#p2330cdd220)" style="fill: #cfdfea; opacity: 0.22"/>
   </g>
   <g id="patch_41">
    <path d="M 234.7648 108.459774
C 235.257584 108.459774 235.730252 108.366456 236.078703 108.200372
C 236.427155 108.034288 236.62294 107.808998 236.62294 107.57412
C 236.62294 107.339242 236.427155 107.113952 236.078703 106.947868
C 235.730252 106.781784 235.257584 106.688466 234.7648 106.688466
C 234.272016 106.688466 233.799348 106.781784 233.450897 106.947868
C 233.102445 107.113952 232.90666 107.339242 232.90666 107.57412
C 232.90666 107.808998 233.102445 108.034288 233.450897 108.200372
C 233.799348 108.366456 234.272016 108.459774 234.7648 108.459774
z
" clip-path="url(#p2330cdd220)" style="fill: #cfdfea; opacity: 0.22"/>
   </g>
   <g id="patch_42">
    <path d="M 234.7648 57.682278
C 235.257584 57.682278 235.730252 57.58896 236.078703 57.422876
C 236.427155 57.256792 236.62294 57.031502 236.62294 56.796624
C 236.62294 56.561746 236.427155 56.336456 236.078703 56.170372
C 235.730252 56.004288 235.257584 55.91097 234.7648 55.91097
C 234.272016 55.91097 233.799348 56.004288 233.450897 56.170372
C 233.102445 56.336456 232.90666 56.561746 232.90666 56.796624
C 232.90666 57.031502 233.102445 57.256792 233.450897 57.422876
C 233.799348 57.58896 234.272016 57.682278 234.7648 57.682278
z
" clip-path="url(#p2330cdd220)" style="fill: #cfdfea; opacity: 0.22"/>
   </g>
   <g id="patch_43">
    <path d="M 255.8696 176.163102
C 256.362384 176.163102 256.835052 176.069784 257.183503 175.9037
C 257.531955 175.737616 257.72774 175.512326 257.72774 175.277448
C 257.72774 175.04257 257.531955 174.81728 257.183503 174.651196
C 256.835052 174.485112 256.362384 174.391794 255.8696 174.391794
C 255.376816 174.391794 254.904148 174.485112 254.555697 174.651196
C 254.207245 174.81728 254.01146 175.04257 254.01146 175.277448
C 254.01146 175.512326 254.207245 175.737616 254.555697 175.9037
C 254.904148 176.069784 255.376816 176.163102 255.8696 176.163102
z
" clip-path="url(#p2330cdd220)" style="fill: #cfdfea; opacity: 0.22"/>
   </g>
   <g id="patch_44">
    <path d="M 255.8696 125.385606
C 256.362384 125.385606 256.835052 125.292288 257.183503 125.126204
C 257.531955 124.96012 257.72774 124.73483 257.72774 124.499952
C 257.72774 124.265074 257.531955 124.039784 257.183503 123.8737
C 256.835052 123.707616 256.362384 123.614298 255.8696 123.614298
C 255.376816 123.614298 254.904148 123.707616 254.555697 123.8737
C 254.207245 124.039784 254.01146 124.265074 254.01146 124.499952
C 254.01146 124.73483 254.207245 124.96012 254.555697 125.126204
C 254.904148 125.292288 255.376816 125.385606 255.8696 125.385606
z
" clip-path="url(#p2330cdd220)" style="fill: #cfdfea; opacity: 0.22"/>
   </g>
   <g id="patch_45">
    <path d="M 255.8696 74.60811
C 256.362384 74.60811 256.835052 74.514792 257.183503 74.348708
C 257.531955 74.182624 257.72774 73.957334 257.72774 73.722456
C 257.72774 73.487578 257.531955 73.262288 257.183503 73.096204
C 256.835052 72.93012 256.362384 72.836802 255.8696 72.836802
C 255.376816 72.836802 254.904148 72.93012 254.555697 73.096204
C 254.207245 73.262288 254.01146 73.487578 254.01146 73.722456
C 254.01146 73.957334 254.207245 74.182624 254.555697 74.348708
C 254.904148 74.514792 255.376816 74.60811 255.8696 74.60811
z
" clip-path="url(#p2330cdd220)" style="fill: #cfdfea; opacity: 0.22"/>
   </g>
   <g id="patch_46">
    <path d="M 255.8696 23.830614
C 256.362384 23.830614 256.835052 23.737296 257.183503 23.571212
C 257.531955 23.405128 257.72774 23.179838 257.72774 22.94496
C 257.72774 22.710082 257.531955 22.484792 257.183503 22.318708
C 256.835052 22.152624 256.362384 22.059306 255.8696 22.059306
C 255.376816 22.059306 254.904148 22.152624 254.555697 22.318708
C 254.207245 22.484792 254.01146 22.710082 254.01146 22.94496
C 254.01146 23.179838 254.207245 23.405128 254.555697 23.571212
C 254.904148 23.737296 255.376816 23.830614 255.8696 23.830614
z
" clip-path="url(#p2330cdd220)" style="fill: #cfdfea; opacity: 0.22"/>
   </g>
   <g id="patch_47">
    <path d="M 276.9744 193.088934
C 277.467184 193.088934 277.939852 192.995616 278.288303 192.829532
C 278.636755 192.663448 278.83254 192.438158 278.83254 192.20328
C 278.83254 191.968402 278.636755 191.743112 278.288303 191.577028
C 277.939852 191.410944 277.467184 191.317626 276.9744 191.317626
C 276.481616 191.317626 276.008948 191.410944 275.660497 191.577028
C 275.312045 191.743112 275.11626 191.968402 275.11626 192.20328
C 275.11626 192.438158 275.312045 192.663448 275.660497 192.829532
C 276.008948 192.995616 276.481616 193.088934 276.9744 193.088934
z
" clip-path="url(#p2330cdd220)" style="fill: #cfdfea; opacity: 0.22"/>
   </g>
   <g id="patch_48">
    <path d="M 276.9744 142.311438
C 277.467184 142.311438 277.939852 142.21812 278.288303 142.052036
C 278.636755 141.885952 278.83254 141.660662 278.83254 141.425784
C 278.83254 141.190906 278.636755 140.965616 278.288303 140.799532
C 277.939852 140.633448 277.467184 140.54013 276.9744 140.54013
C 276.481616 140.54013 276.008948 140.633448 275.660497 140.799532
C 275.312045 140.965616 275.11626 141.190906 275.11626 141.425784
C 275.11626 141.660662 275.312045 141.885952 275.660497 142.052036
C 276.008948 142.21812 276.481616 142.311438 276.9744 142.311438
z
" clip-path="url(#p2330cdd220)" style="fill: #cfdfea; opacity: 0.22"/>
   </g>
   <g id="patch_49">
    <path d="M 276.9744 91.533942
C 277.467184 91.533942 277.939852 91.440624 278.288303 91.27454
C 278.636755 91.108456 278.83254 90.883166 278.83254 90.648288
C 278.83254 90.41341 278.636755 90.18812 278.288303 90.022036
C 277.939852 89.855952 277.467184 89.762634 276.9744 89.762634
C 276.481616 89.762634 276.008948 89.855952 275.660497 90.022036
C 275.312045 90.18812 275.11626 90.41341 275.11626 90.648288
C 275.11626 90.883166 275.312045 91.108456 275.660497 91.27454
C 276.008948 91.440624 276.481616 91.533942 276.9744 91.533942
z
" clip-path="url(#p2330cdd220)" style="fill: #cfdfea; opacity: 0.22"/>
   </g>
   <g id="patch_50">
    <path d="M 276.9744 40.756446
C 277.467184 40.756446 277.939852 40.663128 278.288303 40.497044
C 278.636755 40.33096 278.83254 40.10567 278.83254 39.870792
C 278.83254 39.635914 278.636755 39.410624 278.288303 39.24454
C 277.939852 39.078456 277.467184 38.985138 276.9744 38.985138
C 276.481616 38.985138 276.008948 39.078456 275.660497 39.24454
C 275.312045 39.410624 275.11626 39.635914 275.11626 39.870792
C 275.11626 40.10567 275.312045 40.33096 275.660497 40.497044
C 276.008948 40.663128 276.481616 40.756446 276.9744 40.756446
z
" clip-path="url(#p2330cdd220)" style="fill: #cfdfea; opacity: 0.22"/>
   </g>
   <g id="patch_51">
    <path d="M 298.0792 159.23727
C 298.571984 159.23727 299.044652 159.143952 299.393103 158.977868
C 299.741555 158.811784 299.93734 158.586494 299.93734 158.351616
C 299.93734 158.116738 299.741555 157.891448 299.393103 157.725364
C 299.044652 157.55928 298.571984 157.465962 298.0792 157.465962
C 297.586416 157.465962 297.113748 157.55928 296.765297 157.725364
C 296.416845 157.891448 296.22106 158.116738 296.22106 158.351616
C 296.22106 158.586494 296.416845 158.811784 296.765297 158.977868
C 297.113748 159.143952 297.586416 159.23727 298.0792 159.23727
z
" clip-path="url(#p2330cdd220)" style="fill: #cfdfea; opacity: 0.22"/>
   </g>
   <g id="patch_52">
    <path d="M 298.0792 108.459774
C 298.571984 108.459774 299.044652 108.366456 299.393103 108.200372
C 299.741555 108.034288 299.93734 107.808998 299.93734 107.57412
C 299.93734 107.339242 299.741555 107.113952 299.393103 106.947868
C 299.044652 106.781784 298.571984 106.688466 298.0792 106.688466
C 297.586416 106.688466 297.113748 106.781784 296.765297 106.947868
C 296.416845 107.113952 296.22106 107.339242 296.22106 107.57412
C 296.22106 107.808998 296.416845 108.034288 296.765297 108.200372
C 297.113748 108.366456 297.586416 108.459774 298.0792 108.459774
z
" clip-path="url(#p2330cdd220)" style="fill: #cfdfea; opacity: 0.22"/>
   </g>
   <g id="patch_53">
    <path d="M 298.0792 57.682278
C 298.571984 57.682278 299.044652 57.58896 299.393103 57.422876
C 299.741555 57.256792 299.93734 57.031502 299.93734 56.796624
C 299.93734 56.561746 299.741555 56.336456 299.393103 56.170372
C 299.044652 56.004288 298.571984 55.91097 298.0792 55.91097
C 297.586416 55.91097 297.113748 56.004288 296.765297 56.170372
C 296.416845 56.336456 296.22106 56.561746 296.22106 56.796624
C 296.22106 57.031502 296.416845 57.256792 296.765297 57.422876
C 297.113748 57.58896 297.586416 57.682278 298.0792 57.682278
z
" clip-path="url(#p2330cdd220)" style="fill: #cfdfea; opacity: 0.22"/>
   </g>
   <g id="patch_54">
    <path d="M 319.184 176.163102
C 319.676784 176.163102 320.149452 176.069784 320.497903 175.9037
C 320.846355 175.737616 321.04214 175.512326 321.04214 175.277448
C 321.04214 175.04257 320.846355 174.81728 320.497903 174.651196
C 320.149452 174.485112 319.676784 174.391794 319.184 174.391794
C 318.691216 174.391794 318.218548 174.485112 317.870097 174.651196
C 317.521645 174.81728 317.32586 175.04257 317.32586 175.277448
C 317.32586 175.512326 317.521645 175.737616 317.870097 175.9037
C 318.218548 176.069784 318.691216 176.163102 319.184 176.163102
z
" clip-path="url(#p2330cdd220)" style="fill: #cfdfea; opacity: 0.22"/>
   </g>
   <g id="patch_55">
    <path d="M 319.184 125.385606
C 319.676784 125.385606 320.149452 125.292288 320.497903 125.126204
C 320.846355 124.96012 321.04214 124.73483 321.04214 124.499952
C 321.04214 124.265074 320.846355 124.039784 320.497903 123.8737
C 320.149452 123.707616 319.676784 123.614298 319.184 123.614298
C 318.691216 123.614298 318.218548 123.707616 317.870097 123.8737
C 317.521645 124.039784 317.32586 124.265074 317.32586 124.499952
C 317.32586 124.73483 317.521645 124.96012 317.870097 125.126204
C 318.218548 125.292288 318.691216 125.385606 319.184 125.385606
z
" clip-path="url(#p2330cdd220)" style="fill: #cfdfea; opacity: 0.22"/>
   </g>
   <g id="patch_56">
    <path d="M 319.184 74.60811
C 319.676784 74.60811 320.149452 74.514792 320.497903 74.348708
C 320.846355 74.182624 321.04214 73.957334 321.04214 73.722456
C 321.04214 73.487578 320.846355 73.262288 320.497903 73.096204
C 320.149452 72.93012 319.676784 72.836802 319.184 72.836802
C 318.691216 72.836802 318.218548 72.93012 317.870097 73.096204
C 317.521645 73.262288 317.32586 73.487578 317.32586 73.722456
C 317.32586 73.957334 317.521645 74.182624 317.870097 74.348708
C 318.218548 74.514792 318.691216 74.60811 319.184 74.60811
z
" clip-path="url(#p2330cdd220)" style="fill: #cfdfea; opacity: 0.22"/>
   </g>
   <g id="patch_57">
    <path d="M 319.184 23.830614
C 319.676784 23.830614 320.149452 23.737296 320.497903 23.571212
C 320.846355 23.405128 321.04214 23.179838 321.04214 22.94496
C 321.04214 22.710082 320.846355 22.484792 320.497903 22.318708
C 320.149452 22.152624 319.676784 22.059306 319.184 22.059306
C 318.691216 22.059306 318.218548 22.152624 317.870097 22.318708
C 317.521645 22.484792 317.32586 22.710082 317.32586 22.94496
C 317.32586 23.179838 317.521645 23.405128 317.870097 23.571212
C 318.218548 23.737296 318.691216 23.830614 319.184 23.830614
z
" clip-path="url(#p2330cdd220)" style="fill: #cfdfea; opacity: 0.22"/>
   </g>
   <g id="patch_58">
    <path d="M 340.2888 193.088934
C 340.781584 193.088934 341.254252 192.995616 341.602703 192.829532
C 341.951155 192.663448 342.14694 192.438158 342.14694 192.20328
C 342.14694 191.968402 341.951155 191.743112 341.602703 191.577028
C 341.254252 191.410944 340.781584 191.317626 340.2888 191.317626
C 339.796016 191.317626 339.323348 191.410944 338.974897 191.577028
C 338.626445 191.743112 338.43066 191.968402 338.43066 192.20328
C 338.43066 192.438158 338.626445 192.663448 338.974897 192.829532
C 339.323348 192.995616 339.796016 193.088934 340.2888 193.088934
z
" clip-path="url(#p2330cdd220)" style="fill: #cfdfea; opacity: 0.22"/>
   </g>
   <g id="patch_59">
    <path d="M 340.2888 142.311438
C 340.781584 142.311438 341.254252 142.21812 341.602703 142.052036
C 341.951155 141.885952 342.14694 141.660662 342.14694 141.425784
C 342.14694 141.190906 341.951155 140.965616 341.602703 140.799532
C 341.254252 140.633448 340.781584 140.54013 340.2888 140.54013
C 339.796016 140.54013 339.323348 140.633448 338.974897 140.799532
C 338.626445 140.965616 338.43066 141.190906 338.43066 141.425784
C 338.43066 141.660662 338.626445 141.885952 338.974897 142.052036
C 339.323348 142.21812 339.796016 142.311438 340.2888 142.311438
z
" clip-path="url(#p2330cdd220)" style="fill: #cfdfea; opacity: 0.22"/>
   </g>
   <g id="patch_60">
    <path d="M 340.2888 91.533942
C 340.781584 91.533942 341.254252 91.440624 341.602703 91.27454
C 341.951155 91.108456 342.14694 90.883166 342.14694 90.648288
C 342.14694 90.41341 341.951155 90.18812 341.602703 90.022036
C 341.254252 89.855952 340.781584 89.762634 340.2888 89.762634
C 339.796016 89.762634 339.323348 89.855952 338.974897 90.022036
C 338.626445 90.18812 338.43066 90.41341 338.43066 90.648288
C 338.43066 90.883166 338.626445 91.108456 338.974897 91.27454
C 339.323348 91.440624 339.796016 91.533942 340.2888 91.533942
z
" clip-path="url(#p2330cdd220)" style="fill: #cfdfea; opacity: 0.22"/>
   </g>
   <g id="patch_61">
    <path d="M 340.2888 40.756446
C 340.781584 40.756446 341.254252 40.663128 341.602703 40.497044
C 341.951155 40.33096 342.14694 40.10567 342.14694 39.870792
C 342.14694 39.635914 341.951155 39.410624 341.602703 39.24454
C 341.254252 39.078456 340.781584 38.985138 340.2888 38.985138
C 339.796016 38.985138 339.323348 39.078456 338.974897 39.24454
C 338.626445 39.410624 338.43066 39.635914 338.43066 39.870792
C 338.43066 40.10567 338.626445 40.33096 338.974897 40.497044
C 339.323348 40.663128 339.796016 40.756446 340.2888 40.756446
z
" clip-path="url(#p2330cdd220)" style="fill: #cfdfea; opacity: 0.22"/>
   </g>
   <g id="patch_62">
    <path d="M 361.3936 159.23727
C 361.886384 159.23727 362.359052 159.143952 362.707503 158.977868
C 363.055955 158.811784 363.25174 158.586494 363.25174 158.351616
C 363.25174 158.116738 363.055955 157.891448 362.707503 157.725364
C 362.359052 157.55928 361.886384 157.465962 361.3936 157.465962
C 360.900816 157.465962 360.428148 157.55928 360.079697 157.725364
C 359.731245 157.891448 359.53546 158.116738 359.53546 158.351616
C 359.53546 158.586494 359.731245 158.811784 360.079697 158.977868
C 360.428148 159.143952 360.900816 159.23727 361.3936 159.23727
z
" clip-path="url(#p2330cdd220)" style="fill: #cfdfea; opacity: 0.22"/>
   </g>
   <g id="patch_63">
    <path d="M 361.3936 108.459774
C 361.886384 108.459774 362.359052 108.366456 362.707503 108.200372
C 363.055955 108.034288 363.25174 107.808998 363.25174 107.57412
C 363.25174 107.339242 363.055955 107.113952 362.707503 106.947868
C 362.359052 106.781784 361.886384 106.688466 361.3936 106.688466
C 360.900816 106.688466 360.428148 106.781784 360.079697 106.947868
C 359.731245 107.113952 359.53546 107.339242 359.53546 107.57412
C 359.53546 107.808998 359.731245 108.034288 360.079697 108.200372
C 360.428148 108.366456 360.900816 108.459774 361.3936 108.459774
z
" clip-path="url(#p2330cdd220)" style="fill: #cfdfea; opacity: 0.22"/>
   </g>
   <g id="patch_64">
    <path d="M 361.3936 57.682278
C 361.886384 57.682278 362.359052 57.58896 362.707503 57.422876
C 363.055955 57.256792 363.25174 57.031502 363.25174 56.796624
C 363.25174 56.561746 363.055955 56.336456 362.707503 56.170372
C 362.359052 56.004288 361.886384 55.91097 361.3936 55.91097
C 360.900816 55.91097 360.428148 56.004288 360.079697 56.170372
C 359.731245 56.336456 359.53546 56.561746 359.53546 56.796624
C 359.53546 57.031502 359.731245 57.256792 360.079697 57.422876
C 360.428148 57.58896 360.900816 57.682278 361.3936 57.682278
z
" clip-path="url(#p2330cdd220)" style="fill: #cfdfea; opacity: 0.22"/>
   </g>
   <g id="patch_65">
    <path d="M 382.4984 176.163102
C 382.991184 176.163102 383.463852 176.069784 383.812303 175.9037
C 384.160755 175.737616 384.35654 175.512326 384.35654 175.277448
C 384.35654 175.04257 384.160755 174.81728 383.812303 174.651196
C 383.463852 174.485112 382.991184 174.391794 382.4984 174.391794
C 382.005616 174.391794 381.532948 174.485112 381.184497 174.651196
C 380.836045 174.81728 380.64026 175.04257 380.64026 175.277448
C 380.64026 175.512326 380.836045 175.737616 381.184497 175.9037
C 381.532948 176.069784 382.005616 176.163102 382.4984 176.163102
z
" clip-path="url(#p2330cdd220)" style="fill: #cfdfea; opacity: 0.22"/>
   </g>
   <g id="patch_66">
    <path d="M 382.4984 125.385606
C 382.991184 125.385606 383.463852 125.292288 383.812303 125.126204
C 384.160755 124.96012 384.35654 124.73483 384.35654 124.499952
C 384.35654 124.265074 384.160755 124.039784 383.812303 123.8737
C 383.463852 123.707616 382.991184 123.614298 382.4984 123.614298
C 382.005616 123.614298 381.532948 123.707616 381.184497 123.8737
C 380.836045 124.039784 380.64026 124.265074 380.64026 124.499952
C 380.64026 124.73483 380.836045 124.96012 381.184497 125.126204
C 381.532948 125.292288 382.005616 125.385606 382.4984 125.385606
z
" clip-path="url(#p2330cdd220)" style="fill: #cfdfea; opacity: 0.22"/>
   </g>
   <g id="patch_67">
    <path d="M 382.4984 74.60811
C 382.991184 74.60811 383.463852 74.514792 383.812303 74.348708
C 384.160755 74.182624 384.35654 73.957334 384.35654 73.722456
C 384.35654 73.487578 384.160755 73.262288 383.812303 73.096204
C 383.463852 72.93012 382.991184 72.836802 382.4984 72.836802
C 382.005616 72.836802 381.532948 72.93012 381.184497 73.096204
C 380.836045 73.262288 380.64026 73.487578 380.64026 73.722456
C 380.64026 73.957334 380.836045 74.182624 381.184497 74.348708
C 381.532948 74.514792 382.005616 74.60811 382.4984 74.60811
z
" clip-path="url(#p2330cdd220)" style="fill: #cfdfea; opacity: 0.22"/>
   </g>
   <g id="patch_68">
    <path d="M 382.4984 23.830614
C 382.991184 23.830614 383.463852 23.737296 383.812303 23.571212
C 384.160755 23.405128 384.35654 23.179838 384.35654 22.94496
C 384.35654 22.710082 384.160755 22.484792 383.812303 22.318708
C 383.463852 22.152624 382.991184 22.059306 382.4984 22.059306
C 382.005616 22.059306 381.532948 22.152624 381.184497 22.318708
C 380.836045 22.484792 380.64026 22.710082 380.64026 22.94496
C 380.64026 23.179838 380.836045 23.405128 381.184497 23.571212
C 381.532948 23.737296 382.005616 23.830614 382.4984 23.830614
z
" clip-path="url(#p2330cdd220)" style="fill: #cfdfea; opacity: 0.22"/>
   </g>
   <g id="patch_69">
    <path d="M 403.6032 193.088934
C 404.095984 193.088934 404.568652 192.995616 404.917103 192.829532
C 405.265555 192.663448 405.46134 192.438158 405.46134 192.20328
C 405.46134 191.968402 405.265555 191.743112 404.917103 191.577028
C 404.568652 191.410944 404.095984 191.317626 403.6032 191.317626
C 403.110416 191.317626 402.637748 191.410944 402.289297 191.577028
C 401.940845 191.743112 401.74506 191.968402 401.74506 192.20328
C 401.74506 192.438158 401.940845 192.663448 402.289297 192.829532
C 402.637748 192.995616 403.110416 193.088934 403.6032 193.088934
z
" clip-path="url(#p2330cdd220)" style="fill: #cfdfea; opacity: 0.22"/>
   </g>
   <g id="patch_70">
    <path d="M 403.6032 142.311438
C 404.095984 142.311438 404.568652 142.21812 404.917103 142.052036
C 405.265555 141.885952 405.46134 141.660662 405.46134 141.425784
C 405.46134 141.190906 405.265555 140.965616 404.917103 140.799532
C 404.568652 140.633448 404.095984 140.54013 403.6032 140.54013
C 403.110416 140.54013 402.637748 140.633448 402.289297 140.799532
C 401.940845 140.965616 401.74506 141.190906 401.74506 141.425784
C 401.74506 141.660662 401.940845 141.885952 402.289297 142.052036
C 402.637748 142.21812 403.110416 142.311438 403.6032 142.311438
z
" clip-path="url(#p2330cdd220)" style="fill: #cfdfea; opacity: 0.22"/>
   </g>
   <g id="patch_71">
    <path d="M 403.6032 91.533942
C 404.095984 91.533942 404.568652 91.440624 404.917103 91.27454
C 405.265555 91.108456 405.46134 90.883166 405.46134 90.648288
C 405.46134 90.41341 405.265555 90.18812 404.917103 90.022036
C 404.568652 89.855952 404.095984 89.762634 403.6032 89.762634
C 403.110416 89.762634 402.637748 89.855952 402.289297 90.022036
C 401.940845 90.18812 401.74506 90.41341 401.74506 90.648288
C 401.74506 90.883166 401.940845 91.108456 402.289297 91.27454
C 402.637748 91.440624 403.110416 91.533942 403.6032 91.533942
z
" clip-path="url(#p2330cdd220)" style="fill: #cfdfea; opacity: 0.22"/>
   </g>
   <g id="patch_72">
    <path d="M 403.6032 40.756446
C 404.095984 40.756446 404.568652 40.663128 404.917103 40.497044
C 405.265555 40.33096 405.46134 40.10567 405.46134 39.870792
C 405.46134 39.635914 405.265555 39.410624 404.917103 39.24454
C 404.568652 39.078456 404.095984 38.985138 403.6032 38.985138
C 403.110416 38.985138 402.637748 39.078456 402.289297 39.24454
C 401.940845 39.410624 401.74506 39.635914 401.74506 39.870792
C 401.74506 40.10567 401.940845 40.33096 402.289297 40.497044
C 402.637748 40.663128 403.110416 40.756446 403.6032 40.756446
z
" clip-path="url(#p2330cdd220)" style="fill: #cfdfea; opacity: 0.22"/>
   </g>
   <g id="patch_73">
    <path d="M 47.25324 155.596248
L 130.66308 155.596248
Q 147.17988 155.596248 147.17988 147.723768
L 147.17988 97.143084
Q 147.17988 89.270604 130.66308 89.270604
L 47.25324 89.270604
Q 30.73644 89.270604 30.73644 97.143084
L 30.73644 147.723768
Q 30.73644 155.596248 47.25324 155.596248
z
" clip-path="url(#p2330cdd220)" style="fill: #d8cab0; opacity: 0.55"/>
   </g>
   <g id="patch_74">
    <path d="M 175.25844 155.596248
L 258.66828 155.596248
Q 275.18508 155.596248 275.18508 147.723768
L 275.18508 97.143084
Q 275.18508 89.270604 258.66828 89.270604
L 175.25844 89.270604
Q 158.74164 89.270604 158.74164 97.143084
L 158.74164 147.723768
Q 158.74164 155.596248 175.25844 155.596248
z
" clip-path="url(#p2330cdd220)" style="fill: #d8cab0; opacity: 0.55"/>
   </g>
   <g id="patch_75">
    <path d="M 303.26364 155.596248
L 386.67348 155.596248
Q 403.19028 155.596248 403.19028 147.723768
L 403.19028 97.143084
Q 403.19028 89.270604 386.67348 89.270604
L 303.26364 89.270604
Q 286.74684 89.270604 286.74684 97.143084
L 286.74684 147.723768
Q 286.74684 155.596248 303.26364 155.596248
z
" clip-path="url(#p2330cdd220)" style="fill: #d8cab0; opacity: 0.55"/>
   </g>
   <g id="patch_76">
    <path d="M 43.94988 154.021752
L 44.94988 154.053187
L 45.94988 154.090116
L 46.94988 154.187694
L 47.94988 154.220086
L 48.94988 154.293209
L 49.94988 154.331367
L 50.94988 154.366296
L 51.94988 154.422885
L 52.94988 154.491437
L 53.94988 154.541563
L 54.94988 154.597934
L 55.94988 154.680558
L 56.94988 154.722691
L 57.94988 154.760576
L 58.94988 154.787191
L 59.94988 154.809409
L 60.94988 154.827069
L 61.94988 154.869904
L 62.94988 154.889932
L 63.94988 154.908554
L 64.94988 154.919985
L 65.94988 154.921737
L 66.94988 154.915678
L 67.94988 154.896593
L 68.94988 154.870182
L 69.94988 154.846456
L 70.94988 154.793428
L 71.94988 154.775963
L 72.94988 154.731127
L 73.94988 154.648068
L 74.94988 154.598901
L 75.94988 154.548683
L 76.94988 154.495546
L 77.94988 154.455354
L 78.94988 154.374594
L 79.94988 154.328797
L 80.94988 154.279654
L 81.94988 154.200079
L 82.94988 154.159833
L 83.94988 154.096299
L 84.94988 153.979048
L 85.94988 153.906675
L 86.94988 153.794694
L 87.94988 153.750628
L 88.94988 153.692854
L 89.94988 153.648156
L 90.94988 153.575769
L 91.94988 153.474744
L 92.94988 153.418074
L 93.94988 153.354349
L 94.94988 153.33015
L 95.94988 153.294192
L 96.94988 153.249281
L 97.94988 153.20977
L 98.94988 153.170023
L 99.94988 153.15789
L 100.94988 153.147341
L 101.94988 153.139408
L 102.94988 153.133497
L 103.94988 153.127119
L 104.94988 153.121754
L 105.94988 153.125925
L 106.94988 153.143393
L 107.94988 153.159642
L 108.94988 153.193348
L 109.94988 153.208732
L 110.94988 153.232652
L 111.94988 153.26143
L 112.94988 153.280936
L 113.94988 153.346194
L 114.94988 153.3749
L 115.94988 153.435349
L 116.94988 153.489665
L 117.94988 153.526384
L 118.94988 153.563167
L 119.94988 153.601573
L 120.94988 153.631299
L 121.94988 153.73508
L 122.94988 153.846839
L 123.94988 153.892149
L 124.94988 153.981114
L 125.94988 154.048262
L 127.35972 154.088544
L 128.364587 154.159051
L 129.365064 154.158179
L 131.238256 154.131986
L 132.2601 154.003935
L 133.256308 153.901123
L 134.253595 153.805105
L 135.246705 153.68279
L 136.247402 153.608238
L 137.50946 153.448519
L 138.5694 153.057156
L 139.502939 152.697403
L 140.979236 152.158905
L 142.704034 150.855266
L 143.906895 149.252017
L 144.563004 147.327671
L 144.707642 146.205521
L 144.724265 145.149272
L 144.740408 144.149272
L 144.759672 143.149272
L 144.769363 142.149272
L 144.776465 141.149272
L 144.775888 140.149272
L 144.765339 139.149272
L 144.757957 138.149272
L 144.745842 137.149272
L 144.719594 136.149272
L 144.700457 135.149272
L 144.685192 134.149272
L 144.646365 133.149272
L 144.628276 132.149272
L 144.597533 131.149272
L 144.558099 130.149272
L 144.526693 129.149272
L 144.446731 128.149272
L 144.370065 127.149272
L 144.293559 126.149272
L 144.261654 125.149272
L 144.177553 124.149272
L 144.112892 123.149272
L 144.028585 122.149272
L 143.975205 121.149272
L 143.932712 120.149272
L 143.816087 119.149272
L 143.706932 118.149272
L 143.587154 117.149272
L 143.528639 116.149272
L 143.471066 115.149272
L 143.435584 114.149272
L 143.338051 113.149272
L 143.294711 112.149272
L 143.26586 111.149272
L 143.242694 110.149272
L 143.199877 109.149272
L 143.156938 108.149272
L 143.128542 107.149272
L 143.094261 106.149272
L 143.076081 105.149272
L 143.057721 104.149272
L 143.041087 103.149272
L 143.020557 102.149272
L 142.991774 101.149272
L 142.983313 100.149272
L 142.9791 99.149272
L 142.976669 98.149272
L 142.977794 97.149272
L 142.98062 95.568588
L 142.923286 94.675427
L 142.448823 93.147046
L 141.546392 91.918629
L 140.184073 90.855482
L 139.471085 90.565503
L 138.556343 90.161056
L 137.124462 89.516944
L 136.319274 89.387448
L 135.335247 89.207971
L 134.354786 89.006045
L 133.373349 88.810263
L 132.38996 88.626766
L 131.141008 88.384559
L 130.214601 88.314438
L 129.216615 88.235172
L 127.345391 88.147041
L 126.35972 88.101397
L 125.35972 88.032434
L 124.35972 87.940102
L 123.35972 87.908461
L 122.35972 87.82993
L 121.35972 87.711285
L 120.35972 87.587503
L 119.35972 87.540158
L 118.35972 87.458655
L 117.35972 87.390043
L 116.35972 87.360245
L 115.35972 87.327158
L 114.35972 87.239699
L 113.35972 87.182789
L 112.35972 87.108821
L 111.35972 87.080641
L 110.35972 87.018775
L 109.35972 86.991291
L 108.35972 86.943997
L 107.35972 86.889621
L 106.35972 86.86043
L 105.35972 86.826903
L 104.35972 86.814251
L 103.35972 86.797936
L 102.35972 86.796215
L 101.35972 86.805903
L 100.35972 86.815201
L 99.35972 86.823786
L 98.35972 86.853956
L 97.35972 86.877555
L 96.35972 86.927331
L 95.35972 86.97792
L 94.35972 87.01911
L 93.35972 87.096792
L 92.35972 87.164621
L 91.35972 87.19174
L 90.35972 87.238686
L 89.35972 87.27707
L 88.35972 87.320424
L 87.35972 87.43127
L 86.35972 87.499986
L 85.35972 87.547576
L 84.35972 87.579809
L 83.35972 87.674307
L 82.35972 87.770664
L 81.35972 87.824155
L 80.35972 87.916436
L 79.35972 88.02629
L 78.35972 88.117413
L 77.35972 88.182918
L 76.35972 88.276538
L 75.35972 88.303192
L 74.35972 88.35849
L 73.35972 88.382413
L 72.35972 88.429194
L 71.35972 88.452004
L 70.35972 88.484138
L 69.35972 88.502294
L 68.35972 88.539251
L 67.35972 88.562859
L 66.35972 88.587777
L 65.35972 88.594993
L 64.35972 88.593231
L 63.35972 88.583376
L 62.35972 88.558759
L 61.35972 88.546615
L 60.35972 88.506611
L 59.35972 88.455821
L 58.35972 88.428477
L 57.35972 88.405996
L 56.35972 88.36875
L 55.35972 88.337544
L 54.35972 88.307383
L 53.35972 88.243539
L 52.35972 88.202343
L 51.35972 88.143653
L 50.35972 88.07924
L 49.35972 88.003183
L 48.35972 87.927043
L 47.35972 87.884376
L 46.35972 87.85176
L 45.35972 87.747983
L 43.94988 87.703924
L 42.948032 87.653823
L 41.945058 87.57613
L 40.071138 87.579401
L 39.044524 87.682608
L 38.043776 87.756844
L 37.043319 87.832907
L 36.045184 87.923593
L 35.04479 88.000057
L 33.784734 88.172373
L 32.685132 88.529762
L 31.743238 88.869649
L 30.279758 89.438625
L 28.524611 90.760685
L 27.302011 92.395422
L 26.651561 94.361705
L 26.541611 95.508254
L 26.533492 96.568588
L 26.533841 97.568588
L 26.537743 98.568588
L 26.549749 99.568588
L 26.563286 100.568588
L 26.581253 101.568588
L 26.594152 102.568588
L 26.620054 103.568588
L 26.670616 104.568588
L 26.704417 105.568588
L 26.765697 106.568588
L 26.788073 107.568588
L 26.825879 108.568588
L 26.922766 109.568588
L 26.955199 110.568588
L 27.009437 111.568588
L 27.040612 112.568588
L 27.138868 113.568588
L 27.193463 114.568588
L 27.302184 115.568588
L 27.393637 116.568588
L 27.503275 117.568588
L 27.548003 118.568588
L 27.581607 119.568588
L 27.647355 120.568588
L 27.72785 121.568588
L 27.766814 122.568588
L 27.864548 123.568588
L 27.942408 124.568588
L 28.007537 125.568588
L 28.080574 126.568588
L 28.139203 127.568588
L 28.178729 128.568588
L 28.209766 129.568588
L 28.255833 130.568588
L 28.273917 131.568588
L 28.307959 132.568588
L 28.327649 133.568588
L 28.331287 134.568588
L 28.333054 135.568588
L 28.331068 136.568588
L 28.324687 137.568588
L 28.311839 138.568588
L 28.281212 139.568588
L 28.263948 140.568588
L 28.241622 141.568588
L 28.212389 142.568588
L 28.186379 143.568588
L 28.150189 144.568588
L 28.114369 146.149272
L 28.126409 147.060023
L 28.532348 148.66925
L 29.452292 150.01667
L 30.843781 151.217047
L 31.632366 151.642534
L 32.510928 152.133009
L 33.943138 152.776338
L 34.877342 153.041543
L 35.850087 153.292037
L 36.829519 153.500438
L 37.808613 153.710967
L 38.791186 153.899597
L 40.033752 154.182
L 41.067819 154.258791
L 42.0657 154.341354
L 43.934861 154.4944
L 43.94988 154.021752
z
" clip-path="url(#p2330cdd220)" style="fill: #d9f5de; stroke: #238456; stroke-width: 2.5; stroke-linejoin: miter"/>
   </g>
   <g id="patch_77">
    <path d="M 171.95508 154.021752
L 172.95508 154.053187
L 173.95508 154.090116
L 174.95508 154.187694
L 175.95508 154.220086
L 176.95508 154.293209
L 177.95508 154.331367
L 178.95508 154.366296
L 179.95508 154.422885
L 180.95508 154.491437
L 181.95508 154.541563
L 182.95508 154.597934
L 183.95508 154.680558
L 184.95508 154.722691
L 185.95508 154.760576
L 186.95508 154.787191
L 187.95508 154.809409
L 188.95508 154.827069
L 189.95508 154.869904
L 190.95508 154.889932
L 191.95508 154.908554
L 192.95508 154.919985
L 193.95508 154.921737
L 194.95508 154.915678
L 195.95508 154.896593
L 196.95508 154.870182
L 197.95508 154.846456
L 198.95508 154.793428
L 199.95508 154.775963
L 200.95508 154.731127
L 201.95508 154.648068
L 202.95508 154.598901
L 203.95508 154.548683
L 204.95508 154.495546
L 205.95508 154.455354
L 206.95508 154.374594
L 207.95508 154.328797
L 208.95508 154.279654
L 209.95508 154.200079
L 210.95508 154.159833
L 211.95508 154.096299
L 212.95508 153.979048
L 213.95508 153.906675
L 214.95508 153.794694
L 215.95508 153.750628
L 216.95508 153.692854
L 217.95508 153.648156
L 218.95508 153.575769
L 219.95508 153.474744
L 220.95508 153.418074
L 221.95508 153.354349
L 222.95508 153.33015
L 223.95508 153.294192
L 224.95508 153.249281
L 225.95508 153.20977
L 226.95508 153.170023
L 227.95508 153.15789
L 228.95508 153.147341
L 229.95508 153.139408
L 230.95508 153.133497
L 231.95508 153.127119
L 232.95508 153.121754
L 233.95508 153.125925
L 234.95508 153.143393
L 235.95508 153.159642
L 236.95508 153.193348
L 237.95508 153.208732
L 238.95508 153.232652
L 239.95508 153.26143
L 240.95508 153.280936
L 241.95508 153.346194
L 242.95508 153.3749
L 243.95508 153.435349
L 244.95508 153.489665
L 245.95508 153.526384
L 246.95508 153.563167
L 247.95508 153.601573
L 248.95508 153.631299
L 249.95508 153.73508
L 250.95508 153.846839
L 251.95508 153.892149
L 252.95508 153.981114
L 253.95508 154.048262
L 255.36492 154.088544
L 256.369787 154.159051
L 257.370264 154.158179
L 259.243456 154.131986
L 260.2653 154.003935
L 261.261508 153.901123
L 262.258795 153.805105
L 263.251905 153.68279
L 264.252602 153.608238
L 265.51466 153.448519
L 266.5746 153.057156
L 267.508139 152.697403
L 268.984436 152.158905
L 270.709234 150.855266
L 271.912095 149.252017
L 272.568204 147.327671
L 272.712842 146.205521
L 272.729465 145.149272
L 272.745608 144.149272
L 272.764872 143.149272
L 272.774563 142.149272
L 272.781665 141.149272
L 272.781088 140.149272
L 272.770539 139.149272
L 272.763157 138.149272
L 272.751042 137.149272
L 272.724794 136.149272
L 272.705657 135.149272
L 272.690392 134.149272
L 272.651565 133.149272
L 272.633476 132.149272
L 272.602733 131.149272
L 272.563299 130.149272
L 272.531893 129.149272
L 272.451931 128.149272
L 272.375265 127.149272
L 272.298759 126.149272
L 272.266854 125.149272
L 272.182753 124.149272
L 272.118092 123.149272
L 272.033785 122.149272
L 271.980405 121.149272
L 271.937912 120.149272
L 271.821287 119.149272
L 271.712132 118.149272
L 271.592354 117.149272
L 271.533839 116.149272
L 271.476266 115.149272
L 271.440784 114.149272
L 271.343251 113.149272
L 271.299911 112.149272
L 271.27106 111.149272
L 271.247894 110.149272
L 271.205077 109.149272
L 271.162138 108.149272
L 271.133742 107.149272
L 271.099461 106.149272
L 271.081281 105.149272
L 271.062921 104.149272
L 271.046287 103.149272
L 271.025757 102.149272
L 270.996974 101.149272
L 270.988513 100.149272
L 270.9843 99.149272
L 270.981869 98.149272
L 270.982994 97.149272
L 270.98582 95.568588
L 270.928486 94.675427
L 270.454023 93.147046
L 269.551592 91.918629
L 268.189273 90.855482
L 267.476285 90.565503
L 266.561543 90.161056
L 265.129662 89.516944
L 264.324474 89.387448
L 263.340447 89.207971
L 262.359986 89.006045
L 261.378549 88.810263
L 260.39516 88.626766
L 259.146208 88.384559
L 258.219801 88.314438
L 257.221815 88.235172
L 255.350591 88.147041
L 254.36492 88.101397
L 253.36492 88.032434
L 252.36492 87.940102
L 251.36492 87.908461
L 250.36492 87.82993
L 249.36492 87.711285
L 248.36492 87.587503
L 247.36492 87.540158
L 246.36492 87.458655
L 245.36492 87.390043
L 244.36492 87.360245
L 243.36492 87.327158
L 242.36492 87.239699
L 241.36492 87.182789
L 240.36492 87.108821
L 239.36492 87.080641
L 238.36492 87.018775
L 237.36492 86.991291
L 236.36492 86.943997
L 235.36492 86.889621
L 234.36492 86.86043
L 233.36492 86.826903
L 232.36492 86.814251
L 231.36492 86.797936
L 230.36492 86.796215
L 229.36492 86.805903
L 228.36492 86.815201
L 227.36492 86.823786
L 226.36492 86.853956
L 225.36492 86.877555
L 224.36492 86.927331
L 223.36492 86.97792
L 222.36492 87.01911
L 221.36492 87.096792
L 220.36492 87.164621
L 219.36492 87.19174
L 218.36492 87.238686
L 217.36492 87.27707
L 216.36492 87.320424
L 215.36492 87.43127
L 214.36492 87.499986
L 213.36492 87.547576
L 212.36492 87.579809
L 211.36492 87.674307
L 210.36492 87.770664
L 209.36492 87.824155
L 208.36492 87.916436
L 207.36492 88.02629
L 206.36492 88.117413
L 205.36492 88.182918
L 204.36492 88.276538
L 203.36492 88.303192
L 202.36492 88.35849
L 201.36492 88.382413
L 200.36492 88.429194
L 199.36492 88.452004
L 198.36492 88.484138
L 197.36492 88.502294
L 196.36492 88.539251
L 195.36492 88.562859
L 194.36492 88.587777
L 193.36492 88.594993
L 192.36492 88.593231
L 191.36492 88.583376
L 190.36492 88.558759
L 189.36492 88.546615
L 188.36492 88.506611
L 187.36492 88.455821
L 186.36492 88.428477
L 185.36492 88.405996
L 184.36492 88.36875
L 183.36492 88.337544
L 182.36492 88.307383
L 181.36492 88.243539
L 180.36492 88.202343
L 179.36492 88.143653
L 178.36492 88.07924
L 177.36492 88.003183
L 176.36492 87.927043
L 175.36492 87.884376
L 174.36492 87.85176
L 173.36492 87.747983
L 171.95508 87.703924
L 170.953232 87.653823
L 169.950258 87.57613
L 168.076338 87.579401
L 167.049724 87.682608
L 166.048976 87.756844
L 165.048519 87.832907
L 164.050384 87.923593
L 163.04999 88.000057
L 161.789934 88.172373
L 160.690332 88.529762
L 159.748438 88.869649
L 158.284958 89.438625
L 156.529811 90.760685
L 155.307211 92.395422
L 154.656761 94.361705
L 154.546811 95.508254
L 154.538692 96.568588
L 154.539041 97.568588
L 154.542943 98.568588
L 154.554949 99.568588
L 154.568486 100.568588
L 154.586453 101.568588
L 154.599352 102.568588
L 154.625254 103.568588
L 154.675816 104.568588
L 154.709617 105.568588
L 154.770897 106.568588
L 154.793273 107.568588
L 154.831079 108.568588
L 154.927966 109.568588
L 154.960399 110.568588
L 155.014637 111.568588
L 155.045812 112.568588
L 155.144068 113.568588
L 155.198663 114.568588
L 155.307384 115.568588
L 155.398837 116.568588
L 155.508475 117.568588
L 155.553203 118.568588
L 155.586807 119.568588
L 155.652555 120.568588
L 155.73305 121.568588
L 155.772014 122.568588
L 155.869748 123.568588
L 155.947608 124.568588
L 156.012737 125.568588
L 156.085774 126.568588
L 156.144403 127.568588
L 156.183929 128.568588
L 156.214966 129.568588
L 156.261033 130.568588
L 156.279117 131.568588
L 156.313159 132.568588
L 156.332849 133.568588
L 156.336487 134.568588
L 156.338254 135.568588
L 156.336268 136.568588
L 156.329887 137.568588
L 156.317039 138.568588
L 156.286412 139.568588
L 156.269148 140.568588
L 156.246822 141.568588
L 156.217589 142.568588
L 156.191579 143.568588
L 156.155389 144.568588
L 156.119569 146.149272
L 156.131609 147.060023
L 156.537548 148.66925
L 157.457492 150.01667
L 158.848981 151.217047
L 159.637566 151.642534
L 160.516128 152.133009
L 161.948338 152.776338
L 162.882542 153.041543
L 163.855287 153.292037
L 164.834719 153.500438
L 165.813813 153.710967
L 166.796386 153.899597
L 168.038952 154.182
L 169.073019 154.258791
L 170.0709 154.341354
L 171.940061 154.4944
L 171.95508 154.021752
z
" clip-path="url(#p2330cdd220)" style="fill: #ffe6ad; stroke: #d89c22; stroke-width: 2.5; stroke-linejoin: miter"/>
   </g>
   <g id="patch_78">
    <path d="M 299.96028 154.021752
L 300.96028 154.053187
L 301.96028 154.090116
L 302.96028 154.187694
L 303.96028 154.220086
L 304.96028 154.293209
L 305.96028 154.331367
L 306.96028 154.366296
L 307.96028 154.422885
L 308.96028 154.491437
L 309.96028 154.541563
L 310.96028 154.597934
L 311.96028 154.680558
L 312.96028 154.722691
L 313.96028 154.760576
L 314.96028 154.787191
L 315.96028 154.809409
L 316.96028 154.827069
L 317.96028 154.869904
L 318.96028 154.889932
L 319.96028 154.908554
L 320.96028 154.919985
L 321.96028 154.921737
L 322.96028 154.915678
L 323.96028 154.896593
L 324.96028 154.870182
L 325.96028 154.846456
L 326.96028 154.793428
L 327.96028 154.775963
L 328.96028 154.731127
L 329.96028 154.648068
L 330.96028 154.598901
L 331.96028 154.548683
L 332.96028 154.495546
L 333.96028 154.455354
L 334.96028 154.374594
L 335.96028 154.328797
L 336.96028 154.279654
L 337.96028 154.200079
L 338.96028 154.159833
L 339.96028 154.096299
L 340.96028 153.979048
L 341.96028 153.906675
L 342.96028 153.794694
L 343.96028 153.750628
L 344.96028 153.692854
L 345.96028 153.648156
L 346.96028 153.575769
L 347.96028 153.474744
L 348.96028 153.418074
L 349.96028 153.354349
L 350.96028 153.33015
L 351.96028 153.294192
L 352.96028 153.249281
L 353.96028 153.20977
L 354.96028 153.170023
L 355.96028 153.15789
L 356.96028 153.147341
L 357.96028 153.139408
L 358.96028 153.133497
L 359.96028 153.127119
L 360.96028 153.121754
L 361.96028 153.125925
L 362.96028 153.143393
L 363.96028 153.159642
L 364.96028 153.193348
L 365.96028 153.208732
L 366.96028 153.232652
L 367.96028 153.26143
L 368.96028 153.280936
L 369.96028 153.346194
L 370.96028 153.3749
L 371.96028 153.435349
L 372.96028 153.489665
L 373.96028 153.526384
L 374.96028 153.563167
L 375.96028 153.601573
L 376.96028 153.631299
L 377.96028 153.73508
L 378.96028 153.846839
L 379.96028 153.892149
L 380.96028 153.981114
L 381.96028 154.048262
L 383.37012 154.088544
L 384.374987 154.159051
L 385.375464 154.158179
L 387.248656 154.131986
L 388.2705 154.003935
L 389.266708 153.901123
L 390.263995 153.805105
L 391.257105 153.68279
L 392.257802 153.608238
L 393.51986 153.448519
L 394.5798 153.057156
L 395.513339 152.697403
L 396.989636 152.158905
L 398.714434 150.855266
L 399.917295 149.252017
L 400.573404 147.327671
L 400.718042 146.205521
L 400.734665 145.149272
L 400.750808 144.149272
L 400.770072 143.149272
L 400.779763 142.149272
L 400.786865 141.149272
L 400.786288 140.149272
L 400.775739 139.149272
L 400.768357 138.149272
L 400.756242 137.149272
L 400.729994 136.149272
L 400.710857 135.149272
L 400.695592 134.149272
L 400.656765 133.149272
L 400.638676 132.149272
L 400.607933 131.149272
L 400.568499 130.149272
L 400.537093 129.149272
L 400.457131 128.149272
L 400.380465 127.149272
L 400.303959 126.149272
L 400.272054 125.149272
L 400.187953 124.149272
L 400.123292 123.149272
L 400.038985 122.149272
L 399.985605 121.149272
L 399.943112 120.149272
L 399.826487 119.149272
L 399.717332 118.149272
L 399.597554 117.149272
L 399.539039 116.149272
L 399.481466 115.149272
L 399.445984 114.149272
L 399.348451 113.149272
L 399.305111 112.149272
L 399.27626 111.149272
L 399.253094 110.149272
L 399.210277 109.149272
L 399.167338 108.149272
L 399.138942 107.149272
L 399.104661 106.149272
L 399.086481 105.149272
L 399.068121 104.149272
L 399.051487 103.149272
L 399.030957 102.149272
L 399.002174 101.149272
L 398.993713 100.149272
L 398.9895 99.149272
L 398.987069 98.149272
L 398.988194 97.149272
L 398.99102 95.568588
L 398.933686 94.675427
L 398.459223 93.147046
L 397.556792 91.918629
L 396.194473 90.855482
L 395.481485 90.565503
L 394.566743 90.161056
L 393.134862 89.516944
L 392.329674 89.387448
L 391.345647 89.207971
L 390.365186 89.006045
L 389.383749 88.810263
L 388.40036 88.626766
L 387.151408 88.384559
L 386.225001 88.314438
L 385.227015 88.235172
L 383.355791 88.147041
L 382.37012 88.101397
L 381.37012 88.032434
L 380.37012 87.940102
L 379.37012 87.908461
L 378.37012 87.82993
L 377.37012 87.711285
L 376.37012 87.587503
L 375.37012 87.540158
L 374.37012 87.458655
L 373.37012 87.390043
L 372.37012 87.360245
L 371.37012 87.327158
L 370.37012 87.239699
L 369.37012 87.182789
L 368.37012 87.108821
L 367.37012 87.080641
L 366.37012 87.018775
L 365.37012 86.991291
L 364.37012 86.943997
L 363.37012 86.889621
L 362.37012 86.86043
L 361.37012 86.826903
L 360.37012 86.814251
L 359.37012 86.797936
L 358.37012 86.796215
L 357.37012 86.805903
L 356.37012 86.815201
L 355.37012 86.823786
L 354.37012 86.853956
L 353.37012 86.877555
L 352.37012 86.927331
L 351.37012 86.97792
L 350.37012 87.01911
L 349.37012 87.096792
L 348.37012 87.164621
L 347.37012 87.19174
L 346.37012 87.238686
L 345.37012 87.27707
L 344.37012 87.320424
L 343.37012 87.43127
L 342.37012 87.499986
L 341.37012 87.547576
L 340.37012 87.579809
L 339.37012 87.674307
L 338.37012 87.770664
L 337.37012 87.824155
L 336.37012 87.916436
L 335.37012 88.02629
L 334.37012 88.117413
L 333.37012 88.182918
L 332.37012 88.276538
L 331.37012 88.303192
L 330.37012 88.35849
L 329.37012 88.382413
L 328.37012 88.429194
L 327.37012 88.452004
L 326.37012 88.484138
L 325.37012 88.502294
L 324.37012 88.539251
L 323.37012 88.562859
L 322.37012 88.587777
L 321.37012 88.594993
L 320.37012 88.593231
L 319.37012 88.583376
L 318.37012 88.558759
L 317.37012 88.546615
L 316.37012 88.506611
L 315.37012 88.455821
L 314.37012 88.428477
L 313.37012 88.405996
L 312.37012 88.36875
L 311.37012 88.337544
L 310.37012 88.307383
L 309.37012 88.243539
L 308.37012 88.202343
L 307.37012 88.143653
L 306.37012 88.07924
L 305.37012 88.003183
L 304.37012 87.927043
L 303.37012 87.884376
L 302.37012 87.85176
L 301.37012 87.747983
L 299.96028 87.703924
L 298.958432 87.653823
L 297.955458 87.57613
L 296.081538 87.579401
L 295.054924 87.682608
L 294.054176 87.756844
L 293.053719 87.832907
L 292.055584 87.923593
L 291.05519 88.000057
L 289.795134 88.172373
L 288.695532 88.529762
L 287.753638 88.869649
L 286.290158 89.438625
L 284.535011 90.760685
L 283.312411 92.395422
L 282.661961 94.361705
L 282.552011 95.508254
L 282.543892 96.568588
L 282.544241 97.568588
L 282.548143 98.568588
L 282.560149 99.568588
L 282.573686 100.568588
L 282.591653 101.568588
L 282.604552 102.568588
L 282.630454 103.568588
L 282.681016 104.568588
L 282.714817 105.568588
L 282.776097 106.568588
L 282.798473 107.568588
L 282.836279 108.568588
L 282.933166 109.568588
L 282.965599 110.568588
L 283.019837 111.568588
L 283.051012 112.568588
L 283.149268 113.568588
L 283.203863 114.568588
L 283.312584 115.568588
L 283.404037 116.568588
L 283.513675 117.568588
L 283.558403 118.568588
L 283.592007 119.568588
L 283.657755 120.568588
L 283.73825 121.568588
L 283.777214 122.568588
L 283.874948 123.568588
L 283.952808 124.568588
L 284.017937 125.568588
L 284.090974 126.568588
L 284.149603 127.568588
L 284.189129 128.568588
L 284.220166 129.568588
L 284.266233 130.568588
L 284.284317 131.568588
L 284.318359 132.568588
L 284.338049 133.568588
L 284.341687 134.568588
L 284.343454 135.568588
L 284.341468 136.568588
L 284.335087 137.568588
L 284.322239 138.568588
L 284.291612 139.568588
L 284.274348 140.568588
L 284.252022 141.568588
L 284.222789 142.568588
L 284.196779 143.568588
L 284.160589 144.568588
L 284.124769 146.149272
L 284.136809 147.060023
L 284.542748 148.66925
L 285.462692 150.01667
L 286.854181 151.217047
L 287.642766 151.642534
L 288.521328 152.133009
L 289.953538 152.776338
L 290.887742 153.041543
L 291.860487 153.292037
L 292.839919 153.500438
L 293.819013 153.710967
L 294.801586 153.899597
L 296.044152 154.182
L 297.078219 154.258791
L 298.0761 154.341354
L 299.945261 154.4944
L 299.96028 154.021752
z
" clip-path="url(#p2330cdd220)" style="fill: #ffd7d1; stroke: #ba3f3f; stroke-width: 2.5; stroke-linejoin: miter"/>
   </g>
   <g id="text_1">
    <text style="font-size: 7.6px; font-family: 'Comic Sans MS', 'Ink Free', 'Arial', 'DejaVu Sans', sans-serif; text-anchor: start; fill: #6c6c6c" x="26.60724" y="42.69255" transform="rotate(-0 26.60724 42.69255)">A visual reminder of what the result supports, where it is conditional, and what it does not claim.</text>
   </g>
   <g id="text_2">
    <text style="font-size: 7.3px; font-family: 'Comic Sans MS', 'Ink Free', 'Arial', 'DejaVu Sans', sans-serif; fill: #262626" transform="translate(46.4274 122.756158)">All models are faithful</text>
    <text style="font-size: 7.3px; font-family: 'Comic Sans MS', 'Ink Free', 'Arial', 'DejaVu Sans', sans-serif; fill: #262626" transform="translate(46.4274 131.250803)">under C0; LLaVA shows C3/C4</text>
    <text style="font-size: 7.3px; font-family: 'Comic Sans MS', 'Ink Free', 'Arial', 'DejaVu Sans', sans-serif; fill: #262626" transform="translate(46.4274 139.745448)">paired shifts.</text>
   </g>
   <g id="text_3">
    <text style="font-size: 7.3px; font-family: 'Comic Sans MS', 'Ink Free', 'Arial', 'DejaVu Sans', sans-serif; fill: #262626" transform="translate(174.4326 122.756158)">The shift changes with</text>
    <text style="font-size: 7.3px; font-family: 'Comic Sans MS', 'Ink Free', 'Arial', 'DejaVu Sans', sans-serif; fill: #262626" transform="translate(174.4326 131.250803)">wording, format, prompt</text>
    <text style="font-size: 7.3px; font-family: 'Comic Sans MS', 'Ink Free', 'Arial', 'DejaVu Sans', sans-serif; fill: #262626" transform="translate(174.4326 139.745448)">factor, and colour pair.</text>
   </g>
   <g id="text_4">
    <text style="font-size: 7.3px; font-family: 'Comic Sans MS', 'Ink Free', 'Arial', 'DejaVu Sans', sans-serif; fill: #262626" transform="translate(302.4378 122.756158)">The evidence does not show</text>
    <text style="font-size: 7.3px; font-family: 'Comic Sans MS', 'Ink Free', 'Arial', 'DejaVu Sans', sans-serif; fill: #262626" transform="translate(302.4378 131.250803)">general text-over-vision</text>
    <text style="font-size: 7.3px; font-family: 'Comic Sans MS', 'Ink Free', 'Arial', 'DejaVu Sans', sans-serif; fill: #262626" transform="translate(302.4378 139.745448)">behaviour.</text>
   </g>
   <g id="patch_79">
    <path d="M 85.6548 88.87698
L 86.655294 88.876638
L 87.655962 88.881786
L 89.330808 88.926191
L 90.344848 88.778852
L 91.342034 88.674132
L 92.333042 88.534996
L 93.32348 88.392683
L 94.488802 88.24098
L 95.513213 87.990889
L 96.481421 87.735769
L 97.622845 87.432151
L 99.062173 86.884639
L 100.370971 86.266217
L 101.295991 85.661181
L 102.518611 84.819959
L 103.323971 83.959112
L 104.068889 83.128858
L 104.957164 81.226273
L 105.102279 80.080806
L 105.059672 79.080982
L 104.289365 77.092865
L 103.484393 76.095122
L 102.748231 75.257258
L 101.768697 74.5504
L 100.546196 73.709012
L 99.168164 73.023064
L 97.762637 72.453082
L 96.723743 72.136172
L 95.757137 71.87601
L 94.607631 71.597826
L 93.535637 71.44996
L 92.542498 71.322694
L 91.548843 71.198303
L 90.557475 71.061169
L 89.387882 70.933258
L 88.335794 70.941895
L 87.334738 70.959253
L 85.660464 70.985663
L 84.650919 71.057651
L 83.653441 71.152914
L 81.985419 71.32323
L 81.02013 71.570507
L 80.05565 71.857419
L 79.07917 72.077486
L 78.105112 72.311043
L 76.957687 72.562439
L 76.073734 72.922645
L 75.151309 73.321816
L 74.044124 73.733165
L 72.787607 74.367452
L 71.570698 75.015492
L 70.86634 75.572651
L 69.685313 76.472061
L 69.193041 77.131054
L 68.491453 77.998965
L 67.931218 79.476756
L 67.945695 80.081239
L 68.014792 80.836886
L 68.667695 82.257062
L 69.179789 82.768575
L 69.915428 83.606894
L 70.57058 84.049984
L 71.767565 84.927069
L 72.907075 85.514772
L 74.198695 86.126463
L 75.060558 86.411098
L 76.006337 86.736786
L 77.12197 87.121553
L 78.006838 87.293692
L 78.979574 87.534616
L 79.958767 87.739564
L 80.932353 87.975755
L 82.078078 88.236618
L 82.999292 88.296976
L 83.997619 88.365502
L 85.668146 88.457013
L 85.6548 88.87698
z
" clip-path="url(#p2330cdd220)" style="fill: #238456; stroke: #ffffff; stroke-width: 2; stroke-linejoin: miter"/>
   </g>
   <g id="patch_80">
    <path d="M 213.66 90.254664
L 214.451176 89.642268
L 215.245849 89.034108
L 216.079134 88.472719
L 216.870918 87.86106
L 217.688634 87.280812
L 218.48409 86.6736
L 219.277491 86.063899
L 220.08468 85.4709
L 220.899486 84.887127
L 221.702561 84.289145
L 222.509612 83.695978
L 223.333376 83.123057
L 224.131362 82.51891
L 224.926645 81.911489
L 225.714752 81.295375
L 226.500059 80.675871
L 227.282465 80.052851
L 228.080899 79.449247
L 228.864812 78.828054
L 229.64783 78.205776
L 230.426271 77.577954
L 231.198549 76.942667
L 231.965855 76.301357
L 232.812116 75.577973
L 231.255159 74.054898
L 230.255159 74.078624
L 229.255159 74.131652
L 228.255159 74.149117
L 227.255159 74.193953
L 226.255159 74.277012
L 225.255159 74.326179
L 224.255159 74.376397
L 223.255159 74.429534
L 222.255159 74.469726
L 221.255159 74.550486
L 220.255159 74.596283
L 219.255159 74.645426
L 218.255159 74.725001
L 217.255159 74.765247
L 216.255159 74.828781
L 215.255159 74.946032
L 214.255159 75.018405
L 213.255159 75.130386
L 212.255159 75.174452
L 211.255159 75.232226
L 210.255159 75.276924
L 209.255159 75.349311
L 208.255159 75.450336
L 207.255159 75.507006
L 206.255159 75.570731
L 205.255159 75.59493
L 204.255159 75.630888
L 203.255159 75.675799
L 202.255159 75.71531
L 201.255159 75.755057
L 200.255159 75.76719
L 199.255159 75.777739
L 198.255159 75.785672
L 197.255159 75.791583
L 196.255159 75.797961
L 195.064841 75.803326
L 196.406321 74.849137
L 197.166363 75.499246
L 197.927182 76.148414
L 198.676886 76.811045
L 199.438255 77.459546
L 200.194189 78.114631
L 200.947031 78.773461
L 201.705776 79.42514
L 202.435393 80.112103
L 203.188281 80.770878
L 203.92096 81.454131
L 204.657543 82.132656
L 205.40533 82.79761
L 206.153075 83.462614
L 206.899787 84.128869
L 207.652025 84.78843
L 208.357117 85.5051
L 209.05713 86.227922
L 209.799447 86.899501
L 210.513972 87.604746
L 211.242386 88.293165
L 211.987904 88.960868
L 212.693905 89.676436
L 213.532643 90.408933
z
" clip-path="url(#p2330cdd220)" style="fill: #d89c22; stroke: #ffffff; stroke-width: 2; stroke-linejoin: miter"/>
   </g>
   <g id="patch_81">
    <path d="M 334.712424 72.019895
L 333.796194 72.421778
L 332.8776 72.818703
L 331.932911 73.160879
L 331.016269 73.5619
L 330.082103 73.926151
L 329.16298 74.321967
L 328.245246 74.720696
L 327.318194 75.099874
L 326.385994 75.468252
L 324.656059 76.23727
L 324.303531 77.706506
L 324.220908 78.706506
L 324.178775 79.706506
L 324.140889 80.706506
L 324.114274 81.706506
L 324.092056 83.334374
L 325.435922 84.491598
L 326.320196 84.960526
L 327.214284 85.408866
L 328.108977 85.855936
L 329.006763 86.296516
L 329.908714 86.728357
L 330.814026 87.153149
L 331.724942 87.566181
L 332.639011 87.9726
L 334.357586 88.76545
L 335.712424 88.792662
L 336.712424 88.775196
L 337.712424 88.730361
L 338.712424 88.647302
L 339.712424 88.598135
L 340.712424 88.547917
L 341.712424 88.494779
L 342.712424 88.454587
L 343.712424 88.373827
L 344.712424 88.328031
L 345.712424 88.278887
L 346.712424 88.199313
L 348.617976 88.159066
L 349.552756 87.658019
L 350.405012 87.121915
L 351.276578 86.626323
L 352.131101 86.094977
L 353.014846 85.624938
L 353.892693 85.142525
L 354.776166 84.671915
L 355.647726 84.176311
L 356.506963 83.654854
L 358.190948 82.789432
L 357.783284 82.334374
L 357.759085 81.334374
L 357.723126 80.334374
L 357.678216 79.334374
L 357.638705 78.334374
L 357.598958 76.706506
L 357.176296 77.056058
L 356.269053 76.63532
L 355.362935 76.212221
L 354.457687 75.787296
L 353.552238 75.362793
L 352.647225 74.937375
L 351.746314 74.50335
L 350.851125 74.057321
L 349.955412 73.612393
L 348.261547 72.767699
L 347.617976 72.832914
L 346.617976 72.808994
L 345.617976 72.780216
L 344.617976 72.760711
L 343.617976 72.695453
L 342.617976 72.666746
L 341.617976 72.606298
L 340.617976 72.551981
L 339.617976 72.515263
L 338.617976 72.47848
L 337.617976 72.440073
L 336.617976 72.410348
L 334.712424 72.306566
z
" clip-path="url(#p2330cdd220)" style="fill: #ba3f3f; stroke: #ffffff; stroke-width: 2; stroke-linejoin: miter"/>
   </g>
   <g id="text_5">
    <text style="font-size: 15.5px; font-family: 'Comic Sans MS', 'Ink Free', 'Arial', 'DejaVu Sans', sans-serif; text-anchor: start; fill: #262626" x="25.7814" y="31.156845" transform="rotate(-0 25.7814 31.156845)">Claim boundary cheat sheet</text>
   </g>
   <g id="text_6">
    <text style="font-size: 8.2px; font-family: 'Comic Sans MS', 'Ink Free', 'Arial', 'DejaVu Sans', sans-serif; text-anchor: middle; fill: #ffffff" x="85.6548" y="82.07044" transform="rotate(-0 85.6548 82.07044)">OK</text>
   </g>
   <g id="text_7">
    <text style="font-weight: 700; font-size: 10px; font-family: 'Comic Sans MS', 'Ink Free', 'Arial', 'DejaVu Sans', sans-serif; text-anchor: start; fill: #238456" x="46.4274" y="113.4435" transform="rotate(-0 46.4274 113.4435)">Supported</text>
   </g>
   <g id="text_8">
    <text style="font-size: 8.2px; font-family: 'Comic Sans MS', 'Ink Free', 'Arial', 'DejaVu Sans', sans-serif; text-anchor: middle; fill: #ffffff" x="213.66" y="82.07044" transform="rotate(-0 213.66 82.07044)">IF</text>
   </g>
   <g id="text_9">
    <text style="font-weight: 700; font-size: 10px; font-family: 'Comic Sans MS', 'Ink Free', 'Arial', 'DejaVu Sans', sans-serif; text-anchor: start; fill: #d89c22" x="174.4326" y="113.4435" transform="rotate(-0 174.4326 113.4435)">Bounded</text>
   </g>
   <g id="text_10">
    <text style="font-size: 8.2px; font-family: 'Comic Sans MS', 'Ink Free', 'Arial', 'DejaVu Sans', sans-serif; text-anchor: middle; fill: #ffffff" x="341.6652" y="82.07044" transform="rotate(-0 341.6652 82.07044)">NO</text>
   </g>
   <g id="text_11">
    <text style="font-weight: 700; font-size: 10px; font-family: 'Comic Sans MS', 'Ink Free', 'Arial', 'DejaVu Sans', sans-serif; text-anchor: start; fill: #ba3f3f" x="302.4378" y="113.4435" transform="rotate(-0 302.4378 113.4435)">Not claimed</text>
   </g>
   <g id="text_12">
    <text style="font-size: 8.4px; font-family: 'Comic Sans MS', 'Ink Free', 'Arial', 'DejaVu Sans', sans-serif; text-anchor: middle; fill: #6c6c6c" x="213.66" y="188.328118" transform="rotate(-0 213.66 188.328118)">Good for Discussion: strong result, honest border.</text>
   </g>
  </g>
 </g>
 <defs>
  <clipPath id="p2330cdd220">
   <rect x="7.2" y="7.2" width="412.92" height="196.812"/>
  </clipPath>
 </defs>
</svg>
