<?xml version="1.0" encoding="utf-8" standalone="no"?>
<!DOCTYPE svg PUBLIC "-//W3C//DTD SVG 1.1//EN"
  "http://www.w3.org/Graphics/SVG/1.1/DTD/svg11.dtd">
<svg xmlns:xlink="http://www.w3.org/1999/xlink" width="521.98395pt" height="225.072pt" viewBox="0 0 521.98395 225.072" xmlns="http://www.w3.org/2000/svg" version="1.1">
 <metadata>
  <rdf:RDF xmlns:dc="http://purl.org/dc/elements/1.1/" xmlns:cc="http://creativecommons.org/ns#" xmlns:rdf="http://www.w3.org/1999/02/22-rdf-syntax-ns#">
   <cc:Work>
    <dc:type rdf:resource="http://purl.org/dc/dcmitype/StillImage"/>
    <dc:date>2026-05-15T15:52:26.229442</dc:date>
    <dc:format>image/svg+xml</dc:format>
    <dc:creator>
     <cc:Agent>
      <dc:title>Matplotlib v3.10.6, https://matplotlib.org/</dc:title>
     </cc:Agent>
    </dc:creator>
   </cc:Work>
  </rdf:RDF>
 </metadata>
 <defs>
  <style type="text/css">*{stroke-linejoin: round; stroke-linecap: butt}</style>
 </defs>
 <g id="figure_1">
  <g id="patch_1">
   <path d="M 0 225.072
L 521.98395 225.072
L 521.98395 -0
L 0 -0
z
" style="fill: #ffffff"/>
  </g>
  <g id="axes_1">
   <g id="patch_2">
    <path d="M 7.2 217.872
L 464.76 217.872
L 464.76 7.2
L 7.2 7.2
z
" clip-path="url(#p6bf21e4981)" style="fill: #ffffff"/>
   </g>
   <g id="line2d_1">
    <path d="M 34.6536 139.92336
L 38.697691 139.082119
L 42.741782 138.247515
L 46.785873 137.426133
L 50.829964 136.624453
L 54.874055 135.848801
L 58.918145 135.105296
L 62.962236 134.399803
L 67.006327 133.73789
L 71.050418 133.124778
L 75.094509 132.565305
L 79.1386 132.063885
L 83.182691 131.624473
L 87.226782 131.250537
L 91.270873 130.945027
L 95.314964 130.710353
L 99.359055 130.548367
L 103.403145 130.460346
L 107.447236 130.446986
L 111.491327 130.508391
L 115.535418 130.644078
L 119.579509 130.852975
L 123.6236 131.133435
L 127.667691 131.483244
L 131.711782 131.899643
L 135.755873 132.379347
L 139.799964 132.91857
L 143.844055 133.51306
L 147.888145 134.158124
L 151.932236 134.848675
L 155.976327 135.579263
L 160.020418 136.344124
L 164.064509 137.137225
L 168.1086 137.952307
L 172.152691 138.782941
L 176.196782 139.622572
L 180.240873 140.464576
L 184.284964 141.30231
L 188.329055 142.129164
L 192.373145 142.938616
L 196.417236 143.724278
L 200.461327 144.479952
L 204.505418 145.199676
L 208.549509 145.877771
L 212.5936 146.508888
L 216.637691 147.088047
L 220.681782 147.610679
L 224.725873 148.072661
L 228.769964 148.470347
L 232.814055 148.8006
L 236.858145 149.060815
L 240.902236 149.248938
L 244.946327 149.363485
L 248.990418 149.403552
L 253.034509 149.368824
L 257.0786 149.259574
L 261.122691 149.076664
L 265.166782 148.821537
L 269.210873 148.496207
L 273.254964 148.10324
L 277.299055 147.645736
L 281.343145 147.127304
L 285.387236 146.552036
L 289.431327 145.92447
L 293.475418 145.249557
L 297.519509 144.532622
L 301.5636 143.779321
L 305.607691 142.995598
L 309.651782 142.187636
L 313.695873 141.361809
L 317.739964 140.524634
L 321.784055 139.682715
L 325.828145 138.842694
L 329.872236 138.0112
L 333.916327 137.194791
L 337.960418 136.399911
L 342.004509 135.632829
L 346.0486 134.899598
L 350.092691 134.206003
L 354.136782 133.557517
L 358.180873 132.959254
L 362.224964 132.415937
L 366.269055 131.93185
L 370.313145 131.510814
L 374.357236 131.156151
L 378.401327 130.870658
L 382.445418 130.656587
L 386.489509 130.515629
L 390.5336 130.448895
L 394.577691 130.456911
L 398.621782 130.539615
L 402.665873 130.696354
L 406.709964 130.92589
L 410.754055 131.226414
L 414.798145 131.595554
L 418.842236 132.030398
L 422.886327 132.527515
L 426.930418 133.082982
L 430.974509 133.692418
L 435.0186 134.351015
" clip-path="url(#p6bf21e4981)" style="fill: none; stroke: #d1c4a8; stroke-width: 22; stroke-linecap: round"/>
   </g>
   <g id="line2d_2">
    <path d="M 34.6536 139.92336
L 38.697691 139.082119
L 42.741782 138.247515
L 46.785873 137.426133
L 50.829964 136.624453
L 54.874055 135.848801
L 58.918145 135.105296
L 62.962236 134.399803
L 67.006327 133.73789
L 71.050418 133.124778
L 75.094509 132.565305
L 79.1386 132.063885
L 83.182691 131.624473
L 87.226782 131.250537
L 91.270873 130.945027
L 95.314964 130.710353
L 99.359055 130.548367
L 103.403145 130.460346
L 107.447236 130.446986
L 111.491327 130.508391
L 115.535418 130.644078
L 119.579509 130.852975
L 123.6236 131.133435
L 127.667691 131.483244
L 131.711782 131.899643
L 135.755873 132.379347
L 139.799964 132.91857
L 143.844055 133.51306
L 147.888145 134.158124
L 151.932236 134.848675
L 155.976327 135.579263
L 160.020418 136.344124
L 164.064509 137.137225
L 168.1086 137.952307
L 172.152691 138.782941
L 176.196782 139.622572
L 180.240873 140.464576
L 184.284964 141.30231
L 188.329055 142.129164
L 192.373145 142.938616
L 196.417236 143.724278
L 200.461327 144.479952
L 204.505418 145.199676
L 208.549509 145.877771
L 212.5936 146.508888
L 216.637691 147.088047
L 220.681782 147.610679
L 224.725873 148.072661
L 228.769964 148.470347
L 232.814055 148.8006
L 236.858145 149.060815
L 240.902236 149.248938
L 244.946327 149.363485
L 248.990418 149.403552
L 253.034509 149.368824
L 257.0786 149.259574
L 261.122691 149.076664
L 265.166782 148.821537
L 269.210873 148.496207
L 273.254964 148.10324
L 277.299055 147.645736
L 281.343145 147.127304
L 285.387236 146.552036
L 289.431327 145.92447
L 293.475418 145.249557
L 297.519509 144.532622
L 301.5636 143.779321
L 305.607691 142.995598
L 309.651782 142.187636
L 313.695873 141.361809
L 317.739964 140.524634
L 321.784055 139.682715
L 325.828145 138.842694
L 329.872236 138.0112
L 333.916327 137.194791
L 337.960418 136.399911
L 342.004509 135.632829
L 346.0486 134.899598
L 350.092691 134.206003
L 354.136782 133.557517
L 358.180873 132.959254
L 362.224964 132.415937
L 366.269055 131.93185
L 370.313145 131.510814
L 374.357236 131.156151
L 378.401327 130.870658
L 382.445418 130.656587
L 386.489509 130.515629
L 390.5336 130.448895
L 394.577691 130.456911
L 398.621782 130.539615
L 402.665873 130.696354
L 406.709964 130.92589
L 410.754055 131.226414
L 414.798145 131.595554
L 418.842236 132.030398
L 422.886327 132.527515
L 426.930418 133.082982
L 430.974509 133.692418
L 435.0186 134.351015
" clip-path="url(#p6bf21e4981)" style="fill: none; stroke-dasharray: 11,11; stroke-dashoffset: 0; stroke: #ffffff; stroke-width: 2.2"/>
   </g>
   <g id="patch_3">
    <path d="M 43.34724 108.111888
L 90.47592 108.111888
Q 105.11784 108.111888 105.11784 101.370384
L 105.11784 70.190928
Q 105.11784 63.449424 90.47592 63.449424
L 43.34724 63.449424
Q 28.70532 63.449424 28.70532 70.190928
L 28.70532 101.370384
Q 28.70532 108.111888 43.34724 108.111888
z
" clip-path="url(#p6bf21e4981)" style="fill: #d8cab0; opacity: 0.55"/>
   </g>
   <g id="patch_4">
    <path d="M 116.55684 156.566448
L 163.68552 156.566448
Q 178.32744 156.566448 178.32744 149.824944
L 178.32744 118.645488
Q 178.32744 111.903984 163.68552 111.903984
L 116.55684 111.903984
Q 101.91492 111.903984 101.91492 118.645488
L 101.91492 149.824944
Q 101.91492 156.566448 116.55684 156.566448
z
" clip-path="url(#p6bf21e4981)" style="fill: #d8cab0; opacity: 0.55"/>
   </g>
   <g id="patch_5">
    <path d="M 189.76644 110.218608
L 236.89512 110.218608
Q 251.53704 110.218608 251.53704 103.477104
L 251.53704 72.297648
Q 251.53704 65.556144 236.89512 65.556144
L 189.76644 65.556144
Q 175.12452 65.556144 175.12452 72.297648
L 175.12452 103.477104
Q 175.12452 110.218608 189.76644 110.218608
z
" clip-path="url(#p6bf21e4981)" style="fill: #d8cab0; opacity: 0.55"/>
   </g>
   <g id="patch_6">
    <path d="M 262.97604 159.726528
L 310.10472 159.726528
Q 324.74664 159.726528 324.74664 152.985024
L 324.74664 121.805568
Q 324.74664 115.064064 310.10472 115.064064
L 262.97604 115.064064
Q 248.33412 115.064064 248.33412 121.805568
L 248.33412 152.985024
Q 248.33412 159.726528 262.97604 159.726528
z
" clip-path="url(#p6bf21e4981)" style="fill: #d8cab0; opacity: 0.55"/>
   </g>
   <g id="patch_7">
    <path d="M 336.18564 113.378688
L 383.31432 113.378688
Q 397.95624 113.378688 397.95624 106.637184
L 397.95624 75.457728
Q 397.95624 68.716224 383.31432 68.716224
L 336.18564 68.716224
Q 321.54372 68.716224 321.54372 75.457728
L 321.54372 106.637184
Q 321.54372 113.378688 336.18564 113.378688
z
" clip-path="url(#p6bf21e4981)" style="fill: #d8cab0; opacity: 0.55"/>
   </g>
   <g id="patch_8">
    <path d="M 400.24404 152.353008
L 447.37272 152.353008
Q 462.01464 152.353008 462.01464 145.611504
L 462.01464 114.432048
Q 462.01464 107.690544 447.37272 107.690544
L 400.24404 107.690544
Q 385.60212 107.690544 385.60212 114.432048
L 385.60212 145.611504
Q 385.60212 152.353008 400.24404 152.353008
z
" clip-path="url(#p6bf21e4981)" style="fill: #d8cab0; opacity: 0.55"/>
   </g>
   <g id="patch_9">
    <path d="M 56.61648 118.85616
L 57.61648 118.887595
L 58.61648 118.924524
L 59.61648 119.022102
L 60.61648 119.054494
L 62.1072 119.127617
L 62.416815 117.85616
L 62.451744 116.85616
L 62.508333 115.85616
L 62.576885 114.85616
L 62.627011 113.85616
L 62.683382 112.85616
L 62.766006 111.85616
L 62.808139 110.85616
L 62.846024 109.85616
L 62.872639 108.85616
L 62.894857 107.85616
L 62.912517 106.85616
L 62.955352 105.85616
L 62.97538 104.85616
L 62.994002 103.85616
L 63.005433 102.0024
L 61.1072 101.102415
L 60.1072 101.108474
L 59.1072 101.127559
L 58.1072 101.15397
L 56.61648 101.177696
L 55.844804 103.0024
L 55.862269 104.0024
L 55.907105 105.0024
L 55.990164 106.0024
L 56.039331 107.0024
L 56.089549 108.0024
L 56.142686 109.0024
L 56.182878 110.0024
L 56.263638 111.0024
L 56.309435 112.0024
L 56.358578 113.0024
L 56.438153 114.0024
L 56.478399 115.0024
L 56.541933 116.0024
L 56.659184 117.0024
L 56.731557 118.85616
z
" clip-path="url(#p6bf21e4981)" style="fill: #7d634b; stroke: #2e2e2e; stroke-width: 1.1; stroke-linejoin: miter"/>
   </g>
   <g id="patch_10">
    <path d="M 39.68676 106.426512
L 40.68676 106.457947
L 41.68676 106.494876
L 42.68676 106.592454
L 43.68676 106.624846
L 44.68676 106.697969
L 45.68676 106.736127
L 46.68676 106.771056
L 47.68676 106.827645
L 48.68676 106.896197
L 49.68676 106.946323
L 50.68676 107.002694
L 51.68676 107.085318
L 52.68676 107.127451
L 53.68676 107.165336
L 54.68676 107.191951
L 55.68676 107.214169
L 56.68676 107.231829
L 57.68676 107.274664
L 58.68676 107.294692
L 59.68676 107.313314
L 60.68676 107.324745
L 61.68676 107.326497
L 62.68676 107.320438
L 63.68676 107.301353
L 64.68676 107.274942
L 65.68676 107.251216
L 66.68676 107.198188
L 67.68676 107.180723
L 68.68676 107.135887
L 69.68676 107.052828
L 70.68676 107.003661
L 71.68676 106.953443
L 72.68676 106.900306
L 73.68676 106.860114
L 74.68676 106.779354
L 75.68676 106.733557
L 76.68676 106.684414
L 77.68676 106.604839
L 78.68676 106.564593
L 79.68676 106.501059
L 80.68676 106.383808
L 81.68676 106.311435
L 82.68676 106.199454
L 83.68676 106.155388
L 84.68676 106.097614
L 85.68676 106.052916
L 86.81544 105.980529
L 87.798187 105.849081
L 88.795977 105.761758
L 90.226664 105.654088
L 91.130652 105.485879
L 92.113624 105.298638
L 93.095237 105.102549
L 94.07767 104.911796
L 95.608654 104.636616
L 96.284916 104.27558
L 97.188848 103.847774
L 98.093874 103.422344
L 99.02685 102.986271
L 99.260101 102.458474
L 99.842175 101.645321
L 100.502954 100.739717
L 100.588066 99.55914
L 100.59525 98.685008
L 100.628956 97.685008
L 100.64434 96.685008
L 100.66826 95.685008
L 100.697038 94.685008
L 100.716544 93.685008
L 100.781802 92.685008
L 100.810508 91.685008
L 100.870957 90.685008
L 100.925273 89.685008
L 100.961992 88.685008
L 100.998775 87.685008
L 101.037181 86.685008
L 101.066907 85.685008
L 101.170688 84.685008
L 101.282447 83.685008
L 101.327757 82.685008
L 101.416722 81.685008
L 101.48387 80.685008
L 101.524152 79.685008
L 101.626504 78.685008
L 101.657407 77.685008
L 101.690719 76.685008
L 101.722748 75.685008
L 101.777524 74.685008
L 101.839181 73.685008
L 101.87421 72.685008
L 101.957601 71.685008
L 101.99789 70.685008
L 102.032479 69.685008
L 102.062765 68.505552
L 101.902885 66.827877
L 101.215771 65.700228
L 100.659718 64.868237
L 100.033393 63.937689
L 98.838386 63.222553
L 97.9362 62.790956
L 97.034607 62.358068
L 96.107215 61.909867
L 94.884876 61.677863
L 93.897527 61.519145
L 92.909013 61.368016
L 91.918986 61.226744
L 90.380853 60.998148
L 89.274282 60.969791
L 88.273947 60.965345
L 86.840719 60.940499
L 85.81544 60.955376
L 84.81544 60.994203
L 83.81544 61.012292
L 82.81544 61.043035
L 81.81544 61.082469
L 80.81544 61.113875
L 79.81544 61.193837
L 78.81544 61.270503
L 77.81544 61.347009
L 76.81544 61.378914
L 75.81544 61.463015
L 74.81544 61.527676
L 73.81544 61.611983
L 72.81544 61.665363
L 71.81544 61.707856
L 70.81544 61.824481
L 69.81544 61.933636
L 68.81544 62.053414
L 67.81544 62.111929
L 66.81544 62.169502
L 65.81544 62.204984
L 64.81544 62.302517
L 63.81544 62.345857
L 62.81544 62.374708
L 61.81544 62.397874
L 60.81544 62.440691
L 59.81544 62.48363
L 58.81544 62.512026
L 57.81544 62.546307
L 56.81544 62.564487
L 55.81544 62.582847
L 54.81544 62.599481
L 53.81544 62.620011
L 52.81544 62.648794
L 51.81544 62.657255
L 50.81544 62.661468
L 49.81544 62.663899
L 48.81544 62.662774
L 47.81544 62.659948
L 46.81544 62.654796
L 45.81544 62.648303
L 44.81544 62.639184
L 43.81544 62.617772
L 42.81544 62.595211
L 41.81544 62.577012
L 40.81544 62.538371
L 39.68676 62.514527
L 38.709555 62.522016
L 37.708627 62.507136
L 36.274778 62.51177
L 35.360045 62.629725
L 34.365059 62.738691
L 33.369778 62.845726
L 32.374141 62.950444
L 30.83278 63.158011
L 30.025498 63.498438
L 29.088312 63.85402
L 28.141353 64.188375
L 27.192671 64.590338
L 26.625836 65.285931
L 25.943313 66.026362
L 25.185649 66.861824
L 24.890499 68.483204
L 24.807387 69.505552
L 24.738775 70.505552
L 24.708977 71.505552
L 24.67589 72.505552
L 24.588431 73.505552
L 24.531521 74.505552
L 24.457553 75.505552
L 24.429373 76.505552
L 24.367507 77.505552
L 24.340023 78.505552
L 24.292729 79.505552
L 24.238353 80.505552
L 24.209162 81.505552
L 24.175635 82.505552
L 24.162983 83.505552
L 24.146668 84.505552
L 24.144947 85.505552
L 24.154635 86.505552
L 24.163933 87.505552
L 24.172518 88.505552
L 24.202688 89.505552
L 24.226287 90.505552
L 24.276063 91.505552
L 24.326652 92.505552
L 24.367842 93.505552
L 24.445524 94.505552
L 24.513353 95.505552
L 24.540472 96.505552
L 24.587418 97.505552
L 24.625802 98.505552
L 24.669156 99.685008
L 25.011515 101.302999
L 25.70118 102.190065
L 26.326148 102.972164
L 27.009657 103.861312
L 28.003086 104.231139
L 28.951729 104.561838
L 29.882444 104.931473
L 30.856487 105.278354
L 31.802855 105.303826
L 32.805105 105.365456
L 33.803469 105.452408
L 34.806098 105.51157
L 36.347154 105.721118
L 37.274911 105.689786
L 38.275175 105.696555
L 39.709251 105.693771
L 39.68676 106.426512
z
" clip-path="url(#p6bf21e4981)" style="fill: #dde7ff; stroke: #4257a0; stroke-width: 2.1; stroke-linejoin: miter"/>
   </g>
   <g id="patch_11">
    <path d="M 129.82608 167.31072
L 130.82608 167.342155
L 131.82608 167.379084
L 132.82608 167.476662
L 133.82608 167.509054
L 135.3168 167.582177
L 135.626415 166.31072
L 135.661344 165.31072
L 135.717933 164.31072
L 135.786485 163.31072
L 135.836611 162.31072
L 135.892982 161.31072
L 135.975606 160.31072
L 136.017739 159.31072
L 136.055624 158.31072
L 136.082239 157.31072
L 136.104457 156.31072
L 136.122117 155.31072
L 136.164952 154.31072
L 136.18498 153.31072
L 136.203602 152.31072
L 136.215033 150.45696
L 134.3168 149.556975
L 133.3168 149.563034
L 132.3168 149.582119
L 131.3168 149.60853
L 129.82608 149.632256
L 129.054404 151.45696
L 129.071869 152.45696
L 129.116705 153.45696
L 129.199764 154.45696
L 129.248931 155.45696
L 129.299149 156.45696
L 129.352286 157.45696
L 129.392478 158.45696
L 129.473238 159.45696
L 129.519035 160.45696
L 129.568178 161.45696
L 129.647753 162.45696
L 129.687999 163.45696
L 129.751533 164.45696
L 129.868784 165.45696
L 129.941157 167.31072
z
" clip-path="url(#p6bf21e4981)" style="fill: #7d634b; stroke: #2e2e2e; stroke-width: 1.1; stroke-linejoin: miter"/>
   </g>
   <g id="patch_12">
    <path d="M 112.89636 154.881072
L 113.89636 154.912507
L 114.89636 154.949436
L 115.89636 155.047014
L 116.89636 155.079406
L 117.89636 155.152529
L 118.89636 155.190687
L 119.89636 155.225616
L 120.89636 155.282205
L 121.89636 155.350757
L 122.89636 155.400883
L 123.89636 155.457254
L 124.89636 155.539878
L 125.89636 155.582011
L 126.89636 155.619896
L 127.89636 155.646511
L 128.89636 155.668729
L 129.89636 155.686389
L 130.89636 155.729224
L 131.89636 155.749252
L 132.89636 155.767874
L 133.89636 155.779305
L 134.89636 155.781057
L 135.89636 155.774998
L 136.89636 155.755913
L 137.89636 155.729502
L 138.89636 155.705776
L 139.89636 155.652748
L 140.89636 155.635283
L 141.89636 155.590447
L 142.89636 155.507388
L 143.89636 155.458221
L 144.89636 155.408003
L 145.89636 155.354866
L 146.89636 155.314674
L 147.89636 155.233914
L 148.89636 155.188117
L 149.89636 155.138974
L 150.89636 155.059399
L 151.89636 155.019153
L 152.89636 154.955619
L 153.89636 154.838368
L 154.89636 154.765995
L 155.89636 154.654014
L 156.89636 154.609948
L 157.89636 154.552174
L 158.89636 154.507476
L 160.02504 154.435089
L 161.007787 154.303641
L 162.005577 154.216318
L 163.436264 154.108648
L 164.340252 153.940439
L 165.323224 153.753198
L 166.304837 153.557109
L 167.28727 153.366356
L 168.818254 153.091176
L 169.494516 152.73014
L 170.398448 152.302334
L 171.303474 151.876904
L 172.23645 151.440831
L 172.469701 150.913034
L 173.051775 150.099881
L 173.712554 149.194277
L 173.797666 148.0137
L 173.80485 147.139568
L 173.838556 146.139568
L 173.85394 145.139568
L 173.87786 144.139568
L 173.906638 143.139568
L 173.926144 142.139568
L 173.991402 141.139568
L 174.020108 140.139568
L 174.080557 139.139568
L 174.134873 138.139568
L 174.171592 137.139568
L 174.208375 136.139568
L 174.246781 135.139568
L 174.276507 134.139568
L 174.380288 133.139568
L 174.492047 132.139568
L 174.537357 131.139568
L 174.626322 130.139568
L 174.69347 129.139568
L 174.733752 128.139568
L 174.836104 127.139568
L 174.867007 126.139568
L 174.900319 125.139568
L 174.932348 124.139568
L 174.987124 123.139568
L 175.048781 122.139568
L 175.08381 121.139568
L 175.167201 120.139568
L 175.20749 119.139568
L 175.242079 118.139568
L 175.272365 116.960112
L 175.112485 115.282437
L 174.425371 114.154788
L 173.869318 113.322797
L 173.242993 112.392249
L 172.047986 111.677113
L 171.1458 111.245516
L 170.244207 110.812628
L 169.316815 110.364427
L 168.094476 110.132423
L 167.107127 109.973705
L 166.118613 109.822576
L 165.128586 109.681304
L 163.590453 109.452708
L 162.483882 109.424351
L 161.483547 109.419905
L 160.050319 109.395059
L 159.02504 109.409936
L 158.02504 109.448763
L 157.02504 109.466852
L 156.02504 109.497595
L 155.02504 109.537029
L 154.02504 109.568435
L 153.02504 109.648397
L 152.02504 109.725063
L 151.02504 109.801569
L 150.02504 109.833474
L 149.02504 109.917575
L 148.02504 109.982236
L 147.02504 110.066543
L 146.02504 110.119923
L 145.02504 110.162416
L 144.02504 110.279041
L 143.02504 110.388196
L 142.02504 110.507974
L 141.02504 110.566489
L 140.02504 110.624062
L 139.02504 110.659544
L 138.02504 110.757077
L 137.02504 110.800417
L 136.02504 110.829268
L 135.02504 110.852434
L 134.02504 110.895251
L 133.02504 110.93819
L 132.02504 110.966586
L 131.02504 111.000867
L 130.02504 111.019047
L 129.02504 111.037407
L 128.02504 111.054041
L 127.02504 111.074571
L 126.02504 111.103354
L 125.02504 111.111815
L 124.02504 111.116028
L 123.02504 111.118459
L 122.02504 111.117334
L 121.02504 111.114508
L 120.02504 111.109356
L 119.02504 111.102863
L 118.02504 111.093744
L 117.02504 111.072332
L 116.02504 111.049771
L 115.02504 111.031572
L 114.02504 110.992931
L 112.89636 110.969087
L 111.919155 110.976576
L 110.918227 110.961696
L 109.484378 110.96633
L 108.569645 111.084285
L 107.574659 111.193251
L 106.579378 111.300286
L 105.583741 111.405004
L 104.04238 111.612571
L 103.235098 111.952998
L 102.297912 112.30858
L 101.350953 112.642935
L 100.402271 113.044898
L 99.835436 113.740491
L 99.152913 114.480922
L 98.395249 115.316384
L 98.100099 116.937764
L 98.016987 117.960112
L 97.948375 118.960112
L 97.918577 119.960112
L 97.88549 120.960112
L 97.798031 121.960112
L 97.741121 122.960112
L 97.667153 123.960112
L 97.638973 124.960112
L 97.577107 125.960112
L 97.549623 126.960112
L 97.502329 127.960112
L 97.447953 128.960112
L 97.418762 129.960112
L 97.385235 130.960112
L 97.372583 131.960112
L 97.356268 132.960112
L 97.354547 133.960112
L 97.364235 134.960112
L 97.373533 135.960112
L 97.382118 136.960112
L 97.412288 137.960112
L 97.435887 138.960112
L 97.485663 139.960112
L 97.536252 140.960112
L 97.577442 141.960112
L 97.655124 142.960112
L 97.722953 143.960112
L 97.750072 144.960112
L 97.797018 145.960112
L 97.835402 146.960112
L 97.878756 148.139568
L 98.221115 149.757559
L 98.91078 150.644625
L 99.535748 151.426724
L 100.219257 152.315872
L 101.212686 152.685699
L 102.161329 153.016398
L 103.092044 153.386033
L 104.066087 153.732914
L 105.012455 153.758386
L 106.014705 153.820016
L 107.013069 153.906968
L 108.015698 153.96613
L 109.556754 154.175678
L 110.484511 154.144346
L 111.484775 154.151115
L 112.918851 154.148331
L 112.89636 154.881072
z
" clip-path="url(#p6bf21e4981)" style="fill: #d9f5de; stroke: #238456; stroke-width: 2.1; stroke-linejoin: miter"/>
   </g>
   <g id="patch_13">
    <path d="M 203.03568 120.96288
L 204.03568 120.994315
L 205.03568 121.031244
L 206.03568 121.128822
L 207.03568 121.161214
L 208.5264 121.234337
L 208.836015 119.96288
L 208.870944 118.96288
L 208.927533 117.96288
L 208.996085 116.96288
L 209.046211 115.96288
L 209.102582 114.96288
L 209.185206 113.96288
L 209.227339 112.96288
L 209.265224 111.96288
L 209.291839 110.96288
L 209.314057 109.96288
L 209.331717 108.96288
L 209.374552 107.96288
L 209.39458 106.96288
L 209.413202 105.96288
L 209.424633 104.10912
L 207.5264 103.209135
L 206.5264 103.215194
L 205.5264 103.234279
L 204.5264 103.26069
L 203.03568 103.284416
L 202.264004 105.10912
L 202.281469 106.10912
L 202.326305 107.10912
L 202.409364 108.10912
L 202.458531 109.10912
L 202.508749 110.10912
L 202.561886 111.10912
L 202.602078 112.10912
L 202.682838 113.10912
L 202.728635 114.10912
L 202.777778 115.10912
L 202.857353 116.10912
L 202.897599 117.10912
L 202.961133 118.10912
L 203.078384 119.10912
L 203.150757 120.96288
z
" clip-path="url(#p6bf21e4981)" style="fill: #7d634b; stroke: #2e2e2e; stroke-width: 1.1; stroke-linejoin: miter"/>
   </g>
   <g id="patch_14">
    <path d="M 186.10596 108.533232
L 187.10596 108.564667
L 188.10596 108.601596
L 189.10596 108.699174
L 190.10596 108.731566
L 191.10596 108.804689
L 192.10596 108.842847
L 193.10596 108.877776
L 194.10596 108.934365
L 195.10596 109.002917
L 196.10596 109.053043
L 197.10596 109.109414
L 198.10596 109.192038
L 199.10596 109.234171
L 200.10596 109.272056
L 201.10596 109.298671
L 202.10596 109.320889
L 203.10596 109.338549
L 204.10596 109.381384
L 205.10596 109.401412
L 206.10596 109.420034
L 207.10596 109.431465
L 208.10596 109.433217
L 209.10596 109.427158
L 210.10596 109.408073
L 211.10596 109.381662
L 212.10596 109.357936
L 213.10596 109.304908
L 214.10596 109.287443
L 215.10596 109.242607
L 216.10596 109.159548
L 217.10596 109.110381
L 218.10596 109.060163
L 219.10596 109.007026
L 220.10596 108.966834
L 221.10596 108.886074
L 222.10596 108.840277
L 223.10596 108.791134
L 224.10596 108.711559
L 225.10596 108.671313
L 226.10596 108.607779
L 227.10596 108.490528
L 228.10596 108.418155
L 229.10596 108.306174
L 230.10596 108.262108
L 231.10596 108.204334
L 232.10596 108.159636
L 233.23464 108.087249
L 234.217387 107.955801
L 235.215177 107.868478
L 236.645864 107.760808
L 237.549852 107.592599
L 238.532824 107.405358
L 239.514437 107.209269
L 240.49687 107.018516
L 242.027854 106.743336
L 242.704116 106.3823
L 243.608048 105.954494
L 244.513074 105.529064
L 245.44605 105.092991
L 245.679301 104.565194
L 246.261375 103.752041
L 246.922154 102.846437
L 247.007266 101.66586
L 247.01445 100.791728
L 247.048156 99.791728
L 247.06354 98.791728
L 247.08746 97.791728
L 247.116238 96.791728
L 247.135744 95.791728
L 247.201002 94.791728
L 247.229708 93.791728
L 247.290157 92.791728
L 247.344473 91.791728
L 247.381192 90.791728
L 247.417975 89.791728
L 247.456381 88.791728
L 247.486107 87.791728
L 247.589888 86.791728
L 247.701647 85.791728
L 247.746957 84.791728
L 247.835922 83.791728
L 247.90307 82.791728
L 247.943352 81.791728
L 248.045704 80.791728
L 248.076607 79.791728
L 248.109919 78.791728
L 248.141948 77.791728
L 248.196724 76.791728
L 248.258381 75.791728
L 248.29341 74.791728
L 248.376801 73.791728
L 248.41709 72.791728
L 248.451679 71.791728
L 248.481965 70.612272
L 248.322085 68.934597
L 247.634971 67.806948
L 247.078918 66.974957
L 246.452593 66.044409
L 245.257586 65.329273
L 244.3554 64.897676
L 243.453807 64.464788
L 242.526415 64.016587
L 241.304076 63.784583
L 240.316727 63.625865
L 239.328213 63.474736
L 238.338186 63.333464
L 236.800053 63.104868
L 235.693482 63.076511
L 234.693147 63.072065
L 233.259919 63.047219
L 232.23464 63.062096
L 231.23464 63.100923
L 230.23464 63.119012
L 229.23464 63.149755
L 228.23464 63.189189
L 227.23464 63.220595
L 226.23464 63.300557
L 225.23464 63.377223
L 224.23464 63.453729
L 223.23464 63.485634
L 222.23464 63.569735
L 221.23464 63.634396
L 220.23464 63.718703
L 219.23464 63.772083
L 218.23464 63.814576
L 217.23464 63.931201
L 216.23464 64.040356
L 215.23464 64.160134
L 214.23464 64.218649
L 213.23464 64.276222
L 212.23464 64.311704
L 211.23464 64.409237
L 210.23464 64.452577
L 209.23464 64.481428
L 208.23464 64.504594
L 207.23464 64.547411
L 206.23464 64.59035
L 205.23464 64.618746
L 204.23464 64.653027
L 203.23464 64.671207
L 202.23464 64.689567
L 201.23464 64.706201
L 200.23464 64.726731
L 199.23464 64.755514
L 198.23464 64.763975
L 197.23464 64.768188
L 196.23464 64.770619
L 195.23464 64.769494
L 194.23464 64.766668
L 193.23464 64.761516
L 192.23464 64.755023
L 191.23464 64.745904
L 190.23464 64.724492
L 189.23464 64.701931
L 188.23464 64.683732
L 187.23464 64.645091
L 186.10596 64.621247
L 185.128755 64.628736
L 184.127827 64.613856
L 182.693978 64.61849
L 181.779245 64.736445
L 180.784259 64.845411
L 179.788978 64.952446
L 178.793341 65.057164
L 177.25198 65.264731
L 176.444698 65.605158
L 175.507512 65.96074
L 174.560553 66.295095
L 173.611871 66.697058
L 173.045036 67.392651
L 172.362513 68.133082
L 171.604849 68.968544
L 171.309699 70.589924
L 171.226587 71.612272
L 171.157975 72.612272
L 171.128177 73.612272
L 171.09509 74.612272
L 171.007631 75.612272
L 170.950721 76.612272
L 170.876753 77.612272
L 170.848573 78.612272
L 170.786707 79.612272
L 170.759223 80.612272
L 170.711929 81.612272
L 170.657553 82.612272
L 170.628362 83.612272
L 170.594835 84.612272
L 170.582183 85.612272
L 170.565868 86.612272
L 170.564147 87.612272
L 170.573835 88.612272
L 170.583133 89.612272
L 170.591718 90.612272
L 170.621888 91.612272
L 170.645487 92.612272
L 170.695263 93.612272
L 170.745852 94.612272
L 170.787042 95.612272
L 170.864724 96.612272
L 170.932553 97.612272
L 170.959672 98.612272
L 171.006618 99.612272
L 171.045002 100.612272
L 171.088356 101.791728
L 171.430715 103.409719
L 172.12038 104.296785
L 172.745348 105.078884
L 173.428857 105.968032
L 174.422286 106.337859
L 175.370929 106.668558
L 176.301644 107.038193
L 177.275687 107.385074
L 178.222055 107.410546
L 179.224305 107.472176
L 180.222669 107.559128
L 181.225298 107.61829
L 182.766354 107.827838
L 183.694111 107.796506
L 184.694375 107.803275
L 186.128451 107.800491
L 186.10596 108.533232
z
" clip-path="url(#p6bf21e4981)" style="fill: #ffd7d1; stroke: #ba3f3f; stroke-width: 2.1; stroke-linejoin: miter"/>
   </g>
   <g id="patch_15">
    <path d="M 276.24528 170.4708
L 277.24528 170.502235
L 278.24528 170.539164
L 279.24528 170.636742
L 280.24528 170.669134
L 281.736 170.742257
L 282.045615 169.4708
L 282.080544 168.4708
L 282.137133 167.4708
L 282.205685 166.4708
L 282.255811 165.4708
L 282.312182 164.4708
L 282.394806 163.4708
L 282.436939 162.4708
L 282.474824 161.4708
L 282.501439 160.4708
L 282.523657 159.4708
L 282.541317 158.4708
L 282.584152 157.4708
L 282.60418 156.4708
L 282.622802 155.4708
L 282.634233 153.61704
L 280.736 152.717055
L 279.736 152.723114
L 278.736 152.742199
L 277.736 152.76861
L 276.24528 152.792336
L 275.473604 154.61704
L 275.491069 155.61704
L 275.535905 156.61704
L 275.618964 157.61704
L 275.668131 158.61704
L 275.718349 159.61704
L 275.771486 160.61704
L 275.811678 161.61704
L 275.892438 162.61704
L 275.938235 163.61704
L 275.987378 164.61704
L 276.066953 165.61704
L 276.107199 166.61704
L 276.170733 167.61704
L 276.287984 168.61704
L 276.360357 170.4708
z
" clip-path="url(#p6bf21e4981)" style="fill: #7d634b; stroke: #2e2e2e; stroke-width: 1.1; stroke-linejoin: miter"/>
   </g>
   <g id="patch_16">
    <path d="M 259.31556 158.041152
L 260.31556 158.072587
L 261.31556 158.109516
L 262.31556 158.207094
L 263.31556 158.239486
L 264.31556 158.312609
L 265.31556 158.350767
L 266.31556 158.385696
L 267.31556 158.442285
L 268.31556 158.510837
L 269.31556 158.560963
L 270.31556 158.617334
L 271.31556 158.699958
L 272.31556 158.742091
L 273.31556 158.779976
L 274.31556 158.806591
L 275.31556 158.828809
L 276.31556 158.846469
L 277.31556 158.889304
L 278.31556 158.909332
L 279.31556 158.927954
L 280.31556 158.939385
L 281.31556 158.941137
L 282.31556 158.935078
L 283.31556 158.915993
L 284.31556 158.889582
L 285.31556 158.865856
L 286.31556 158.812828
L 287.31556 158.795363
L 288.31556 158.750527
L 289.31556 158.667468
L 290.31556 158.618301
L 291.31556 158.568083
L 292.31556 158.514946
L 293.31556 158.474754
L 294.31556 158.393994
L 295.31556 158.348197
L 296.31556 158.299054
L 297.31556 158.219479
L 298.31556 158.179233
L 299.31556 158.115699
L 300.31556 157.998448
L 301.31556 157.926075
L 302.31556 157.814094
L 303.31556 157.770028
L 304.31556 157.712254
L 305.31556 157.667556
L 306.44424 157.595169
L 307.426987 157.463721
L 308.424777 157.376398
L 309.855464 157.268728
L 310.759452 157.100519
L 311.742424 156.913278
L 312.724037 156.717189
L 313.70647 156.526436
L 315.237454 156.251256
L 315.913716 155.89022
L 316.817648 155.462414
L 317.722674 155.036984
L 318.65565 154.600911
L 318.888901 154.073114
L 319.470975 153.259961
L 320.131754 152.354357
L 320.216866 151.17378
L 320.22405 150.299648
L 320.257756 149.299648
L 320.27314 148.299648
L 320.29706 147.299648
L 320.325838 146.299648
L 320.345344 145.299648
L 320.410602 144.299648
L 320.439308 143.299648
L 320.499757 142.299648
L 320.554073 141.299648
L 320.590792 140.299648
L 320.627575 139.299648
L 320.665981 138.299648
L 320.695707 137.299648
L 320.799488 136.299648
L 320.911247 135.299648
L 320.956557 134.299648
L 321.045522 133.299648
L 321.11267 132.299648
L 321.152952 131.299648
L 321.255304 130.299648
L 321.286207 129.299648
L 321.319519 128.299648
L 321.351548 127.299648
L 321.406324 126.299648
L 321.467981 125.299648
L 321.50301 124.299648
L 321.586401 123.299648
L 321.62669 122.299648
L 321.661279 121.299648
L 321.691565 120.120192
L 321.531685 118.442517
L 320.844571 117.314868
L 320.288518 116.482877
L 319.662193 115.552329
L 318.467186 114.837193
L 317.565 114.405596
L 316.663407 113.972708
L 315.736015 113.524507
L 314.513676 113.292503
L 313.526327 113.133785
L 312.537813 112.982656
L 311.547786 112.841384
L 310.009653 112.612788
L 308.903082 112.584431
L 307.902747 112.579985
L 306.469519 112.555139
L 305.44424 112.570016
L 304.44424 112.608843
L 303.44424 112.626932
L 302.44424 112.657675
L 301.44424 112.697109
L 300.44424 112.728515
L 299.44424 112.808477
L 298.44424 112.885143
L 297.44424 112.961649
L 296.44424 112.993554
L 295.44424 113.077655
L 294.44424 113.142316
L 293.44424 113.226623
L 292.44424 113.280003
L 291.44424 113.322496
L 290.44424 113.439121
L 289.44424 113.548276
L 288.44424 113.668054
L 287.44424 113.726569
L 286.44424 113.784142
L 285.44424 113.819624
L 284.44424 113.917157
L 283.44424 113.960497
L 282.44424 113.989348
L 281.44424 114.012514
L 280.44424 114.055331
L 279.44424 114.09827
L 278.44424 114.126666
L 277.44424 114.160947
L 276.44424 114.179127
L 275.44424 114.197487
L 274.44424 114.214121
L 273.44424 114.234651
L 272.44424 114.263434
L 271.44424 114.271895
L 270.44424 114.276108
L 269.44424 114.278539
L 268.44424 114.277414
L 267.44424 114.274588
L 266.44424 114.269436
L 265.44424 114.262943
L 264.44424 114.253824
L 263.44424 114.232412
L 262.44424 114.209851
L 261.44424 114.191652
L 260.44424 114.153011
L 259.31556 114.129167
L 258.338355 114.136656
L 257.337427 114.121776
L 255.903578 114.12641
L 254.988845 114.244365
L 253.993859 114.353331
L 252.998578 114.460366
L 252.002941 114.565084
L 250.46158 114.772651
L 249.654298 115.113078
L 248.717112 115.46866
L 247.770153 115.803015
L 246.821471 116.204978
L 246.254636 116.900571
L 245.572113 117.641002
L 244.814449 118.476464
L 244.519299 120.097844
L 244.436187 121.120192
L 244.367575 122.120192
L 244.337777 123.120192
L 244.30469 124.120192
L 244.217231 125.120192
L 244.160321 126.120192
L 244.086353 127.120192
L 244.058173 128.120192
L 243.996307 129.120192
L 243.968823 130.120192
L 243.921529 131.120192
L 243.867153 132.120192
L 243.837962 133.120192
L 243.804435 134.120192
L 243.791783 135.120192
L 243.775468 136.120192
L 243.773747 137.120192
L 243.783435 138.120192
L 243.792733 139.120192
L 243.801318 140.120192
L 243.831488 141.120192
L 243.855087 142.120192
L 243.904863 143.120192
L 243.955452 144.120192
L 243.996642 145.120192
L 244.074324 146.120192
L 244.142153 147.120192
L 244.169272 148.120192
L 244.216218 149.120192
L 244.254602 150.120192
L 244.297956 151.299648
L 244.640315 152.917639
L 245.32998 153.804705
L 245.954948 154.586804
L 246.638457 155.475952
L 247.631886 155.845779
L 248.580529 156.176478
L 249.511244 156.546113
L 250.485287 156.892994
L 251.431655 156.918466
L 252.433905 156.980096
L 253.432269 157.067048
L 254.434898 157.12621
L 255.975954 157.335758
L 256.903711 157.304426
L 257.903975 157.311195
L 259.338051 157.308411
L 259.31556 158.041152
z
" clip-path="url(#p6bf21e4981)" style="fill: #ffe6ad; stroke: #d89c22; stroke-width: 2.1; stroke-linejoin: miter"/>
   </g>
   <g id="patch_17">
    <path d="M 349.45488 124.12296
L 350.45488 124.154395
L 351.45488 124.191324
L 352.45488 124.288902
L 353.45488 124.321294
L 354.9456 124.394417
L 355.255215 123.12296
L 355.290144 122.12296
L 355.346733 121.12296
L 355.415285 120.12296
L 355.465411 119.12296
L 355.521782 118.12296
L 355.604406 117.12296
L 355.646539 116.12296
L 355.684424 115.12296
L 355.711039 114.12296
L 355.733257 113.12296
L 355.750917 112.12296
L 355.793752 111.12296
L 355.81378 110.12296
L 355.832402 109.12296
L 355.843833 107.2692
L 353.9456 106.369215
L 352.9456 106.375274
L 351.9456 106.394359
L 350.9456 106.42077
L 349.45488 106.444496
L 348.683204 108.2692
L 348.700669 109.2692
L 348.745505 110.2692
L 348.828564 111.2692
L 348.877731 112.2692
L 348.927949 113.2692
L 348.981086 114.2692
L 349.021278 115.2692
L 349.102038 116.2692
L 349.147835 117.2692
L 349.196978 118.2692
L 349.276553 119.2692
L 349.316799 120.2692
L 349.380333 121.2692
L 349.497584 122.2692
L 349.569957 124.12296
z
" clip-path="url(#p6bf21e4981)" style="fill: #7d634b; stroke: #2e2e2e; stroke-width: 1.1; stroke-linejoin: miter"/>
   </g>
   <g id="patch_18">
    <path d="M 332.52516 111.693312
L 333.52516 111.724747
L 334.52516 111.761676
L 335.52516 111.859254
L 336.52516 111.891646
L 337.52516 111.964769
L 338.52516 112.002927
L 339.52516 112.037856
L 340.52516 112.094445
L 341.52516 112.162997
L 342.52516 112.213123
L 343.52516 112.269494
L 344.52516 112.352118
L 345.52516 112.394251
L 346.52516 112.432136
L 347.52516 112.458751
L 348.52516 112.480969
L 349.52516 112.498629
L 350.52516 112.541464
L 351.52516 112.561492
L 352.52516 112.580114
L 353.52516 112.591545
L 354.52516 112.593297
L 355.52516 112.587238
L 356.52516 112.568153
L 357.52516 112.541742
L 358.52516 112.518016
L 359.52516 112.464988
L 360.52516 112.447523
L 361.52516 112.402687
L 362.52516 112.319628
L 363.52516 112.270461
L 364.52516 112.220243
L 365.52516 112.167106
L 366.52516 112.126914
L 367.52516 112.046154
L 368.52516 112.000357
L 369.52516 111.951214
L 370.52516 111.871639
L 371.52516 111.831393
L 372.52516 111.767859
L 373.52516 111.650608
L 374.52516 111.578235
L 375.52516 111.466254
L 376.52516 111.422188
L 377.52516 111.364414
L 378.52516 111.319716
L 379.65384 111.247329
L 380.636587 111.115881
L 381.634377 111.028558
L 383.065064 110.920888
L 383.969052 110.752679
L 384.952024 110.565438
L 385.933637 110.369349
L 386.91607 110.178596
L 388.447054 109.903416
L 389.123316 109.54238
L 390.027248 109.114574
L 390.932274 108.689144
L 391.86525 108.253071
L 392.098501 107.725274
L 392.680575 106.912121
L 393.341354 106.006517
L 393.426466 104.82594
L 393.43365 103.951808
L 393.467356 102.951808
L 393.48274 101.951808
L 393.50666 100.951808
L 393.535438 99.951808
L 393.554944 98.951808
L 393.620202 97.951808
L 393.648908 96.951808
L 393.709357 95.951808
L 393.763673 94.951808
L 393.800392 93.951808
L 393.837175 92.951808
L 393.875581 91.951808
L 393.905307 90.951808
L 394.009088 89.951808
L 394.120847 88.951808
L 394.166157 87.951808
L 394.255122 86.951808
L 394.32227 85.951808
L 394.362552 84.951808
L 394.464904 83.951808
L 394.495807 82.951808
L 394.529119 81.951808
L 394.561148 80.951808
L 394.615924 79.951808
L 394.677581 78.951808
L 394.71261 77.951808
L 394.796001 76.951808
L 394.83629 75.951808
L 394.870879 74.951808
L 394.901165 73.772352
L 394.741285 72.094677
L 394.054171 70.967028
L 393.498118 70.135037
L 392.871793 69.204489
L 391.676786 68.489353
L 390.7746 68.057756
L 389.873007 67.624868
L 388.945615 67.176667
L 387.723276 66.944663
L 386.735927 66.785945
L 385.747413 66.634816
L 384.757386 66.493544
L 383.219253 66.264948
L 382.112682 66.236591
L 381.112347 66.232145
L 379.679119 66.207299
L 378.65384 66.222176
L 377.65384 66.261003
L 376.65384 66.279092
L 375.65384 66.309835
L 374.65384 66.349269
L 373.65384 66.380675
L 372.65384 66.460637
L 371.65384 66.537303
L 370.65384 66.613809
L 369.65384 66.645714
L 368.65384 66.729815
L 367.65384 66.794476
L 366.65384 66.878783
L 365.65384 66.932163
L 364.65384 66.974656
L 363.65384 67.091281
L 362.65384 67.200436
L 361.65384 67.320214
L 360.65384 67.378729
L 359.65384 67.436302
L 358.65384 67.471784
L 357.65384 67.569317
L 356.65384 67.612657
L 355.65384 67.641508
L 354.65384 67.664674
L 353.65384 67.707491
L 352.65384 67.75043
L 351.65384 67.778826
L 350.65384 67.813107
L 349.65384 67.831287
L 348.65384 67.849647
L 347.65384 67.866281
L 346.65384 67.886811
L 345.65384 67.915594
L 344.65384 67.924055
L 343.65384 67.928268
L 342.65384 67.930699
L 341.65384 67.929574
L 340.65384 67.926748
L 339.65384 67.921596
L 338.65384 67.915103
L 337.65384 67.905984
L 336.65384 67.884572
L 335.65384 67.862011
L 334.65384 67.843812
L 333.65384 67.805171
L 332.52516 67.781327
L 331.547955 67.788816
L 330.547027 67.773936
L 329.113178 67.77857
L 328.198445 67.896525
L 327.203459 68.005491
L 326.208178 68.112526
L 325.212541 68.217244
L 323.67118 68.424811
L 322.863898 68.765238
L 321.926712 69.12082
L 320.979753 69.455175
L 320.031071 69.857138
L 319.464236 70.552731
L 318.781713 71.293162
L 318.024049 72.128624
L 317.728899 73.750004
L 317.645787 74.772352
L 317.577175 75.772352
L 317.547377 76.772352
L 317.51429 77.772352
L 317.426831 78.772352
L 317.369921 79.772352
L 317.295953 80.772352
L 317.267773 81.772352
L 317.205907 82.772352
L 317.178423 83.772352
L 317.131129 84.772352
L 317.076753 85.772352
L 317.047562 86.772352
L 317.014035 87.772352
L 317.001383 88.772352
L 316.985068 89.772352
L 316.983347 90.772352
L 316.993035 91.772352
L 317.002333 92.772352
L 317.010918 93.772352
L 317.041088 94.772352
L 317.064687 95.772352
L 317.114463 96.772352
L 317.165052 97.772352
L 317.206242 98.772352
L 317.283924 99.772352
L 317.351753 100.772352
L 317.378872 101.772352
L 317.425818 102.772352
L 317.464202 103.772352
L 317.507556 104.951808
L 317.849915 106.569799
L 318.53958 107.456865
L 319.164548 108.238964
L 319.848057 109.128112
L 320.841486 109.497939
L 321.790129 109.828638
L 322.720844 110.198273
L 323.694887 110.545154
L 324.641255 110.570626
L 325.643505 110.632256
L 326.641869 110.719208
L 327.644498 110.77837
L 329.185554 110.987918
L 330.113311 110.956586
L 331.113575 110.963355
L 332.547651 110.960571
L 332.52516 111.693312
z
" clip-path="url(#p6bf21e4981)" style="fill: #d8f4f5; stroke: #27919e; stroke-width: 2.1; stroke-linejoin: miter"/>
   </g>
   <g id="patch_19">
    <path d="M 413.51328 163.09728
L 414.51328 163.128715
L 415.51328 163.165644
L 416.51328 163.263222
L 417.51328 163.295614
L 419.004 163.368737
L 419.313615 162.09728
L 419.348544 161.09728
L 419.405133 160.09728
L 419.473685 159.09728
L 419.523811 158.09728
L 419.580182 157.09728
L 419.662806 156.09728
L 419.704939 155.09728
L 419.742824 154.09728
L 419.769439 153.09728
L 419.791657 152.09728
L 419.809317 151.09728
L 419.852152 150.09728
L 419.87218 149.09728
L 419.890802 148.09728
L 419.902233 146.24352
L 418.004 145.343535
L 417.004 145.349594
L 416.004 145.368679
L 415.004 145.39509
L 413.51328 145.418816
L 412.741604 147.24352
L 412.759069 148.24352
L 412.803905 149.24352
L 412.886964 150.24352
L 412.936131 151.24352
L 412.986349 152.24352
L 413.039486 153.24352
L 413.079678 154.24352
L 413.160438 155.24352
L 413.206235 156.24352
L 413.255378 157.24352
L 413.334953 158.24352
L 413.375199 159.24352
L 413.438733 160.24352
L 413.555984 161.24352
L 413.628357 163.09728
z
" clip-path="url(#p6bf21e4981)" style="fill: #7d634b; stroke: #2e2e2e; stroke-width: 1.1; stroke-linejoin: miter"/>
   </g>
   <g id="patch_20">
    <path d="M 396.58356 150.667632
L 397.58356 150.699067
L 398.58356 150.735996
L 399.58356 150.833574
L 400.58356 150.865966
L 401.58356 150.939089
L 402.58356 150.977247
L 403.58356 151.012176
L 404.58356 151.068765
L 405.58356 151.137317
L 406.58356 151.187443
L 407.58356 151.243814
L 408.58356 151.326438
L 409.58356 151.368571
L 410.58356 151.406456
L 411.58356 151.433071
L 412.58356 151.455289
L 413.58356 151.472949
L 414.58356 151.515784
L 415.58356 151.535812
L 416.58356 151.554434
L 417.58356 151.565865
L 418.58356 151.567617
L 419.58356 151.561558
L 420.58356 151.542473
L 421.58356 151.516062
L 422.58356 151.492336
L 423.58356 151.439308
L 424.58356 151.421843
L 425.58356 151.377007
L 426.58356 151.293948
L 427.58356 151.244781
L 428.58356 151.194563
L 429.58356 151.141426
L 430.58356 151.101234
L 431.58356 151.020474
L 432.58356 150.974677
L 433.58356 150.925534
L 434.58356 150.845959
L 435.58356 150.805713
L 436.58356 150.742179
L 437.58356 150.624928
L 438.58356 150.552555
L 439.58356 150.440574
L 440.58356 150.396508
L 441.58356 150.338734
L 442.58356 150.294036
L 443.71224 150.221649
L 444.694987 150.090201
L 445.692777 150.002878
L 447.123464 149.895208
L 448.027452 149.726999
L 449.010424 149.539758
L 449.992037 149.343669
L 450.97447 149.152916
L 452.505454 148.877736
L 453.181716 148.5167
L 454.085648 148.088894
L 454.990674 147.663464
L 455.92365 147.227391
L 456.156901 146.699594
L 456.738975 145.886441
L 457.399754 144.980837
L 457.484866 143.80026
L 457.49205 142.926128
L 457.525756 141.926128
L 457.54114 140.926128
L 457.56506 139.926128
L 457.593838 138.926128
L 457.613344 137.926128
L 457.678602 136.926128
L 457.707308 135.926128
L 457.767757 134.926128
L 457.822073 133.926128
L 457.858792 132.926128
L 457.895575 131.926128
L 457.933981 130.926128
L 457.963707 129.926128
L 458.067488 128.926128
L 458.179247 127.926128
L 458.224557 126.926128
L 458.313522 125.926128
L 458.38067 124.926128
L 458.420952 123.926128
L 458.523304 122.926128
L 458.554207 121.926128
L 458.587519 120.926128
L 458.619548 119.926128
L 458.674324 118.926128
L 458.735981 117.926128
L 458.77101 116.926128
L 458.854401 115.926128
L 458.89469 114.926128
L 458.929279 113.926128
L 458.959565 112.746672
L 458.799685 111.068997
L 458.112571 109.941348
L 457.556518 109.109357
L 456.930193 108.178809
L 455.735186 107.463673
L 454.833 107.032076
L 453.931407 106.599188
L 453.004015 106.150987
L 451.781676 105.918983
L 450.794327 105.760265
L 449.805813 105.609136
L 448.815786 105.467864
L 447.277653 105.239268
L 446.171082 105.210911
L 445.170747 105.206465
L 443.737519 105.181619
L 442.71224 105.196496
L 441.71224 105.235323
L 440.71224 105.253412
L 439.71224 105.284155
L 438.71224 105.323589
L 437.71224 105.354995
L 436.71224 105.434957
L 435.71224 105.511623
L 434.71224 105.588129
L 433.71224 105.620034
L 432.71224 105.704135
L 431.71224 105.768796
L 430.71224 105.853103
L 429.71224 105.906483
L 428.71224 105.948976
L 427.71224 106.065601
L 426.71224 106.174756
L 425.71224 106.294534
L 424.71224 106.353049
L 423.71224 106.410622
L 422.71224 106.446104
L 421.71224 106.543637
L 420.71224 106.586977
L 419.71224 106.615828
L 418.71224 106.638994
L 417.71224 106.681811
L 416.71224 106.72475
L 415.71224 106.753146
L 414.71224 106.787427
L 413.71224 106.805607
L 412.71224 106.823967
L 411.71224 106.840601
L 410.71224 106.861131
L 409.71224 106.889914
L 408.71224 106.898375
L 407.71224 106.902588
L 406.71224 106.905019
L 405.71224 106.903894
L 404.71224 106.901068
L 403.71224 106.895916
L 402.71224 106.889423
L 401.71224 106.880304
L 400.71224 106.858892
L 399.71224 106.836331
L 398.71224 106.818132
L 397.71224 106.779491
L 396.58356 106.755647
L 395.606355 106.763136
L 394.605427 106.748256
L 393.171578 106.75289
L 392.256845 106.870845
L 391.261859 106.979811
L 390.266578 107.086846
L 389.270941 107.191564
L 387.72958 107.399131
L 386.922298 107.739558
L 385.985112 108.09514
L 385.038153 108.429495
L 384.089471 108.831458
L 383.522636 109.527051
L 382.840113 110.267482
L 382.082449 111.102944
L 381.787299 112.724324
L 381.704187 113.746672
L 381.635575 114.746672
L 381.605777 115.746672
L 381.57269 116.746672
L 381.485231 117.746672
L 381.428321 118.746672
L 381.354353 119.746672
L 381.326173 120.746672
L 381.264307 121.746672
L 381.236823 122.746672
L 381.189529 123.746672
L 381.135153 124.746672
L 381.105962 125.746672
L 381.072435 126.746672
L 381.059783 127.746672
L 381.043468 128.746672
L 381.041747 129.746672
L 381.051435 130.746672
L 381.060733 131.746672
L 381.069318 132.746672
L 381.099488 133.746672
L 381.123087 134.746672
L 381.172863 135.746672
L 381.223452 136.746672
L 381.264642 137.746672
L 381.342324 138.746672
L 381.410153 139.746672
L 381.437272 140.746672
L 381.484218 141.746672
L 381.522602 142.746672
L 381.565956 143.926128
L 381.908315 145.544119
L 382.59798 146.431185
L 383.222948 147.213284
L 383.906457 148.102432
L 384.899886 148.472259
L 385.848529 148.802958
L 386.779244 149.172593
L 387.753287 149.519474
L 388.699655 149.544946
L 389.701905 149.606576
L 390.700269 149.693528
L 391.702898 149.75269
L 393.243954 149.962238
L 394.171711 149.930906
L 395.171975 149.937675
L 396.606051 149.934891
L 396.58356 150.667632
z
" clip-path="url(#p6bf21e4981)" style="fill: #ffffff; stroke: #2e2e2e; stroke-width: 2.1; stroke-linejoin: miter"/>
   </g>
   <g id="text_1">
    <text style="font-size: 7.5px; font-family: 'Comic Sans MS', 'Ink Free', 'Arial', 'DejaVu Sans', sans-serif; text-anchor: start; fill: #6c6c6c" x="28.70532" y="43.007611" transform="rotate(-0 28.70532 43.007611)">Narrative guide only; the quantitative figures carry the measured evidence.</text>
   </g>
   <g id="text_2">
    <text style="font-size: 5.75px; font-family: 'Comic Sans MS', 'Ink Free', 'Arial', 'DejaVu Sans', sans-serif; fill: #262626" transform="translate(41.517 85.663216)">Can false text</text>
    <text style="font-size: 5.75px; font-family: 'Comic Sans MS', 'Ink Free', 'Arial', 'DejaVu Sans', sans-serif; fill: #262626" transform="translate(41.517 92.354203)">move a simple</text>
    <text style="font-size: 5.75px; font-family: 'Comic Sans MS', 'Ink Free', 'Arial', 'DejaVu Sans', sans-serif; fill: #262626" transform="translate(41.517 99.045191)">visual judgement?</text>
   </g>
   <g id="text_3">
    <text style="font-size: 5.75px; font-family: 'Comic Sans MS', 'Ink Free', 'Arial', 'DejaVu Sans', sans-serif; fill: #262626" transform="translate(114.7266 134.117776)">C0 baseline and</text>
    <text style="font-size: 5.75px; font-family: 'Comic Sans MS', 'Ink Free', 'Arial', 'DejaVu Sans', sans-serif; fill: #262626" transform="translate(114.7266 140.808763)">C1-C4 paired</text>
    <text style="font-size: 5.75px; font-family: 'Comic Sans MS', 'Ink Free', 'Arial', 'DejaVu Sans', sans-serif; fill: #262626" transform="translate(114.7266 147.499751)">prompts</text>
   </g>
   <g id="text_4">
    <text style="font-size: 5.75px; font-family: 'Comic Sans MS', 'Ink Free', 'Arial', 'DejaVu Sans', sans-serif; fill: #262626" transform="translate(187.9362 87.769936)">LLaVA C3/C4 shows</text>
    <text style="font-size: 5.75px; font-family: 'Comic Sans MS', 'Ink Free', 'Arial', 'DejaVu Sans', sans-serif; fill: #262626" transform="translate(187.9362 94.460923)">limited flips</text>
   </g>
   <g id="text_5">
    <text style="font-size: 5.75px; font-family: 'Comic Sans MS', 'Ink Free', 'Arial', 'DejaVu Sans', sans-serif; fill: #262626" transform="translate(261.1458 137.277856)">Wording, format,</text>
    <text style="font-size: 5.75px; font-family: 'Comic Sans MS', 'Ink Free', 'Arial', 'DejaVu Sans', sans-serif; fill: #262626" transform="translate(261.1458 143.968843)">colour route,</text>
    <text style="font-size: 5.75px; font-family: 'Comic Sans MS', 'Ink Free', 'Arial', 'DejaVu Sans', sans-serif; fill: #262626" transform="translate(261.1458 150.659831)">prompt factor</text>
   </g>
   <g id="text_6">
    <text style="font-size: 5.75px; font-family: 'Comic Sans MS', 'Ink Free', 'Arial', 'DejaVu Sans', sans-serif; fill: #262626" transform="translate(334.3554 90.930016)">Parser, source</text>
    <text style="font-size: 5.75px; font-family: 'Comic Sans MS', 'Ink Free', 'Arial', 'DejaVu Sans', sans-serif; fill: #262626" transform="translate(334.3554 97.621003)">sanity, visual</text>
    <text style="font-size: 5.75px; font-family: 'Comic Sans MS', 'Ink Free', 'Arial', 'DejaVu Sans', sans-serif; fill: #262626" transform="translate(334.3554 104.311991)">clarity,</text>
    <text style="font-size: 5.75px; font-family: 'Comic Sans MS', 'Ink Free', 'Arial', 'DejaVu Sans', sans-serif; fill: #262626" transform="translate(334.3554 111.002978)">reproducibility</text>
   </g>
   <g id="text_7">
    <text style="font-size: 5.75px; font-family: 'Comic Sans MS', 'Ink Free', 'Arial', 'DejaVu Sans', sans-serif; fill: #262626" transform="translate(398.4138 129.904336)">Local shift; not</text>
    <text style="font-size: 5.75px; font-family: 'Comic Sans MS', 'Ink Free', 'Arial', 'DejaVu Sans', sans-serif; fill: #262626" transform="translate(398.4138 136.595323)">general text-</text>
    <text style="font-size: 5.75px; font-family: 'Comic Sans MS', 'Ink Free', 'Arial', 'DejaVu Sans', sans-serif; fill: #262626" transform="translate(398.4138 143.286311)">over-vision.</text>
   </g>
   <g id="line2d_3">
    <path d="M 437.3064 129.38976
L 437.3064 105.16248
" clip-path="url(#p6bf21e4981)" style="fill: none; stroke: #2e2e2e; stroke-width: 2; stroke-linecap: square"/>
   </g>
   <g id="patch_21">
    <path d="M 437.3064 105.16248
L 438.290058 105.34525
L 439.272883 105.533451
L 440.246507 105.781598
L 441.23002 105.965313
L 442.207354 106.189289
L 443.189993 106.378704
L 444.17312 106.564928
L 445.152963 106.77256
L 446.13099 106.992018
L 447.111813 107.193262
L 448.091688 107.40068
L 449.067581 107.634046
L 450.049617 107.82739
L 451.032296 108.016536
L 452.016685 108.194542
L 453.001742 108.368202
L 453.98749 108.537355
L 454.969418 108.731394
L 455.954807 108.902889
L 456.940409 109.072994
L 457.927101 109.235992
L 458.915263 109.389421
L 459.904608 109.535132
L 460.89593 109.667966
L 461.888364 109.79356
L 462.88039 109.921807
L 464.642938 110.138665
L 463.65716 108.782136
L 462.675535 108.978152
L 461.699708 109.211948
L 460.71874 109.412245
L 459.737931 109.613581
L 458.757565 109.817802
L 457.775236 110.009228
L 456.79906 110.240752
L 455.817581 110.437717
L 454.836609 110.63799
L 453.860253 110.868343
L 452.877932 111.059822
L 451.899143 111.274319
L 450.928503 111.541912
L 449.951055 111.765147
L 448.979616 112.02753
L 447.997874 112.222785
L 447.018212 112.431589
L 446.036565 112.627469
L 445.05912 112.850716
L 444.086018 113.102272
L 443.106188 113.309984
L 442.127428 113.52467
L 441.142673 113.700288
L 440.159701 113.887529
L 439.178087 114.083618
L 437.429577 114.391945
L 436.454671 112.58936
L 436.442538 111.58936
L 436.431989 110.58936
L 436.424056 109.58936
L 436.418145 108.58936
L 436.411767 107.58936
L 436.406402 106.58936
L 436.410573 105.16248
z
" clip-path="url(#p6bf21e4981)" style="fill: #ffe0ec; stroke: #e85d90; stroke-width: 2; stroke-linejoin: miter"/>
   </g>
   <g id="patch_22">
    <path d="M 40.60188 73.56168
L 42.229874 73.543156
L 43.224012 73.391551
L 44.224588 73.300064
L 45.235636 73.140218
L 46.527107 72.702792
L 47.643626 72.159969
L 48.985629 70.749145
L 49.234952 69.82707
L 49.194321 68.953149
L 47.88589 67.305538
L 46.693978 66.57827
L 45.444665 65.982693
L 44.347497 65.717906
L 43.372299 65.493353
L 42.372305 65.275545
L 40.626047 65.190202
L 38.950141 65.222495
L 37.833664 65.381634
L 36.847616 65.549299
L 35.839148 65.722671
L 34.442437 66.255005
L 33.285217 66.856746
L 31.809704 68.422589
L 31.499989 69.644212
L 31.634603 70.640296
L 33.091202 72.437547
L 34.418746 73.133902
L 35.723444 73.644969
L 36.854682 73.82955
L 37.852538 73.935299
L 38.866729 74.078666
L 40.585712 74.088363
L 40.60188 73.56168
z
" clip-path="url(#p6bf21e4981)" style="fill: #ffffff; stroke: #4257a0; stroke-width: 2; stroke-linejoin: miter"/>
   </g>
   <g id="patch_23">
    <path d="M 113.81148 122.01624
L 115.439474 121.997716
L 116.433612 121.846111
L 117.434188 121.754624
L 118.445236 121.594778
L 119.736707 121.157352
L 120.853226 120.614529
L 122.195229 119.203705
L 122.444552 118.28163
L 122.403921 117.407709
L 121.09549 115.760098
L 119.903578 115.03283
L 118.654265 114.437253
L 117.557097 114.172466
L 116.581899 113.947913
L 115.581905 113.730105
L 113.835647 113.644762
L 112.159741 113.677055
L 111.043264 113.836194
L 110.057216 114.003859
L 109.048748 114.177231
L 107.652037 114.709565
L 106.494817 115.311306
L 105.019304 116.877149
L 104.709589 118.098772
L 104.844203 119.094856
L 106.300802 120.892107
L 107.628346 121.588462
L 108.933044 122.099529
L 110.064282 122.28411
L 111.062138 122.389859
L 112.076329 122.533226
L 113.795312 122.542923
L 113.81148 122.01624
z
" clip-path="url(#p6bf21e4981)" style="fill: #ffffff; stroke: #238456; stroke-width: 2; stroke-linejoin: miter"/>
   </g>
   <g id="patch_24">
    <path d="M 187.02108 75.6684
L 188.649074 75.649876
L 189.643212 75.498271
L 190.643788 75.406784
L 191.654836 75.246938
L 192.946307 74.809512
L 194.062826 74.266689
L 195.404829 72.855865
L 195.654152 71.93379
L 195.613521 71.059869
L 194.30509 69.412258
L 193.113178 68.68499
L 191.863865 68.089413
L 190.766697 67.824626
L 189.791499 67.600073
L 188.791505 67.382265
L 187.045247 67.296922
L 185.369341 67.329215
L 184.252864 67.488354
L 183.266816 67.656019
L 182.258348 67.829391
L 180.861637 68.361725
L 179.704417 68.963466
L 178.228904 70.529309
L 177.919189 71.750932
L 178.053803 72.747016
L 179.510402 74.544267
L 180.837946 75.240622
L 182.142644 75.751689
L 183.273882 75.93627
L 184.271738 76.042019
L 185.285929 76.185386
L 187.004912 76.195083
L 187.02108 75.6684
z
" clip-path="url(#p6bf21e4981)" style="fill: #ffffff; stroke: #ba3f3f; stroke-width: 2; stroke-linejoin: miter"/>
   </g>
   <g id="patch_25">
    <path d="M 260.23068 125.17632
L 261.858674 125.157796
L 262.852812 125.006191
L 263.853388 124.914704
L 264.864436 124.754858
L 266.155907 124.317432
L 267.272426 123.774609
L 268.614429 122.363785
L 268.863752 121.44171
L 268.823121 120.567789
L 267.51469 118.920178
L 266.322778 118.19291
L 265.073465 117.597333
L 263.976297 117.332546
L 263.001099 117.107993
L 262.001105 116.890185
L 260.254847 116.804842
L 258.578941 116.837135
L 257.462464 116.996274
L 256.476416 117.163939
L 255.467948 117.337311
L 254.071237 117.869645
L 252.914017 118.471386
L 251.438504 120.037229
L 251.128789 121.258852
L 251.263403 122.254936
L 252.720002 124.052187
L 254.047546 124.748542
L 255.352244 125.259609
L 256.483482 125.44419
L 257.481338 125.549939
L 258.495529 125.693306
L 260.214512 125.703003
L 260.23068 125.17632
z
" clip-path="url(#p6bf21e4981)" style="fill: #ffffff; stroke: #d89c22; stroke-width: 2; stroke-linejoin: miter"/>
   </g>
   <g id="patch_26">
    <path d="M 333.44028 78.82848
L 335.068274 78.809956
L 336.062412 78.658351
L 337.062988 78.566864
L 338.074036 78.407018
L 339.365507 77.969592
L 340.482026 77.426769
L 341.824029 76.015945
L 342.073352 75.09387
L 342.032721 74.219949
L 340.72429 72.572338
L 339.532378 71.84507
L 338.283065 71.249493
L 337.185897 70.984706
L 336.210699 70.760153
L 335.210705 70.542345
L 333.464447 70.457002
L 331.788541 70.489295
L 330.672064 70.648434
L 329.686016 70.816099
L 328.677548 70.989471
L 327.280837 71.521805
L 326.123617 72.123546
L 324.648104 73.689389
L 324.338389 74.911012
L 324.473003 75.907096
L 325.929602 77.704347
L 327.257146 78.400702
L 328.561844 78.911769
L 329.693082 79.09635
L 330.690938 79.202099
L 331.705129 79.345466
L 333.424112 79.355163
L 333.44028 78.82848
z
" clip-path="url(#p6bf21e4981)" style="fill: #ffffff; stroke: #27919e; stroke-width: 2; stroke-linejoin: miter"/>
   </g>
   <g id="patch_27">
    <path d="M 397.49868 117.8028
L 399.126674 117.784276
L 400.120812 117.632671
L 401.121388 117.541184
L 402.132436 117.381338
L 403.423907 116.943912
L 404.540426 116.401089
L 405.882429 114.990265
L 406.131752 114.06819
L 406.091121 113.194269
L 404.78269 111.546658
L 403.590778 110.81939
L 402.341465 110.223813
L 401.244297 109.959026
L 400.269099 109.734473
L 399.269105 109.516665
L 397.522847 109.431322
L 395.846941 109.463615
L 394.730464 109.622754
L 393.744416 109.790419
L 392.735948 109.963791
L 391.339237 110.496125
L 390.182017 111.097866
L 388.706504 112.663709
L 388.396789 113.885332
L 388.531403 114.881416
L 389.988002 116.678667
L 391.315546 117.375022
L 392.620244 117.886089
L 393.751482 118.07067
L 394.749338 118.176419
L 395.763529 118.319786
L 397.482512 118.329483
L 397.49868 117.8028
z
" clip-path="url(#p6bf21e4981)" style="fill: #ffffff; stroke: #2e2e2e; stroke-width: 2; stroke-linejoin: miter"/>
   </g>
   <g id="text_8">
    <text style="font-size: 15.5px; font-family: 'Comic Sans MS', 'Ink Free', 'Arial', 'DejaVu Sans', sans-serif; text-anchor: start; fill: #262626" x="27.7902" y="31.988445" transform="rotate(-0 27.7902 31.988445)">A hand-drawn map through the paper</text>
   </g>
   <g id="text_9">
    <text style="font-size: 7.8px; font-family: 'Comic Sans MS', 'Ink Free', 'Arial', 'DejaVu Sans', sans-serif; text-anchor: middle; fill: #4257a0" x="40.60188" y="71.719584" transform="rotate(-0 40.60188 71.719584)">1</text>
   </g>
   <g id="text_10">
    <text style="font-weight: 700; font-size: 7.3px; font-family: 'Comic Sans MS', 'Ink Free', 'Arial', 'DejaVu Sans', sans-serif; text-anchor: start; fill: #4257a0" x="46.0926" y="78.229695" transform="rotate(-0 46.0926 78.229695)">Question</text>
   </g>
   <g id="text_11">
    <text style="font-size: 7.8px; font-family: 'Comic Sans MS', 'Ink Free', 'Arial', 'DejaVu Sans', sans-serif; text-anchor: middle; fill: #238456" x="113.81148" y="120.174144" transform="rotate(-0 113.81148 120.174144)">2</text>
   </g>
   <g id="text_12">
    <text style="font-weight: 700; font-size: 7.3px; font-family: 'Comic Sans MS', 'Ink Free', 'Arial', 'DejaVu Sans', sans-serif; text-anchor: start; fill: #238456" x="119.3022" y="126.684255" transform="rotate(-0 119.3022 126.684255)">Evidence</text>
   </g>
   <g id="text_13">
    <text style="font-size: 7.8px; font-family: 'Comic Sans MS', 'Ink Free', 'Arial', 'DejaVu Sans', sans-serif; text-anchor: middle; fill: #ba3f3f" x="187.02108" y="73.826304" transform="rotate(-0 187.02108 73.826304)">3</text>
   </g>
   <g id="text_14">
    <text style="font-weight: 700; font-size: 7.3px; font-family: 'Comic Sans MS', 'Ink Free', 'Arial', 'DejaVu Sans', sans-serif; text-anchor: start; fill: #ba3f3f" x="192.5118" y="80.336415" transform="rotate(-0 192.5118 80.336415)">Shift</text>
   </g>
   <g id="text_15">
    <text style="font-size: 7.8px; font-family: 'Comic Sans MS', 'Ink Free', 'Arial', 'DejaVu Sans', sans-serif; text-anchor: middle; fill: #d89c22" x="260.23068" y="123.334224" transform="rotate(-0 260.23068 123.334224)">4</text>
   </g>
   <g id="text_16">
    <text style="font-weight: 700; font-size: 7.3px; font-family: 'Comic Sans MS', 'Ink Free', 'Arial', 'DejaVu Sans', sans-serif; text-anchor: start; fill: #d89c22" x="265.7214" y="129.844335" transform="rotate(-0 265.7214 129.844335)">Diagnostics</text>
   </g>
   <g id="text_17">
    <text style="font-size: 7.8px; font-family: 'Comic Sans MS', 'Ink Free', 'Arial', 'DejaVu Sans', sans-serif; text-anchor: middle; fill: #27919e" x="333.44028" y="76.986384" transform="rotate(-0 333.44028 76.986384)">5</text>
   </g>
   <g id="text_18">
    <text style="font-weight: 700; font-size: 7.3px; font-family: 'Comic Sans MS', 'Ink Free', 'Arial', 'DejaVu Sans', sans-serif; text-anchor: start; fill: #27919e" x="338.931" y="83.496495" transform="rotate(-0 338.931 83.496495)">Checks</text>
   </g>
   <g id="text_19">
    <text style="font-size: 7.8px; font-family: 'Comic Sans MS', 'Ink Free', 'Arial', 'DejaVu Sans', sans-serif; text-anchor: middle; fill: #2e2e2e" x="397.49868" y="115.960704" transform="rotate(-0 397.49868 115.960704)">6</text>
   </g>
   <g id="text_20">
    <text style="font-weight: 700; font-size: 7.3px; font-family: 'Comic Sans MS', 'Ink Free', 'Arial', 'DejaVu Sans', sans-serif; text-anchor: start; fill: #2e2e2e" x="402.9894" y="122.470815" transform="rotate(-0 402.9894 122.470815)">Claim</text>
   </g>
   <g id="text_21">
    <text style="font-size: 8px; font-family: 'Comic Sans MS', 'Ink Free', 'Arial', 'DejaVu Sans', sans-serif; text-anchor: start; fill: #6c6c6c" x="428.1552" y="191.97495" transform="rotate(-0 428.1552 191.97495)">Start broad, end bounded.</text>
   </g>
  </g>
 </g>
 <defs>
  <clipPath id="p6bf21e4981">
   <rect x="7.2" y="7.2" width="457.56" height="210.672"/>
  </clipPath>
 </defs>
</svg>
